<svg width="126" height="27" viewBox="0 0 126 27" fill="none" xmlns="http://www.w3.org/2000/svg">
<g clip-path="url(#clip0_499_10590)">
<path d="M25.8531 16.5938C24.1003 23.6256 16.9795 27.9031 9.94771 26.1503C2.91961 24.3974 -1.3591 17.2762 0.394543 10.2461C2.14655 3.21429 9.26692 -1.06442 16.2963 0.688401C23.3272 2.44122 27.6059 9.56324 25.8531 16.5938Z" fill="#EFEFEF"/>
<path d="M18.9097 11.5499C19.1709 9.8036 17.8413 8.86485 16.0233 8.23861L16.613 5.87308L15.1731 5.51423L14.599 7.81742C14.2155 7.72319 13.831 7.63269 13.4457 7.54593L14.024 5.22756L12.5845 4.86871L11.9948 7.23342C11.6814 7.16206 11.3738 7.09152 11.0753 7.01729L11.0769 7.00991L9.09116 6.51409L8.70811 8.05201C8.70811 8.05201 9.77646 8.29685 9.7539 8.31202C10.3371 8.45761 10.4425 8.84353 10.4248 9.14947L9.75308 11.8443C9.79327 11.8546 9.84536 11.8697 9.90277 11.8923L9.75062 11.8546L8.809 15.6297C8.73764 15.8068 8.55678 16.0726 8.14872 15.9717C8.16348 15.9926 7.10252 15.7105 7.10252 15.7105L6.3877 17.3591L8.2615 17.8266C8.6101 17.9136 8.95172 18.005 9.28801 18.0912L8.69212 20.4838L10.1304 20.8426L10.7201 18.475C11.113 18.5821 11.4944 18.6801 11.8676 18.7732L11.2795 21.1293L12.719 21.4881L13.3153 19.1C15.7707 19.5647 17.617 19.3773 18.3942 17.1569C19.0204 15.3688 18.363 14.3374 17.0711 13.6644C18.0119 13.447 18.7206 12.8282 18.9097 11.5499ZM15.6193 16.1628C15.1744 17.9509 12.1637 16.9847 11.1877 16.7419L11.9784 13.5721C12.9544 13.8161 16.0844 14.2984 15.6193 16.1628ZM16.0647 11.5244C15.6587 13.1505 13.1529 12.3242 12.3401 12.1216L13.057 9.24667C13.8698 9.44926 16.4875 9.8278 16.0647 11.5244Z" fill="#0F0722"/>
<path d="M38.4602 8.23617C39.5245 8.23617 40.444 8.42687 41.2162 8.8013C41.9929 9.17943 42.6335 9.68879 43.1474 10.3294C43.6543 10.9733 44.0316 11.7258 44.2752 12.5883C44.5172 13.4536 44.6386 14.3829 44.6386 15.3779C44.6386 16.9076 44.3585 18.3512 43.7929 19.7128C43.227 21.0764 42.4601 22.2596 41.484 23.2684C40.5088 24.2761 39.3572 25.0701 38.0292 25.6569C36.7033 26.2442 35.2618 26.5379 33.714 26.5379C33.5139 26.5379 33.162 26.5321 32.6649 26.5219C32.1679 26.5116 31.5966 26.4604 30.9568 26.3742C30.2691 26.276 29.587 26.1422 28.9132 25.9731C28.2081 25.8029 27.523 25.5582 26.8696 25.2431L32.6161 1.09651L37.763 0.299255L35.7055 8.86774C36.1334 8.67435 36.5775 8.519 37.0326 8.4035C37.4998 8.28994 37.9795 8.23375 38.4602 8.23617ZM34.143 22.4548C34.9181 22.4548 35.6481 22.2641 36.3346 21.8901C37.0247 21.5128 37.6303 20.9984 38.1141 20.3784C38.6197 19.7319 39.0176 19.0081 39.2924 18.2347C39.5805 17.4353 39.7268 16.5918 39.7246 15.7421C39.7246 14.679 39.547 13.8514 39.1931 13.2514C38.8392 12.6547 38.1842 12.3545 37.2328 12.3545C36.9211 12.3545 36.52 12.414 36.0221 12.5202C35.5226 12.633 35.0756 12.8672 34.6749 13.2195L32.4837 22.319C32.6157 22.3424 32.7326 22.3646 32.8323 22.3855C32.9299 22.408 33.0373 22.424 33.1452 22.4351C33.2588 22.4478 33.3888 22.4544 33.5459 22.4544L34.143 22.4548ZM49.9762 26.0761H45.0602L49.2118 8.6065H54.1614L49.9762 26.0761ZM52.3684 6.47802C51.6977 6.48358 51.0439 6.26794 50.5081 5.86449C49.9516 5.45765 49.6756 4.83141 49.6756 3.9874C49.6756 3.52315 49.7699 3.08761 49.9573 2.67668C50.1385 2.27861 50.3925 1.91793 50.7062 1.61326C51.0207 1.3131 51.3858 1.07108 51.7848 0.89843C52.2 0.720993 52.6473 0.630815 53.0988 0.633497C53.7845 0.633497 54.403 0.837733 54.9574 1.24703C55.5094 1.65837 55.7871 2.28461 55.7871 3.12411C55.7898 3.57725 55.6932 4.02549 55.5041 4.43729C55.3248 4.83575 55.0715 5.1966 54.7577 5.50072C54.444 5.80126 54.0786 6.04272 53.6791 6.21349C53.2682 6.39312 52.8326 6.47802 52.3684 6.47802ZM58.4696 4.25397L63.6186 3.4563L62.3542 8.60568H67.8686L66.8729 12.6568H61.3917L59.9317 18.7675C59.7972 19.2764 59.7209 19.7521 59.6996 20.1946C59.675 20.6388 59.7316 21.0202 59.8644 21.3413C59.9965 21.6633 60.2335 21.9114 60.578 22.0865C60.9213 22.2649 61.4122 22.3547 62.0561 22.3547C62.5864 22.3547 63.1035 22.3043 63.6022 22.2042C64.1146 22.1026 64.619 21.9642 65.1114 21.79L65.4789 25.5774C64.7734 25.8328 64.0523 26.0431 63.32 26.2069C62.5437 26.3857 61.6246 26.4714 60.5624 26.4714C59.0352 26.4714 57.8512 26.2446 57.0076 25.7935C56.1652 25.3391 55.5697 24.7174 55.2133 23.9308C54.8619 23.1475 54.7048 22.244 54.7487 21.2257C54.7938 20.2053 54.948 19.1325 55.2133 18.0034L58.4696 4.25397ZM67.6525 19.1005C67.6525 17.5954 67.8961 16.1768 68.3825 14.848C68.8685 13.5184 69.5685 12.3558 70.4765 11.3584C71.3816 10.3659 72.4844 9.57888 73.7828 9.00144C75.0739 8.42728 76.5208 8.13774 78.1145 8.13774C79.1127 8.13774 80.0038 8.23207 80.7884 8.42113C81.5758 8.61183 82.2878 8.85831 82.9321 9.16754L81.2371 13.0226C80.7852 12.841 80.3253 12.6803 79.8587 12.5411C79.3829 12.3947 78.8026 12.3242 78.1157 12.3242C76.4744 12.3242 75.1776 12.8901 74.2122 14.0171C73.2501 15.1453 72.7658 16.664 72.7658 18.5694C72.7658 19.6984 73.0098 20.6109 73.4986 21.3093C73.985 22.0078 74.8836 22.3555 76.1882 22.3555C76.8316 22.3555 77.4534 22.2883 78.0484 22.157C78.648 22.0242 79.1775 21.8568 79.6438 21.6592L80.0112 25.611C79.3386 25.869 78.6509 26.0859 77.952 26.2606C77.1974 26.4452 76.3005 26.5403 75.2601 26.5403C73.887 26.5403 72.7239 26.3398 71.7733 25.9436C70.8218 25.5421 70.0356 25.0086 69.416 24.3327C68.7934 23.6552 68.3468 22.8637 68.0704 21.9561C67.794 21.0485 67.6525 20.0942 67.6525 19.1005ZM89.491 26.5391C88.3176 26.5391 87.2981 26.3603 86.4336 26.0064C85.5715 25.6528 84.8579 25.1558 84.2928 24.5119C83.7269 23.8713 83.304 23.1122 83.0141 22.2374C82.7241 21.3631 82.5847 20.3948 82.5847 19.3338C82.5847 18.0034 82.7979 16.673 83.2302 15.3455C83.6604 14.0167 84.2981 12.8216 85.1413 11.7599C85.9792 10.6964 87.0127 9.827 88.2282 9.14908C89.4434 8.47567 90.8407 8.13692 92.411 8.13692C93.563 8.13692 94.5764 8.31614 95.4532 8.67007C96.3255 9.02318 97.044 9.52392 97.612 10.1645C98.1739 10.8084 98.6012 11.5642 98.8875 12.4406C99.177 13.313 99.3197 14.2837 99.3197 15.3455C99.3197 16.6718 99.1089 18.003 98.691 19.3334C98.2723 20.6581 97.651 21.8556 96.8308 22.9194C96.0122 23.9816 94.989 24.8502 93.759 25.5253C92.5316 26.2008 91.1072 26.5391 89.491 26.5391ZM91.9476 12.3246C91.2188 12.3246 90.5745 12.5358 90.0229 12.9537C89.4693 13.3765 89.0046 13.9084 88.6297 14.549C88.2508 15.1929 87.9703 15.895 87.7804 16.6582C87.5918 17.4231 87.4995 18.147 87.4995 18.8331C87.4995 19.9416 87.6787 20.8057 88.0298 21.4266C88.3857 22.0443 89.0263 22.3555 89.9565 22.3555C90.6877 22.3555 91.3291 22.1451 91.8836 21.7231C92.434 21.3036 92.8998 20.7717 93.2772 20.129C93.6536 19.4893 93.937 18.7847 94.1269 18.0198C94.3127 17.2574 94.4074 16.5303 94.4074 15.8446C94.4074 14.7389 94.2294 13.8736 93.8743 13.2531C93.5208 12.635 92.8773 12.3246 91.9476 12.3246ZM104.677 26.0761H99.7573L103.909 8.6065H108.861L104.677 26.0761ZM107.066 6.47802C106.395 6.48368 105.742 6.26801 105.207 5.86449C104.653 5.45765 104.375 4.83141 104.375 3.9874C104.375 3.52315 104.471 3.08761 104.658 2.67668C104.838 2.27813 105.092 1.91729 105.406 1.61326C105.721 1.313 106.086 1.07097 106.486 0.89843C106.899 0.720958 107.345 0.630766 107.795 0.633497C108.483 0.633497 109.103 0.837733 109.657 1.24703C110.21 1.65837 110.489 2.28461 110.489 3.12411C110.489 3.59 110.39 4.02718 110.204 4.43729C110.018 4.84741 109.768 5.20051 109.459 5.50072C109.145 5.80055 108.779 6.04192 108.38 6.21349C107.968 6.39312 107.533 6.47802 107.066 6.47802ZM112.404 9.40089C112.777 9.2918 113.193 9.16056 113.646 9.01784C114.15 8.86165 114.661 8.72971 115.177 8.6225C115.739 8.49946 116.372 8.39898 117.069 8.32147C117.765 8.24232 118.56 8.20377 119.442 8.20377C122.034 8.20377 123.822 8.95879 124.808 10.4643C125.794 11.9698 125.965 14.0298 125.325 16.6418L123.064 26.0744H118.115L120.307 16.8399C120.441 16.2637 120.545 15.706 120.623 15.1613C120.702 14.6216 120.697 14.1455 120.606 13.7341C120.525 13.3398 120.308 12.9864 119.993 12.7363C119.669 12.4825 119.179 12.3549 118.514 12.3549C117.856 12.3575 117.2 12.4251 116.556 12.5567L113.333 26.0732H108.383L112.404 9.40089Z" fill="#EFEFEF"/>
</g>
<defs>
<clipPath id="clip0_499_10590">
<rect width="125.705" height="26.2472" fill="white" transform="translate(0 0.295898)"/>
</clipPath>
</defs>
</svg>
