<svg width="111" height="33" viewBox="0 0 111 33" fill="none" xmlns="http://www.w3.org/2000/svg">
<g clip-path="url(#clip0_499_10594)">
<path fill-rule="evenodd" clip-rule="evenodd" d="M7.7448 0.162077L0.633727 14.6912C0.606668 14.7452 0.598093 14.8062 0.609256 14.8654C0.62042 14.9245 0.650736 14.9786 0.695773 15.0197L19.9011 32.9207C19.9556 32.9716 20.0283 33 20.1039 33C20.1794 33 20.2521 32.9716 20.3066 32.9207L39.5119 15.0209C39.557 14.9797 39.5873 14.9256 39.5984 14.8665C39.6096 14.8074 39.601 14.7463 39.574 14.6923L32.4629 0.163194C32.44 0.1144 32.4031 0.0730642 32.3566 0.0441284C32.3101 0.0151926 32.2561 -0.000119696 32.2009 2.16286e-05H8.00906C7.95363 -0.000649126 7.89919 0.0142943 7.8523 0.0430492C7.80541 0.0718041 7.76807 0.113142 7.7448 0.162077Z" fill="#EFEFEF"/>
<path fill-rule="evenodd" clip-rule="evenodd" d="M22.571 16.1832C22.4332 16.1932 21.7208 16.2346 20.1317 16.2346C18.8679 16.2346 17.9705 16.1977 17.6557 16.1832C12.7713 15.9742 9.12561 15.1471 9.12561 14.1569C9.12561 13.1667 12.7713 12.3408 17.6557 12.1285V15.3595C17.9751 15.3818 18.8897 15.4344 20.1536 15.4344C21.6702 15.4344 22.4297 15.3729 22.5664 15.3606V12.1307C27.4404 12.3419 31.0781 13.169 31.0781 14.1569C31.0781 15.1449 27.4416 15.972 22.5664 16.1821L22.571 16.1832ZM22.571 11.7965V8.90523H29.373V4.49622H10.8537V8.90523H17.6545V11.7954C12.1268 12.0424 7.96973 13.1075 7.96973 14.3838C7.96973 15.6601 12.1268 16.7241 17.6545 16.9722V26.2373H22.5699V16.9689C28.085 16.7219 32.2351 15.6579 32.2351 14.3827C32.2351 13.1075 28.0885 12.0435 22.5699 11.7954L22.571 11.7965Z" fill="#0F0722"/>
</g>
<path d="M50.6365 21.6489C50.361 21.6489 50.1612 21.5807 50.0372 21.4444C49.9132 21.3081 49.8512 21.1037 49.8512 20.8311V8.42883H46.235C45.9594 8.42883 45.7666 8.36826 45.6564 8.24712C45.5599 8.12597 45.5117 7.92154 45.5117 7.63382V7.02052C45.5117 6.73279 45.5599 6.52836 45.6564 6.40722C45.7666 6.27093 45.9594 6.20278 46.235 6.20278H56.1126C56.3881 6.20278 56.581 6.27093 56.6912 6.40722C56.8014 6.52836 56.8565 6.73279 56.8565 7.02052V7.63382C56.8565 7.92154 56.8014 8.12597 56.6912 8.24712C56.581 8.36826 56.3881 8.42883 56.1126 8.42883H52.4963V20.8311C52.4963 21.1037 52.4343 21.3081 52.3103 21.4444C52.2001 21.5807 52.0003 21.6489 51.711 21.6489H50.6365Z" fill="#EFEFEF"/>
<path d="M59.2311 21.6489C58.9556 21.6489 58.7558 21.5807 58.6318 21.4444C58.5216 21.3081 58.4665 21.1037 58.4665 20.8311V7.04323C58.4665 6.75551 58.5216 6.5435 58.6318 6.40722C58.7558 6.27093 58.9556 6.20278 59.2311 6.20278H64.6245C66.2226 6.20278 67.4349 6.61165 68.2615 7.42938C69.1018 8.24712 69.522 9.45857 69.522 11.0638C69.522 12.1238 69.2947 13.0324 68.8401 13.7895C68.3854 14.5315 67.7242 15.0918 66.8563 15.4704L69.15 21.0583C69.1914 21.1491 69.212 21.2324 69.212 21.3081C69.212 21.5353 69.088 21.6489 68.8401 21.6489H67.1456C66.9665 21.6489 66.8356 21.6261 66.753 21.5807C66.6703 21.5201 66.5945 21.4066 66.5257 21.24L64.4385 15.8566H61.1116V20.8311C61.1116 21.1037 61.0496 21.3081 60.9256 21.4444C60.8154 21.5807 60.6156 21.6489 60.3263 21.6489H59.2311ZM64.0873 13.676C65.0516 13.676 65.7611 13.4715 66.2157 13.0627C66.6703 12.6538 66.8976 11.9875 66.8976 11.0638C66.8976 10.1552 66.691 9.48886 66.2777 9.06485C65.8644 8.64084 65.2376 8.42883 64.3972 8.42883H61.1116V13.676H64.0873Z" fill="#EFEFEF"/>
<path d="M78.4865 21.9896C76.1445 21.9896 74.3329 21.293 73.0517 19.8998C71.7705 18.5066 71.1299 16.5153 71.1299 13.9258C71.1299 11.3363 71.7568 9.345 73.0104 7.95182C74.2778 6.55865 76.0825 5.86206 78.4245 5.86206C79.3613 5.86206 80.2292 5.96806 81.0282 6.18007C81.8272 6.39207 82.5023 6.69494 83.0533 7.08866C83.1773 7.17952 83.2393 7.27795 83.2393 7.38395C83.2393 7.47481 83.2048 7.58081 83.136 7.70196L82.5574 8.79227C82.4747 8.92856 82.3989 8.9967 82.3301 8.9967C82.2749 8.9967 82.1785 8.95885 82.0408 8.88313C81.1728 8.30769 80.0639 8.01997 78.7138 8.01997C77.1571 8.01997 75.9379 8.51212 75.0562 9.49643C74.1745 10.4807 73.7337 11.9572 73.7337 13.9258C73.7337 15.9247 74.1883 17.4163 75.0975 18.4006C76.0067 19.3698 77.2328 19.8544 78.7758 19.8544C80.2085 19.8544 81.3864 19.5591 82.3094 18.9685C82.4472 18.8928 82.5367 18.8549 82.578 18.8549C82.6607 18.8549 82.7433 18.9231 82.826 19.0594L83.4666 20.2405C83.5079 20.3314 83.5286 20.4071 83.5286 20.4677C83.5286 20.5585 83.4528 20.657 83.3013 20.763C82.2405 21.5807 80.6356 21.9896 78.4865 21.9896Z" fill="#EFEFEF"/>
<path d="M85.838 21.6489C85.3834 21.6489 85.1561 21.3914 85.1561 20.8765V19.9907C85.1561 19.0215 85.4936 18.0675 86.1686 17.1286C86.8574 16.1897 87.8838 15.2963 89.2476 14.4483C90.2257 13.8425 90.9421 13.3655 91.3967 13.0172C91.8513 12.6538 92.182 12.2752 92.3886 11.8815C92.609 11.4726 92.7192 10.9729 92.7192 10.3823C92.7192 9.61 92.4713 9.02699 91.9753 8.63327C91.4794 8.2244 90.7837 8.01997 89.8882 8.01997C89.2407 8.01997 88.6277 8.11083 88.0491 8.29255C87.4843 8.45912 86.9952 8.67113 86.5819 8.92856C86.4442 9.00428 86.3546 9.04213 86.3133 9.04213C86.2306 9.04213 86.148 8.97399 86.0653 8.8377L85.4867 7.72467C85.4178 7.60353 85.3834 7.49753 85.3834 7.40667C85.3834 7.28552 85.4454 7.17952 85.5694 7.08866C86.0515 6.71008 86.7059 6.41479 87.5325 6.20278C88.3591 5.97563 89.2614 5.86206 90.2395 5.86206C91.7687 5.86206 93.0017 6.24821 93.9384 7.02052C94.8752 7.77768 95.3436 8.85284 95.3436 10.246C95.3436 11.412 95.013 12.3964 94.3517 13.1989C93.7043 14.0015 92.6779 14.8268 91.2727 15.6749C90.2395 16.2654 89.4198 16.8863 88.8137 17.5375C88.2075 18.1886 87.8838 18.8246 87.8424 19.4455H94.5377C94.8132 19.4455 95.0061 19.5137 95.1163 19.6499C95.2265 19.7711 95.2816 19.9755 95.2816 20.2632V20.8765C95.2816 21.1491 95.2265 21.346 95.1163 21.4671C95.0061 21.5883 94.8132 21.6489 94.5377 21.6489H85.838Z" fill="#EFEFEF"/>
<path d="M103.841 21.9896C101.581 21.9896 99.8732 21.3006 98.716 19.9225C97.5725 18.5294 97.0008 16.5304 97.0008 13.9258C97.0008 11.3212 97.5725 9.32985 98.716 7.95182C99.8732 6.55865 101.581 5.86206 103.841 5.86206C106.086 5.86206 107.788 6.55865 108.945 7.95182C110.102 9.345 110.681 11.3363 110.681 13.9258C110.681 16.5153 110.102 18.5066 108.945 19.8998C107.788 21.293 106.086 21.9896 103.841 21.9896ZM106.176 8.70141C105.583 8.24712 104.805 8.01997 103.841 8.01997C102.408 8.01997 101.34 8.51212 100.638 9.49643C99.9489 10.4807 99.6045 11.9572 99.6045 13.9258C99.6045 15.4856 99.8938 16.6895 100.472 17.5375L106.176 8.70141ZM103.841 19.8544C105.273 19.8544 106.334 19.3622 107.023 18.3779C107.712 17.3936 108.056 15.9096 108.056 13.9258C108.056 12.3964 107.781 11.2 107.23 10.3369L101.506 19.2184C102.126 19.6424 102.904 19.8544 103.841 19.8544Z" fill="#EFEFEF"/>
<defs>
<clipPath id="clip0_499_10594">
<rect width="39" height="33" fill="white" transform="translate(0.603516)"/>
</clipPath>
</defs>
</svg>
