<svg width="106" height="32" viewBox="0 0 106 32" fill="none" xmlns="http://www.w3.org/2000/svg">
<g clip-path="url(#clip0_499_10576)">
<path d="M42.0145 12.8972H40.2925V24.3647H42.0145V12.8972Z" fill="#EFEFEF"/>
<path d="M49.7285 8.03961H35.6924V9.79593H49.7285V8.03961Z" fill="#EFEFEF"/>
<path d="M45.1249 12.8972H43.4028V24.3647H45.1249V12.8972Z" fill="#EFEFEF"/>
<path d="M92.6987 24.3766H94.4363V17.4699L92.6987 15.5V24.3766Z" fill="#EFEFEF"/>
<path d="M101.848 8.0396V20.8441L89.5571 6.91223V24.3766H91.2908V11.5681L103.589 25.5039V8.0396H101.848Z" fill="#EFEFEF"/>
<path d="M78.3049 8.03168C73.8873 8.03168 70.2959 11.6946 70.2959 16.2002C70.2959 20.7057 73.8873 24.3687 78.3049 24.3687C82.7225 24.3687 86.3139 20.7057 86.3139 16.2002C86.3139 11.6986 82.7225 8.03168 78.3049 8.03168ZM78.3049 22.6084C74.8414 22.6084 72.0218 19.7365 72.0218 16.2002C72.0218 12.6638 74.8376 9.79196 78.3049 9.79196C81.7684 9.79196 84.588 12.6638 84.588 16.2002C84.588 19.7326 81.7684 22.6084 78.3049 22.6084Z" fill="#EFEFEF"/>
<path d="M78.3042 15.0253C77.6682 15.0253 77.1523 15.5514 77.1523 16.2002C77.1523 16.8489 77.6682 17.375 78.3042 17.375C78.9403 17.375 79.4561 16.8489 79.4561 16.2002C79.4561 15.5514 78.9403 15.0253 78.3042 15.0253Z" fill="#EFEFEF"/>
<path d="M67.2827 13.0515C67.2827 10.2904 65.0953 8.04358 62.4075 8.04358H53.2466V24.3806H54.957V9.81572H62.4075C64.1334 9.81572 65.5374 11.2675 65.5374 13.0515C65.5374 14.8276 64.1528 16.2714 62.4424 16.2912L56.3649 16.2872V24.3806H58.0753V18.0594H62.0817L65.3551 24.3766H67.3447L63.9278 17.8102C65.902 17.1416 67.2827 15.1955 67.2827 13.0515Z" fill="#EFEFEF"/>
<path d="M23.8522 4.80387L0.511719 0.424927L12.7948 31.9438L29.9065 10.6781L23.8522 4.80387ZM23.4799 6.73424L27.052 10.1955L17.286 11.9993L23.4799 6.73424ZM15.1645 11.6393L4.8711 2.93283L21.6919 6.08946L15.1645 11.6393ZM14.4276 13.182L12.7521 27.3315L3.70368 4.10371L14.4276 13.182ZM15.979 13.9296L26.7921 11.932L14.3927 27.3434L15.979 13.9296Z" fill="#EFEFEF"/>
</g>
<defs>
<clipPath id="clip0_499_10576">
<rect width="105" height="31" fill="white" transform="translate(0.713867 0.625977)"/>
</clipPath>
</defs>
</svg>
