<svg width="32" height="32" viewBox="0 0 32 32" fill="none" xmlns="http://www.w3.org/2000/svg">
<g clip-path="url(#clip0_349_30889)">
<path d="M30.8061 20.0164C28.7351 28.3244 20.3178 33.3747 12.0217 31.3037C3.71342 29.2327 -1.33691 20.8157 0.734153 12.5197C2.8051 4.21171 11.2102 -0.838621 19.5185 1.23245C27.8146 3.29128 32.8772 11.7083 30.8061 20.0164Z" fill="url(#paint0_linear_349_30889)"/>
<path d="M23.1497 14.3365C23.4524 12.2779 21.8903 11.1639 19.7349 10.4252L20.4372 7.62792L18.7419 7.20409L18.0638 9.9287C17.6157 9.81971 17.1556 9.71073 16.6954 9.61386L17.3735 6.87714L15.6782 6.45331L14.988 9.23846C14.6126 9.1537 14.2493 9.06893 13.8981 8.98417V8.97206L11.5489 8.39081L11.1009 10.2072C11.1009 10.2072 12.3603 10.4978 12.336 10.5099C13.0263 10.6795 13.1474 11.1396 13.1231 11.5029L12.3239 14.6877C12.3724 14.6998 12.4329 14.7119 12.5056 14.7482C12.445 14.7361 12.3845 14.724 12.3239 14.6998L11.2099 19.156C11.1251 19.3619 10.9071 19.6767 10.4349 19.5557C10.447 19.5799 9.19971 19.2529 9.19971 19.2529L8.35205 21.2025L10.5681 21.7596C10.9798 21.8685 11.3794 21.9654 11.779 22.0744L11.0767 24.8959L12.772 25.3197L13.4743 22.5224C13.9345 22.6435 14.3946 22.7646 14.8306 22.8736L14.1403 25.6588L15.8356 26.0826L16.538 23.2611C19.4442 23.806 21.6239 23.5881 22.5321 20.9603C23.2708 18.8533 22.4958 17.6303 20.97 16.831C22.0962 16.5767 22.9317 15.8381 23.1497 14.3365ZM19.2626 19.7857C18.7419 21.8928 15.1817 20.7545 14.0313 20.4639L14.9638 16.7221C16.1142 17.0127 19.8196 17.5818 19.2626 19.7857ZM19.7954 14.3002C19.311 16.2256 16.3563 15.2447 15.3997 15.0025L16.2474 11.6119C17.204 11.8541 20.2919 12.3021 19.7954 14.3002Z" fill="white"/>
</g>
<defs>
<linearGradient id="paint0_linear_349_30889" x1="15.7614" y1="0.760626" x2="15.7614" y2="31.7649" gradientUnits="userSpaceOnUse">
<stop stop-color="#F9AA4B"/>
<stop offset="1" stop-color="#F7931A"/>
</linearGradient>
<clipPath id="clip0_349_30889">
<rect width="31" height="31" fill="white" transform="translate(0.269531 0.767944)"/>
</clipPath>
</defs>
</svg>
