<svg width="32" height="32" viewBox="0 0 32 32" fill="none" xmlns="http://www.w3.org/2000/svg">
<g clip-path="url(#clip0_349_30917)">
<path d="M31.2418 16.1356C31.2418 24.6537 24.3369 31.5585 15.8189 31.5585C7.30113 31.5585 0.395996 24.6537 0.395996 16.1356C0.395996 7.61769 7.30113 0.712708 15.8189 0.712708C24.3369 0.712708 31.2418 7.61769 31.2418 16.1356Z" fill="#1BA27A"/>
<path d="M23.0573 8.48984H8.45337V12.0155H13.9925V17.1976H17.5182V12.0155H23.0573V8.48984Z" fill="white"/>
<path d="M15.7888 17.7496C11.2066 17.7496 7.49171 17.0244 7.49171 16.1297C7.49171 15.2352 11.2065 14.5099 15.7888 14.5099C20.3709 14.5099 24.0857 15.2352 24.0857 16.1297C24.0857 17.0244 20.3709 17.7496 15.7888 17.7496ZM25.105 16.3998C25.105 15.2462 20.934 14.3111 15.7888 14.3111C10.6437 14.3111 6.47241 15.2462 6.47241 16.3998C6.47241 17.4157 9.70675 18.2621 13.9926 18.4496V25.8887H17.518V18.4526C21.8368 18.2709 25.105 17.4209 25.105 16.3998Z" fill="white"/>
</g>
<defs>
<clipPath id="clip0_349_30917">
<rect width="31" height="31" fill="white" transform="translate(0.269531 0.640991)"/>
</clipPath>
</defs>
</svg>
