<svg width="103" height="104" viewBox="0 0 103 104" fill="none" xmlns="http://www.w3.org/2000/svg">
<g clip-path="url(#clip0_349_36261)">
<path d="M36.2443 81.3234L20.9161 89.6844C20.0166 90.1749 19.2082 90.7778 18.4561 91.4349C27.3928 98.9701 38.9292 103.516 51.5337 103.516C64.0452 103.516 75.5079 99.038 84.4195 91.6055C83.5975 90.9115 82.7058 90.2873 81.7171 89.7949L65.3033 81.589C63.1825 80.5286 61.843 78.3613 61.843 75.9904V69.5505C62.3044 69.0252 62.8317 68.3505 63.3958 67.5538C65.6329 64.3939 67.3252 60.9181 68.4981 57.2717C70.6034 56.6222 72.1542 54.6779 72.1542 52.3671V45.493C72.1542 43.9809 71.4815 42.6297 70.4366 41.6837V31.7466C70.4366 31.7466 72.4779 16.2827 51.5357 16.2827C30.5934 16.2827 32.6347 31.7466 32.6347 31.7466V41.6837C31.5879 42.6297 30.9171 43.9809 30.9171 45.493V52.3671C30.9171 54.1777 31.869 55.7712 33.2938 56.692C35.0114 64.1691 39.5088 69.5505 39.5088 69.5505V75.8315C39.5069 78.119 38.2546 80.2262 36.2443 81.3234Z" fill="#E7ECED"/>
<path d="M52.4121 0.780599C24.0451 0.295959 0.654405 22.8996 0.169764 51.2666C-0.105511 67.3508 7.06329 81.8067 18.4775 91.42C19.2239 90.7686 20.0245 90.1716 20.9143 89.6869L36.2425 81.3259C38.2528 80.2287 39.5051 78.1215 39.5051 75.8301V69.5491C39.5051 69.5491 35.0057 64.1677 33.2901 56.6907C31.8672 55.7698 30.9134 54.1783 30.9134 52.3657V45.4916C30.9134 43.9795 31.5861 42.6283 32.631 41.6823V31.7452C32.631 31.7452 30.5897 16.2813 51.532 16.2813C72.4742 16.2813 70.4329 31.7452 70.4329 31.7452V41.6823C71.4798 42.6283 72.1505 43.9795 72.1505 45.4916V52.3657C72.1505 54.6765 70.5996 56.6209 68.4944 57.2703C67.3215 60.9167 65.6292 64.3926 63.3921 67.5524C62.828 68.3492 62.3007 69.0238 61.8393 69.5491V75.989C61.8393 78.3599 63.1788 80.5291 65.2996 81.5876L81.7134 89.7935C82.6982 90.2859 83.588 90.9082 84.408 91.6003C95.4772 82.3688 102.629 68.5663 102.894 53.0229C103.383 24.6559 80.781 1.26524 52.4121 0.780599Z" fill="#141626"/>
</g>
<defs>
<clipPath id="clip0_349_36261">
<rect width="102.744" height="102.744" fill="white" transform="translate(0.162109 0.772949)"/>
</clipPath>
</defs>
</svg>
