<svg width="177" height="28" viewBox="0 0 177 28" fill="none" xmlns="http://www.w3.org/2000/svg">
<g fill="url(#paint0_linear_505_2451)">
  <path d="M37.7637 13.621C37.7637 11.941 38.2708 10.4274 39.2848 9.08037C40.3141 7.7333 41.7065 6.68138 43.4623 5.92461C45.2331 5.1527 47.1932 4.76674 49.3424 4.76674C51.3554 4.76674 53.149 5.08459 54.7231 5.72028C56.3123 6.34084 57.5913 7.2187 58.5599 8.35386C59.5437 9.47389 60.1567 10.7604 60.3989 12.2134H53.6787C53.3912 11.4264 52.8236 10.7982 51.976 10.329C51.1435 9.85985 50.2732 9.62524 49.3651 9.62524C48.5629 9.62524 47.791 9.78417 47.0494 10.102C46.3229 10.4199 45.725 10.8815 45.2558 11.4869C44.8017 12.0923 44.5747 12.8037 44.5747 13.621C44.5747 14.4383 44.8017 15.1497 45.2558 15.7551C45.725 16.3454 46.3229 16.7995 47.0494 17.1173C47.791 17.4352 48.5629 17.5941 49.3651 17.5941C50.3641 17.5941 51.2419 17.3746 51.9987 16.9357C52.7555 16.4968 53.3079 15.8686 53.656 15.0513H60.3762C60.1189 16.4892 59.5059 17.7682 58.5372 18.8882C57.5686 20.0082 56.2896 20.8861 54.7004 21.5218C53.1263 22.1423 51.3403 22.4526 49.3424 22.4526C47.2083 22.4526 45.2558 22.0666 43.485 21.2947C41.7141 20.5228 40.3141 19.4633 39.2848 18.1163C38.2708 16.7692 37.7637 15.2708 37.7637 13.621ZM72.4167 4.83485C74.5509 4.83485 76.4731 5.22081 78.1834 5.99272C79.8937 6.74949 81.2332 7.80141 82.2019 9.14847C83.1705 10.4804 83.6549 11.9864 83.6549 13.6664C83.6549 15.3313 83.1705 16.8298 82.2019 18.1617C81.2332 19.4936 79.8937 20.5455 78.1834 21.3174C76.4731 22.0742 74.5509 22.4526 72.4167 22.4526C70.3735 22.4526 68.4815 22.0742 66.7409 21.3174C65.0155 20.5455 63.6381 19.4936 62.6089 18.1617C61.5948 16.8146 61.0878 15.3162 61.0878 13.6664C61.0878 12.0015 61.5948 10.4955 62.6089 9.14847C63.6381 7.80141 65.0155 6.74949 66.7409 5.99272C68.4815 5.22081 70.3735 4.83485 72.4167 4.83485ZM72.4395 17.6395C73.166 17.6395 73.8622 17.4806 74.5282 17.1627C75.2093 16.8449 75.7617 16.3833 76.1855 15.7778C76.6093 15.1724 76.8212 14.4686 76.8212 13.6664C76.8212 12.8491 76.6093 12.1453 76.1855 11.555C75.7617 10.9496 75.2093 10.488 74.5282 10.1701C73.8622 9.85228 73.166 9.69335 72.4395 9.69335C71.7281 9.69335 71.0318 9.85228 70.3507 10.1701C69.6848 10.488 69.1323 10.9496 68.6934 11.555C68.2696 12.1453 68.0577 12.8491 68.0577 13.6664C68.0577 14.4686 68.2696 15.1724 68.6934 15.7778C69.1323 16.3833 69.6848 16.8449 70.3507 17.1627C71.0318 17.4806 71.7281 17.6395 72.4395 17.6395ZM96.1057 11.9183C96.8322 11.888 97.3998 11.8729 97.8084 11.8729C100.003 11.8729 101.781 12.1831 103.144 12.8037C104.521 13.4243 105.21 14.6427 105.21 16.4589C105.21 18.8352 104.158 20.4396 102.054 21.272C99.9501 22.1045 97.5814 22.5207 94.9478 22.5207C92.2991 22.5207 89.8698 22.1045 87.6601 21.272C85.4503 20.4396 84.3454 18.8352 84.3454 16.4589H91.0201C91.0201 17.3368 91.4061 17.8968 92.178 18.139C92.9499 18.3811 93.8732 18.5022 94.9478 18.5022C95.9619 18.5022 96.8322 18.3433 97.5587 18.0255C98.2852 17.7076 98.6484 17.2157 98.6484 16.5497C98.6484 15.9897 98.2625 15.6265 97.4906 15.46C96.7338 15.2784 95.8484 15.1875 94.8343 15.1875L92.564 15.2103C91.0504 15.2103 89.7033 15.1043 88.5228 14.8924C87.3573 14.6654 86.366 14.2037 85.5486 13.5075C84.7465 12.7961 84.3454 11.7594 84.3454 10.3972C84.3454 8.74738 84.9281 7.50627 86.0935 6.67382C87.2741 5.82623 88.6212 5.28892 90.1347 5.06188C91.6483 4.81972 93.2526 4.69863 94.9478 4.69863C97.5814 4.69863 99.9501 5.11486 102.054 5.94731C104.158 6.76463 105.21 8.369 105.21 10.7604H98.6484C98.6484 10.1247 98.2852 9.64795 97.5587 9.3301C96.8473 9.01225 95.977 8.8382 94.9478 8.80793C93.858 8.80793 92.9272 8.92901 92.1553 9.17118C91.3985 9.41335 91.0201 9.7993 91.0201 10.329C91.0201 10.9345 91.4061 11.3507 92.178 11.5777C92.9499 11.8048 93.8202 11.9258 94.7889 11.941L96.1057 11.9183ZM131.278 5.1981V21.9985H124.808V15.8459L121.811 21.9985H116.021L112.82 15.7778V21.9985H106.35V5.1981H113.615L118.927 16.073L124.217 5.1981H131.278ZM149.349 15.7778H139.337V17.526L151.256 17.4579V21.9985H132.867V5.1981H151.256L151.279 9.73876H139.337V11.3507H149.349V15.7778ZM166.086 5.1981H173.26L166.767 13.6664L173.26 21.9985H166.086L162.499 17.4352L158.912 21.9985H151.738L158.254 13.6664L151.738 5.1981H158.912L162.499 9.78417L166.086 5.1981Z"/>
</g>

<path d="M16.6808 6.52575L21.724 4.06142L20.1729 9.45596L20.0373 9.92737L20.5134 10.0457L25.9607 11.3996L21.305 14.535L20.8981 14.809L21.1867 15.2056L24.4894 19.7443L18.9074 19.1535L18.4196 19.1019L18.3858 19.5912L17.9983 25.191L14.1021 21.1504L13.7616 20.7973L13.4211 21.1504L9.52489 25.191L9.13744 19.5912L9.10359 19.1019L8.6158 19.1535L3.03386 19.7443L6.3365 15.2056L6.62511 14.809L6.21825 14.535L1.56246 11.3996L7.00985 10.0457L7.48587 9.92737L7.35032 9.45596L5.79918 4.06142L10.8424 6.52575L11.2831 6.7411L11.4823 6.29285L13.7616 1.16333L16.0409 6.29285L16.2401 6.7411L16.6808 6.52575Z" stroke="url(#paint0_linear_505_2451)" stroke-width="0.94597"/>
<defs>

<linearGradient id="paint0_linear_505_2451" x1="32.6029" y1="1.98829" x2="204.532" y2="17.5534" gradientUnits="userSpaceOnUse">
<stop offset="0" style="stop-color:#5967F6; stop-opacity:1">
    <animate attributeName="stop-color" values="#5967F6; #B762C1; #C27ACB; #B762C1; #5967F6" keyTimes="0; 0.25; 0.5; 0.75; 1" dur="10s" repeatCount="indefinite"/>
</stop>

<stop offset="1" style="stop-color:#C27ACB;stop-opacity:1">
  <animate attributeName="stop-color" values="#C27ACB; #5967F6; #B762C1; #5967F6; #C27ACB" keyTimes="0; 0.25; 0.5; 0.75; 1" dur="10s" repeatCount="indefinite"/>
</stop>

</linearGradient>
</defs>
</svg>
