<svg width="12" height="12" viewBox="0 0 12 12" fill="none" xmlns="http://www.w3.org/2000/svg">
<g opacity="0.62">
<g clip-path="url(#clip0_505_6893)">
<path d="M5.72025 5.90734C7.29169 5.90734 8.57626 4.62276 8.57626 3.05133C8.57626 1.47989 7.29169 0.195312 5.72025 0.195312C4.14881 0.195312 2.86426 1.47989 2.86426 3.05133C2.86426 4.62276 4.14883 5.90734 5.72025 5.90734Z" fill="white"/>
<path d="M10.6231 8.18738C10.5483 8.0003 10.4485 7.8257 10.3363 7.66357C9.7626 6.81548 8.87713 6.25426 7.87939 6.11707C7.75469 6.10461 7.6175 6.12953 7.51772 6.20437C6.9939 6.59099 6.37033 6.79054 5.72179 6.79054C5.07325 6.79054 4.44968 6.59099 3.92586 6.20437C3.82608 6.12953 3.68889 6.09213 3.56419 6.11707C2.56645 6.25426 1.6685 6.81548 1.10728 7.66357C0.995037 7.8257 0.895254 8.01278 0.820441 8.18738C0.783034 8.26222 0.795495 8.34951 0.832902 8.42435C0.932685 8.59895 1.05739 8.77357 1.16963 8.92322C1.34423 9.16019 1.53131 9.37219 1.74334 9.57174C1.91793 9.74633 2.11748 9.90847 2.31704 10.0706C3.30229 10.8064 4.48711 11.193 5.70933 11.193C6.93155 11.193 8.11637 10.8064 9.10162 10.0706C9.30116 9.92095 9.5007 9.74633 9.67532 9.57174C9.87486 9.37219 10.0744 9.16017 10.249 8.92322C10.3737 8.76108 10.486 8.59895 10.5858 8.42435C10.6481 8.34951 10.6605 8.26219 10.6231 8.18738Z" fill="white"/>
</g>
</g>
<defs>
<clipPath id="clip0_505_6893">
<rect width="11" height="11" fill="white" transform="translate(0.219727 0.195312)"/>
</clipPath>
</defs>
</svg>
