<svg width="14" height="15" viewBox="0 0 14 15" fill="none" xmlns="http://www.w3.org/2000/svg">
<path d="M8.75797 14.4891H5.26468C4.62308 14.4891 4.10025 13.9662 4.10025 13.3246V7.50249H1.18918C0.953964 7.50249 0.740873 7.36043 0.651212 7.14268C0.560387 6.92493 0.610457 6.67458 0.77697 6.50807L6.59912 0.685923C6.82618 0.458859 7.1953 0.458859 7.42237 0.685923L13.2445 6.50807C13.411 6.67458 13.4611 6.92493 13.3703 7.14268C13.2818 7.36043 13.0687 7.50249 12.8335 7.50249H9.9224V13.3246C9.9224 13.9662 9.39957 14.4891 8.75797 14.4891ZM2.59464 6.33806H4.68247C5.00385 6.33806 5.26468 6.59889 5.26468 6.92028V13.3246H8.75797V6.92028C8.75797 6.59889 9.0188 6.33806 9.34018 6.33806H11.428L7.01132 1.92138L2.59464 6.33806Z" fill="#45E658"/>
</svg>
