<svg width="14" height="15" viewBox="0 0 14 15" fill="none" xmlns="http://www.w3.org/2000/svg">
<path d="M8.58219 0.514838H5.0889C4.4473 0.514838 3.92447 1.03767 3.92447 1.67927V7.50141H1.0134C0.778182 7.50141 0.565092 7.64348 0.475431 7.86122C0.384605 8.07897 0.434676 8.32932 0.601189 8.49584L6.42333 14.318C6.6504 14.545 7.01952 14.545 7.24659 14.318L13.0687 8.49584C13.2352 8.32932 13.2853 8.07897 13.1945 7.86122C13.106 7.64348 12.8929 7.50141 12.6577 7.50141H9.74662V1.67927C9.74662 1.03767 9.22379 0.514838 8.58219 0.514838ZM2.41886 8.66584H4.50668C4.82807 8.66584 5.0889 8.40501 5.0889 8.08363V1.67927H8.58219V8.08363C8.58219 8.40501 8.84302 8.66584 9.1644 8.66584H11.2522L6.83554 13.0825L2.41886 8.66584Z" fill="#F15F42"/>
</svg>
