<svg width="77" height="76" viewBox="0 0 77 76" fill="none" xmlns="http://www.w3.org/2000/svg">
<circle cx="38.6427" cy="37.8839" r="37.09" stroke="white" stroke-width="1.4237"/>
<g clip-path="url(#clip0_349_17968)">
<path fill-rule="evenodd" clip-rule="evenodd" d="M45.5013 26.1471C47.5862 27.3529 49.3151 29.0846 50.519 31.1699C51.7225 33.2544 52.3605 35.6164 52.3605 38.0244C52.3605 41.675 50.9232 45.144 48.3422 47.7249C45.7613 50.3059 42.2923 51.7432 38.6417 51.7432C34.9911 51.7432 31.5221 50.3059 28.9411 47.7249C26.3602 45.144 24.9229 41.675 24.9229 38.0244C24.9229 35.6164 25.5609 33.2544 26.7643 31.1699C27.9691 29.0831 29.6991 27.3498 31.7875 26.1468C32.5465 25.7097 33.5197 25.9732 33.956 26.7323C34.3922 27.4916 34.129 28.4634 33.3705 28.9003C31.7685 29.8231 30.4416 31.1528 29.5174 32.7535C28.592 34.3565 28.1099 36.174 28.1099 38.0244C28.1099 40.8275 29.2127 43.4899 31.1945 45.4716C33.1762 47.4534 35.8386 48.5562 38.6417 48.5562C41.4448 48.5562 44.1071 47.4534 46.0889 45.4716C48.0707 43.4899 49.1735 40.8275 49.1735 38.0244C49.1735 36.174 48.6914 34.3565 47.766 32.7535C46.8409 31.1513 45.5085 29.8258 43.9074 28.9C43.1481 28.4609 42.8885 27.4853 43.3281 26.7264C43.7676 25.9676 44.7423 25.7082 45.5013 26.1471Z" fill="white"/>
<path d="M40.2345 26.5736C40.2345 23.4285 39.522 20.8789 38.6431 20.8789C37.7642 20.8789 37.0518 23.4285 37.0518 26.5736V26.7609C37.0518 29.906 37.7642 32.4556 38.6431 32.4556C39.522 32.4556 40.2345 29.906 40.2345 26.7609V26.5736Z" fill="white"/>
</g>
<defs>
<clipPath id="clip0_349_17968">
<rect width="30.8655" height="30.8655" fill="white" transform="translate(23.2041 20.8789)"/>
</clipPath>
</defs>
</svg>
