<svg width="17" height="18" viewBox="0 0 17 18" fill="none" xmlns="http://www.w3.org/2000/svg">
<path d="M15.1843 2.78275C15.1843 2.78275 16.6643 2.22003 16.5405 3.58651C16.4998 4.14922 16.1299 6.1189 15.8419 8.24904L14.8552 14.5596C14.8552 14.5596 14.7729 15.484 14.0327 15.6449C13.2929 15.8053 12.1828 15.0822 11.9771 14.9213C11.8126 14.8006 8.89377 12.9918 7.86596 12.1078C7.57796 11.8664 7.24882 11.3843 7.9071 10.8216L12.2236 6.80196C12.717 6.31985 13.2103 5.19442 11.1547 6.5609L5.39856 10.3792C5.39856 10.3792 4.74067 10.7814 3.50754 10.4197L0.834817 9.61551C0.834817 9.61551 -0.151835 9.01269 1.53385 8.40986C5.64541 6.52078 10.7025 4.59159 15.1835 2.78275H15.1843Z" fill="white"/>
</svg>
