<svg width="17" height="17" viewBox="0 0 17 17" fill="none" xmlns="http://www.w3.org/2000/svg">
<path fill-rule="evenodd" clip-rule="evenodd" d="M8.73145 16.8125C4.31317 16.8125 0.731445 13.2308 0.731445 8.8125C0.731445 4.39422 4.31317 0.8125 8.73145 0.8125C13.1497 0.8125 16.7314 4.39422 16.7314 8.8125C16.7314 13.2308 13.1497 16.8125 8.73145 16.8125ZM8.73145 15.3125C12.3213 15.3125 15.2314 12.4024 15.2314 8.8125C15.2314 5.22265 12.3213 2.3125 8.73145 2.3125C5.14159 2.3125 2.23145 5.22265 2.23145 8.8125C2.23145 12.4024 5.14159 15.3125 8.73145 15.3125ZM9.48145 8.3125H12.7314V9.8125H7.98145V3.8125H9.48145V8.3125Z" fill="#9F49DE"/>
</svg>
