<svg width="21" height="21" viewBox="0 0 21 21" fill="none" xmlns="http://www.w3.org/2000/svg">
<path fill-rule="evenodd" clip-rule="evenodd" d="M3.64852 12.1021H7.46563C7.40887 11.4588 7.37891 10.7894 7.37891 10.1021C7.37891 9.41466 7.40887 8.74527 7.46563 8.10205H3.64852C3.47279 8.73877 3.37891 9.40945 3.37891 10.1021C3.37891 10.7947 3.47279 11.4653 3.64852 12.1021ZM4.24395 13.6021C5.18307 15.3787 6.81487 16.7326 8.77974 17.3043C8.28765 16.3544 7.89608 15.0789 7.65343 13.6021H4.24395ZM18.1093 12.1021C18.285 11.4653 18.3789 10.7947 18.3789 10.1021C18.3789 9.40945 18.285 8.73877 18.1093 8.10205H14.2922C14.3489 8.74527 14.3789 9.41466 14.3789 10.1021C14.3789 10.7894 14.3489 11.4588 14.2922 12.1021H18.1093ZM17.5139 13.6021H14.1044C13.8617 15.0789 13.4702 16.3544 12.9781 17.3043C14.9429 16.7326 16.5747 15.3787 17.5139 13.6021ZM8.94932 12.1021H12.8085C12.8554 11.481 12.8789 10.8144 12.8789 10.1021C12.8789 9.38975 12.8554 8.72308 12.8085 8.10205H8.94932C8.90238 8.72308 8.87891 9.38975 8.87891 10.1021C8.87891 10.8144 8.90238 11.481 8.94932 12.1021ZM9.12234 13.6021C9.42522 15.485 10.0107 16.8183 10.8789 17.6021C11.7471 16.8183 12.3326 15.485 12.6355 13.6021H9.12234ZM4.24395 6.60205H7.65343C7.89608 5.12522 8.28765 3.84965 8.77974 2.89978C6.81487 3.47148 5.18307 4.82544 4.24395 6.60205ZM17.5139 6.60205C16.5747 4.82544 14.9429 3.47148 12.9781 2.89978C13.4702 3.84965 13.8617 5.12522 14.1044 6.60205H17.5139ZM9.12234 6.60205H12.6355C12.3326 4.71915 11.7471 3.38582 10.8789 2.60205C10.0107 3.38582 9.42522 4.71915 9.12234 6.60205ZM10.8789 19.1021C5.90834 19.1021 1.87891 15.0726 1.87891 10.1021C1.87891 5.13149 5.90834 1.10205 10.8789 1.10205C15.8495 1.10205 19.8789 5.13149 19.8789 10.1021C19.8789 15.0726 15.8495 19.1021 10.8789 19.1021Z" fill="white"/>
</svg>
