<svg width="19" height="21" viewBox="0 0 19 21" fill="none" xmlns="http://www.w3.org/2000/svg">
<path d="M12.958 9.87891H12.5223C12.3552 8.72259 11.3161 8.40234 10.7432 8.40234C9.8628 8.40234 9.52155 9.17147 9.27742 9.87891H7.17808C7.2647 9.53667 7.52195 9.05859 8.28222 9.05859C8.46334 9.05859 8.61034 8.91159 8.61034 8.73047C8.61034 8.54934 8.46334 8.40234 8.28222 8.40234C7.078 8.40234 6.62289 9.24136 6.50936 9.87891H6.06737C5.88625 9.87891 5.73925 10.0259 5.73925 10.207C5.73925 10.3882 5.88625 10.5352 6.06737 10.5352H6.50936C6.62289 11.1727 7.07833 12.0117 8.28222 12.0117C9.16258 12.0117 9.50383 11.2426 9.74795 10.5352H11.8542C11.6721 11.3177 10.8482 11.3545 10.7415 11.3555C10.5607 11.3561 10.4147 11.5028 10.4147 11.6836C10.4147 11.865 10.5614 12.0117 10.7428 12.0117C11.3157 12.0117 12.3549 11.6915 12.5219 10.5352H12.958C13.1395 10.5352 13.2861 10.3882 13.2861 10.207C13.2861 10.0259 13.1395 9.87891 12.958 9.87891ZM10.7432 9.05859C10.8478 9.05859 11.674 9.08616 11.8548 9.87891H9.97666C10.1729 9.36277 10.3701 9.05859 10.7432 9.05859ZM8.28222 11.3555C7.52983 11.3555 7.27061 10.8774 7.18103 10.5352H9.04872C8.8525 11.0513 8.65497 11.3555 8.28222 11.3555ZM16.7311 10.206V2.00391C16.7311 0.706172 15.6578 0.363281 15.0905 0.363281H3.93456C2.63683 0.363281 2.29394 1.22166 2.29394 1.67578V10.206H0.326172V14.1435H18.6992V10.206H16.7311ZM5.55452 1.01953H13.4692C13.6211 2.38584 14.7082 3.47325 16.0749 3.62517V13.4843H13.6015C14.343 12.561 14.7627 11.405 14.7627 10.207C14.7627 7.31231 12.4074 4.95703 9.51269 4.95703C6.61797 4.95703 4.26269 7.31231 4.26269 10.207C4.26269 11.405 4.68269 12.561 5.42392 13.4843H2.95019V3.30295C4.39066 3.18548 5.40555 2.29266 5.55452 1.01953ZM6.30625 13.4843C5.42523 12.6266 4.91894 11.4411 4.91894 10.207C4.91894 7.67391 6.97956 5.61328 9.51269 5.61328C12.0458 5.61328 14.1064 7.67391 14.1064 10.207C14.1064 11.4414 13.6001 12.6266 12.7195 13.4843H6.30625ZM16.0749 2.00391V2.96203C15.0711 2.81766 14.2771 2.02359 14.1324 1.01953H15.0885C15.2532 1.0215 16.0749 1.07794 16.0749 2.00391ZM3.93456 1.01953H4.89203C4.73847 2.03016 3.87977 2.54466 2.95019 2.64145V1.68037C2.95347 1.57012 3.01614 1.01953 3.93456 1.01953ZM0.982422 10.8623H2.29394V13.487H0.982422V10.8623ZM18.043 13.487H16.7311V10.8623H18.043V13.487ZM11.8371 16.7695H10.8534V15.1289C10.8534 14.9475 10.7067 14.8008 10.5253 14.8008H7.89897C7.71784 14.8008 7.57084 14.9475 7.57084 15.1289V16.7695H6.58712C6.45456 16.7695 6.3348 16.8493 6.28394 16.972C6.23308 17.0947 6.2613 17.2358 6.35514 17.3296L8.98014 19.9546C9.04413 20.0186 9.12813 20.0508 9.21212 20.0508C9.29612 20.0508 9.38013 20.0186 9.44411 19.9546L12.0691 17.3296C12.163 17.2358 12.1912 17.0947 12.1403 16.972C12.0898 16.8493 11.9697 16.7695 11.8371 16.7695ZM9.21212 19.2587L7.37922 17.4258H7.89864C8.07977 17.4258 8.22677 17.2791 8.22677 17.0977V15.457H10.1968V17.0977C10.1968 17.2791 10.3435 17.4258 10.525 17.4258H11.0447L9.21212 19.2587Z" fill="white"/>
</svg>
