<svg width="38" height="38" viewBox="0 0 38 38" fill="none" xmlns="http://www.w3.org/2000/svg">
<g clip-path="url(#clip0_349_17470)">
<path d="M11.4552 21.7852H6.22643C5.07687 21.7852 4.1416 22.7203 4.1416 23.87V30.8629C4.1416 31.165 4.38645 31.4098 4.68846 31.4098C4.99047 31.4098 5.23531 31.165 5.23531 30.8629V23.87C5.23531 23.3235 5.67987 22.8789 6.22636 22.8789H11.4552C12.0017 22.8789 12.4462 23.3235 12.4462 23.87V35.4987C12.4462 36.0452 12.0017 36.4897 11.4552 36.4897H6.22643C5.67994 36.4897 5.23538 36.0452 5.23538 35.4987V33.0504C5.23538 32.7484 4.99061 32.5036 4.68853 32.5036C4.38652 32.5036 4.14167 32.7484 4.14167 33.0504V35.4987C4.14167 36.6482 5.07687 37.5835 6.2265 37.5835H11.4553C12.6049 37.5835 13.5401 36.6483 13.5401 35.4987V23.87C13.54 22.7204 12.6048 21.7852 11.4552 21.7852Z" fill="white"/>
<path d="M22.7326 16.4492H17.5038V16.4493C16.3542 16.4493 15.4189 17.3845 15.4189 18.5341V35.4961C15.4189 36.6457 16.3541 37.5809 17.5038 37.5809H22.7326C23.8821 37.5809 24.8174 36.6457 24.8174 35.4961V18.534C24.8174 17.3844 23.8821 16.4492 22.7326 16.4492ZM23.7236 35.496C23.7236 36.0425 23.2791 36.4871 22.7326 36.4871H17.5038C16.9573 36.4871 16.5127 36.0425 16.5127 35.496V18.534C16.5127 17.9876 16.9573 17.543 17.5038 17.543H22.7326C23.279 17.5431 23.7236 17.9876 23.7236 18.534V35.496Z" fill="white"/>
<path d="M35.5479 18.3564C35.8499 18.3564 36.0948 18.1115 36.0948 17.8095V13.202C36.0948 12.0525 35.1596 11.1172 34.0099 11.1172H28.7811C27.6316 11.1172 26.6963 12.0524 26.6963 13.202V35.4972C26.6963 36.6468 27.6315 37.582 28.7811 37.582H34.0099C35.1595 37.582 36.0948 36.6468 36.0948 35.4972V19.997C36.0948 19.695 35.8499 19.4502 35.5479 19.4502C35.2459 19.4502 35.001 19.695 35.001 19.997V35.4971C35.001 36.0436 34.5565 36.4882 34.01 36.4882H28.7812C28.2347 36.4882 27.7901 36.0436 27.7901 35.4971V13.202C27.7901 12.6555 28.2347 12.211 28.7812 12.211H34.01C34.5565 12.211 35.001 12.6555 35.001 13.202V17.8095C35.001 18.1115 35.2458 18.3564 35.5479 18.3564Z" fill="white"/>
<path d="M35.3932 0.260388C35.3932 0.260388 30.1246 0.947019 30.1111 0.948769C29.7031 1.00192 29.4972 1.4887 29.7437 1.81849L30.6931 3.08821L26.9633 5.87681C26.9633 5.87681 24.9184 4.07386 24.9172 4.07277C24.3239 3.54968 23.4208 3.51403 22.7879 3.98688L12.999 11.3059C12.999 11.3059 10.9615 9.77953 10.96 9.77843C10.3666 9.33388 9.52849 9.33388 8.93512 9.77741L0.782901 15.8725C0.541045 16.0533 0.491537 16.396 0.672363 16.638C0.672363 16.638 2.03855 18.4654 2.04096 18.4686C2.21923 18.707 2.56834 18.7571 2.80641 18.5792L9.94585 13.2411C9.94585 13.2411 11.9828 14.767 11.9849 14.7685C12.5788 15.2134 13.4158 15.2135 14.0099 14.7695L23.7121 7.51555C23.7121 7.51555 25.7568 9.31835 25.7582 9.31959C26.3516 9.84274 27.2546 9.87862 27.8875 9.40548L32.7167 5.79485C32.7167 5.79485 33.665 7.06326 33.6672 7.06618C33.9138 7.39604 34.4396 7.33487 34.6054 6.9598C34.6054 6.9598 36.7527 2.10103 36.759 2.08659C37.1565 1.18727 36.3657 0.133882 35.3932 0.260388ZM35.7585 1.64451L33.983 5.66215C33.983 5.66215 33.266 4.70318 33.2651 4.70202C33.0866 4.4633 32.7383 4.41306 32.4997 4.59148C32.4997 4.59148 27.2436 8.52118 27.2324 8.52956C27.0093 8.69639 26.6899 8.68312 26.4813 8.4993L24.102 6.40142C23.9079 6.23022 23.6203 6.2187 23.4129 6.37364C23.4129 6.37364 13.3666 13.8849 13.3549 13.8937C13.145 14.0506 12.85 14.0502 12.6407 13.8933L10.274 12.1204C10.0799 11.9749 9.813 11.9748 9.61868 12.1201L2.58956 17.3757L1.87581 16.421C1.87581 16.421 9.57989 10.661 9.59003 10.6534C9.79995 10.4964 10.0944 10.4966 10.3042 10.6538L12.6709 12.4267C12.865 12.5721 13.1318 12.5723 13.3262 12.427C13.3262 12.427 23.4295 4.87307 23.4427 4.86308C23.6663 4.69589 23.9843 4.70843 24.1939 4.89327L26.5733 6.99115C26.7675 7.16243 27.0551 7.17395 27.2624 7.01893C27.2623 7.019 31.7833 3.63886 31.7859 3.63689C32.0246 3.45847 32.0749 3.11016 31.8964 2.87144L31.1796 1.91262C31.1796 1.91262 35.5281 1.34593 35.5345 1.34506C35.6984 1.32362 35.8248 1.49468 35.7585 1.64451Z" fill="white"/>
</g>
<defs>
<clipPath id="clip0_349_17470">
<rect width="37.332" height="37.332" fill="white" transform="translate(0.0478516 0.25)"/>
</clipPath>
</defs>
</svg>
