<svg width="21" height="21" viewBox="0 0 21 21" fill="none" xmlns="http://www.w3.org/2000/svg">
<path fill-rule="evenodd" clip-rule="evenodd" d="M20.4225 10.4284L20.625 10.6841L20.4225 10.9398C20.2438 11.1622 16.0087 16.9771 10.625 16.9771C5.2425 16.9771 1.00625 11.1622 0.8275 10.9398L0.625 10.6841L0.8275 10.4284C1.00625 10.206 5.2425 4.97705 10.625 4.97705C16.01 4.97705 20.2438 10.206 20.4225 10.4284ZM2.57797 10.7162C5.33871 13.8968 8.02105 15.4871 10.625 15.4871C13.229 15.4871 15.9128 13.8968 18.6766 10.7162C15.9416 7.8938 13.2578 6.48258 10.625 6.48258C7.99223 6.48258 5.30989 7.8938 2.57797 10.7162ZM10.625 13.9771C8.96815 13.9771 7.625 12.6339 7.625 10.9771C7.625 9.3202 8.96815 7.97705 10.625 7.97705C12.2819 7.97705 13.625 9.3202 13.625 10.9771C13.625 12.6339 12.2819 13.9771 10.625 13.9771ZM10.625 12.4771C11.4534 12.4771 12.125 11.8055 12.125 10.9771C12.125 10.1486 11.4534 9.47705 10.625 9.47705C9.79657 9.47705 9.125 10.1486 9.125 10.9771C9.125 11.8055 9.79657 12.4771 10.625 12.4771Z" fill="white"/>
</svg>
