<svg width="19" height="19" viewBox="0 0 19 19" fill="none" xmlns="http://www.w3.org/2000/svg">
<path fill-rule="evenodd" clip-rule="evenodd" d="M8.0495 6.48017L7.10905 6.77323C7.07924 6.7826 7.04803 6.78677 7.0168 6.78553C6.5386 6.7969 6.09592 6.79644 5.72846 6.79608C5.47064 6.79608 5.25051 6.79562 5.07931 6.79981C4.59299 6.81158 4.59295 6.81158 4.20568 6.60076C4.08648 6.53591 3.80196 6.38748 3.51752 6.23937C3.41883 6.18794 3.32015 6.1365 3.22413 6.08618V6.38309C3.22412 6.45548 3.19536 6.52489 3.14417 6.57607C3.09298 6.62725 3.02356 6.65601 2.95117 6.65601H0.937469C0.865087 6.65601 0.795669 6.62725 0.744487 6.57607C0.693305 6.52489 0.664551 6.45547 0.664551 6.38309V0.540537C0.664545 0.504693 0.671601 0.4692 0.685314 0.436083C0.699027 0.402967 0.719129 0.372876 0.744472 0.347528C0.769815 0.322181 0.799904 0.302075 0.833018 0.288357C0.866133 0.274639 0.901625 0.267578 0.937469 0.267578H2.95101C3.0234 0.267578 3.09283 0.296336 3.14402 0.347526C3.19521 0.398716 3.22397 0.468144 3.22397 0.540537V1.14014C4.10133 0.963777 3.61173 1.06082 4.46916 0.889088C4.89408 0.80398 5.27495 0.728102 5.56838 0.670639C6.11856 0.562932 6.13386 0.565516 6.80467 0.679293L6.86045 0.688726C7.37561 0.775967 8.18796 0.909965 9.08871 1.05848C9.4818 1.12333 9.89139 1.19088 10.2968 1.2579V1.25827C10.3345 1.26436 10.3705 1.27833 10.4024 1.29929L13.6074 3.40384C13.823 3.53911 13.9932 3.73575 14.0961 3.9685C14.1775 4.16088 14.2056 4.37164 14.1773 4.57861C14.1504 4.7765 14.0792 4.96577 13.969 5.13232C13.8887 5.25476 13.7893 5.36348 13.6745 5.45433C13.9969 5.95354 14.168 6.53542 14.1671 7.12974C14.1671 7.18631 14.1656 7.24252 14.1625 7.29835H16.0671C16.2181 7.2986 16.3629 7.3587 16.4697 7.46547C16.5764 7.57224 16.6365 7.71698 16.6368 7.86798V9.12888C16.6368 9.14004 16.6364 9.15111 16.6358 9.1621C17.0391 9.20676 17.4118 9.39832 17.6828 9.70023C17.9539 10.0021 18.1043 10.3933 18.1054 10.799V12.3114C18.2753 12.3872 18.4197 12.5105 18.5212 12.6664C18.6227 12.8223 18.677 13.0042 18.6775 13.1903V14.245C18.677 14.4311 18.6227 14.613 18.5212 14.7689C18.4197 14.9249 18.2753 15.0481 18.1054 15.1239V16.6363C18.1043 17.0726 17.9305 17.4908 17.6221 17.7993C17.3136 18.1078 16.8955 18.2817 16.4592 18.2828H6.2955C5.85917 18.2817 5.44101 18.1079 5.13248 17.7994C4.82394 17.4909 4.65013 17.0727 4.64905 16.6364V8.49847C4.64975 8.18043 4.77637 7.87561 5.00122 7.65068C5.22607 7.42576 5.53085 7.29903 5.84889 7.29823H7.98535C7.98237 7.24242 7.98085 7.18622 7.98079 7.12961C7.98075 6.92986 7.99998 6.73058 8.03822 6.53452C8.04174 6.51628 8.04546 6.4981 8.04937 6.47997L8.0495 6.48017ZM13.4132 9.15263H16.0672C16.0734 9.1524 16.0793 9.14983 16.0837 9.14544C16.0881 9.14104 16.0907 9.13514 16.0909 9.12892V7.86802C16.0907 7.8618 16.0881 7.8559 16.0837 7.8515C16.0793 7.84711 16.0734 7.84454 16.0672 7.84431H14.0838C13.9688 8.32807 13.7388 8.77692 13.4132 9.15271V9.15263ZM8.06393 7.84423H5.84909C5.67559 7.84423 5.50919 7.91315 5.3865 8.03584C5.26381 8.15853 5.19489 8.32492 5.19489 8.49843C5.19489 8.67193 5.26381 8.83833 5.3865 8.96102C5.50919 9.0837 5.67559 9.15263 5.84909 9.15263H8.73483C8.40921 8.77684 8.17913 8.32799 8.06414 7.84423H8.06393ZM14.9161 12.2288H17.5595V10.799C17.5585 10.5075 17.4422 10.2282 17.2361 10.0221C17.03 9.81592 16.7507 9.69961 16.4592 9.69851H5.84889C5.61648 9.69869 5.3891 9.63091 5.19473 9.50352V16.6364C5.19582 16.9279 5.31212 17.2072 5.51828 17.4133C5.72444 17.6194 6.00373 17.7357 6.29526 17.7367H16.4592C16.7507 17.7357 17.03 17.6194 17.2362 17.4132C17.4424 17.2071 17.5587 16.9278 17.5597 16.6362V15.2066H14.9161C14.6613 15.206 14.4171 15.1045 14.2369 14.9243C14.0567 14.7441 13.9552 14.4999 13.9546 14.2451V13.1903C13.9552 12.9355 14.0567 12.6913 14.2369 12.5111C14.4171 12.3309 14.6613 12.2294 14.9161 12.2288ZM17.7161 12.7747H14.9161C14.806 12.7752 14.7006 12.8192 14.6228 12.897C14.545 12.9749 14.501 13.0803 14.5005 13.1904V14.2451C14.501 14.3552 14.545 14.4605 14.6229 14.5383C14.7007 14.6161 14.8061 14.66 14.9161 14.6605H17.7161C17.8262 14.66 17.9316 14.6161 18.0094 14.5382C18.0873 14.4604 18.1312 14.355 18.1318 14.2449V13.1903C18.1312 13.0802 18.0873 12.9748 18.0094 12.897C17.9316 12.8192 17.8262 12.7752 17.7161 12.7747ZM15.4853 12.9496C15.3076 12.9496 15.1354 13.0112 14.998 13.1239C14.8606 13.2367 14.7665 13.3936 14.7319 13.5679C14.6972 13.7422 14.724 13.9232 14.8078 14.0799C14.8916 14.2367 15.0272 14.3595 15.1914 14.4275C15.3556 14.4956 15.5383 14.5045 15.7084 14.4529C15.8784 14.4013 16.0254 14.2923 16.1241 14.1446C16.2228 13.9968 16.2673 13.8193 16.2499 13.6424C16.2324 13.4656 16.1542 13.3002 16.0285 13.1745C15.9573 13.1031 15.8726 13.0464 15.7794 13.0078C15.6862 12.9692 15.5862 12.9494 15.4853 12.9496ZM15.6425 13.5607C15.6061 13.5243 15.5583 13.5017 15.5071 13.4966C15.4559 13.4915 15.4045 13.5044 15.3617 13.533C15.3189 13.5615 15.2874 13.6041 15.2724 13.6533C15.2575 13.7025 15.2601 13.7554 15.2797 13.803C15.2994 13.8505 15.335 13.8898 15.3804 13.914C15.4257 13.9383 15.4781 13.9461 15.5286 13.936C15.5791 13.926 15.6245 13.8988 15.6571 13.859C15.6898 13.8192 15.7076 13.7694 15.7076 13.7179C15.7077 13.6887 15.7019 13.6598 15.6908 13.6328C15.6796 13.6058 15.6632 13.5813 15.6425 13.5607ZM2.67793 0.81366H1.21043V6.11013H2.67793V0.81366ZM10.7607 4.60108C10.7801 4.87872 10.7028 5.15452 10.5418 5.38157C10.3432 5.65657 10.0592 5.8582 9.73409 5.95505L8.66863 6.28728C8.57294 6.55785 8.52481 6.84295 8.52638 7.12994C8.52573 7.52116 8.61541 7.90724 8.78844 8.25811C8.96148 8.60898 9.21319 8.91516 9.52397 9.15279H12.6236C13.0463 8.82889 13.3569 8.3807 13.5117 7.87118C13.6665 7.36167 13.6578 6.81645 13.4868 6.31213C13.3158 5.80782 12.9911 5.36976 12.5583 5.05951C12.1255 4.74926 11.6063 4.58241 11.0738 4.58242C10.9692 4.58226 10.8646 4.58844 10.7607 4.60092L10.7607 4.60108ZM10.8008 5.40753V5.68209C10.6239 5.73986 10.4697 5.85208 10.3604 6.00272C10.251 6.15335 10.1921 6.33468 10.192 6.52082C10.192 7.1331 10.5987 7.27231 10.9996 7.40955C11.2062 7.48026 11.4097 7.55002 11.4097 7.73878C11.4088 7.82725 11.3729 7.91177 11.31 7.97399C11.2471 8.03621 11.1622 8.07111 11.0737 8.07111C10.9852 8.07111 10.9003 8.03621 10.8374 7.97399C10.7745 7.91177 10.7387 7.82725 10.7377 7.73878C10.7381 7.70265 10.7314 7.6668 10.7179 7.6333C10.7044 7.5998 10.6843 7.56931 10.659 7.54361C10.6336 7.51791 10.6033 7.4975 10.57 7.48357C10.5367 7.46965 10.5009 7.46247 10.4648 7.46247C10.4286 7.46247 10.3929 7.46965 10.3595 7.48357C10.3262 7.4975 10.296 7.51791 10.2706 7.54361C10.2452 7.56931 10.2251 7.5998 10.2116 7.6333C10.1981 7.6668 10.1914 7.70265 10.1918 7.73878C10.1919 7.92495 10.2509 8.10633 10.3602 8.25698C10.4696 8.40764 10.6238 8.51987 10.8008 8.57763V8.85219C10.8008 8.92458 10.8295 8.99401 10.8807 9.0452C10.9319 9.09639 11.0013 9.12515 11.0737 9.12515C11.1461 9.12515 11.2156 9.09639 11.2668 9.0452C11.3179 8.99401 11.3467 8.92458 11.3467 8.85219V8.57763C11.5237 8.51987 11.6779 8.40764 11.7873 8.25698C11.8966 8.10633 11.9556 7.92495 11.9557 7.73878C11.9557 7.16091 11.5677 7.02814 11.1743 6.89349C10.9576 6.81929 10.7377 6.74407 10.7377 6.52082C10.7372 6.47638 10.7455 6.43229 10.7622 6.39109C10.7789 6.34989 10.8035 6.3124 10.8348 6.28081C10.866 6.24921 10.9033 6.22412 10.9443 6.207C10.9853 6.18988 11.0293 6.18107 11.0737 6.18107C11.1182 6.18107 11.1622 6.18988 11.2032 6.207C11.2442 6.22412 11.2814 6.24921 11.3126 6.28081C11.3439 6.3124 11.3686 6.34989 11.3852 6.39109C11.4019 6.43229 11.4102 6.47638 11.4097 6.52082C11.4097 6.59321 11.4385 6.66264 11.4897 6.71383C11.5409 6.76502 11.6103 6.79378 11.6827 6.79378C11.7551 6.79378 11.8245 6.76502 11.8757 6.71383C11.9269 6.66264 11.9557 6.59321 11.9557 6.52082C11.9556 6.33464 11.8966 6.15326 11.7873 6.00259C11.6779 5.85192 11.5237 5.73969 11.3467 5.68193V5.40741C11.3467 5.33502 11.3179 5.26559 11.2668 5.2144C11.2156 5.16321 11.1461 5.13445 11.0737 5.13445C11.0013 5.13445 10.9319 5.16321 10.8807 5.2144C10.8295 5.26559 10.8008 5.33502 10.8008 5.40741L10.8008 5.40753ZM7.69844 4.25163C7.62755 4.26415 7.55458 4.24804 7.49555 4.20684C7.43652 4.16564 7.39623 4.10271 7.38353 4.03185C7.37083 3.96099 7.38675 3.88798 7.4278 3.82884C7.46885 3.7697 7.53168 3.72926 7.60251 3.71638L9.24572 3.42172C9.41246 3.39174 9.58349 3.39497 9.74898 3.43124C9.91448 3.4675 10.0712 3.53607 10.2101 3.63303C10.2647 3.67101 10.3162 3.7131 10.3644 3.75895L10.8443 4.0454C10.9212 4.03963 10.9977 4.03672 11.0737 4.03667C11.4993 4.03617 11.9204 4.12373 12.3104 4.29384C12.7005 4.46395 13.0512 4.71294 13.3404 5.02514C13.4083 4.97115 13.4671 4.90664 13.5146 4.83405C13.7443 4.48411 13.6652 4.09249 13.3088 3.85845L10.1531 1.78594L9.00143 1.59587C8.05807 1.4403 7.20691 1.29994 6.77108 1.22611C6.27758 1.14248 6.1652 1.10955 5.67301 1.20589C5.44976 1.24962 5.05531 1.32828 4.57576 1.42434C3.69134 1.60149 3.35493 1.66875 3.22397 1.69504V5.47041C3.36662 5.54571 3.5678 5.65055 3.76898 5.75543C4.01508 5.88372 4.26117 6.01202 4.46567 6.12321C4.72514 6.26439 4.72518 6.26439 5.06651 6.25615C5.2382 6.25204 5.46399 6.25204 5.72846 6.25241C6.08472 6.25278 6.51276 6.25319 6.98157 6.24241L9.57216 5.43469C9.7815 5.37392 9.96496 5.2458 10.0941 5.07018C10.3216 4.7432 10.2212 4.30511 9.89893 4.08084C9.69385 3.93802 9.55095 3.94057 9.3179 3.9612L7.69844 4.25163Z" fill="white"/>
</svg>
