<svg width="21" height="21" viewBox="0 0 21 21" fill="none" xmlns="http://www.w3.org/2000/svg">
<g clip-path="url(#clip0_349_19036)">
<path d="M18.4287 2.64502L16.762 4.31169M16.762 4.31169L19.262 6.81169L16.3454 9.72835L13.8454 7.22835M16.762 4.31169L13.8454 7.22835M10.4204 10.6534C10.8506 11.0779 11.1927 11.5834 11.4268 12.1407C11.661 12.698 11.7825 13.2961 11.7846 13.9005C11.7866 14.505 11.669 15.1039 11.4386 15.6628C11.2082 16.2216 10.8696 16.7294 10.4422 17.1568C10.0147 17.5842 9.50696 17.9229 8.94811 18.1533C8.38926 18.3837 7.79036 18.5012 7.18589 18.4992C6.58142 18.4972 5.98331 18.3756 5.42602 18.1415C4.86873 17.9074 4.36325 17.5653 3.9387 17.135C3.1038 16.2706 2.64183 15.1128 2.65227 13.9111C2.66272 12.7094 3.14474 11.5598 3.99453 10.71C4.84431 9.86023 5.99387 9.37821 7.19561 9.36776C8.39734 9.35732 9.5551 9.81929 10.4195 10.6542L10.4204 10.6534ZM10.4204 10.6534L13.8454 7.22835" stroke="white" stroke-width="1.6" stroke-linecap="round" stroke-linejoin="round"/>
</g>
<defs>
<clipPath id="clip0_349_19036">
<rect width="20" height="20" fill="white" transform="translate(0.929443 0.977051)"/>
</clipPath>
</defs>
</svg>
