<svg width="18" height="18" viewBox="0 0 18 18" fill="none" xmlns="http://www.w3.org/2000/svg">
<path d="M16.3789 8.84947C16.3818 9.94936 16.1248 11.0344 15.6289 12.0161C15.0409 13.1926 14.137 14.1821 13.0184 14.8739C11.8999 15.5656 10.6108 15.9323 9.29557 15.9328C8.19568 15.9357 7.11067 15.6787 6.12891 15.1828L1.37891 16.7661L2.96224 12.0161C2.46635 11.0344 2.20937 9.94936 2.21224 8.84947C2.21275 7.53427 2.57942 6.24518 3.27117 5.1266C3.96293 4.00801 4.95245 3.10411 6.12891 2.51614C7.11067 2.02025 8.19568 1.76327 9.29557 1.76614H9.71224C11.4492 1.86196 13.0898 2.5951 14.3199 3.82519C15.5499 5.05527 16.2831 6.69585 16.3789 8.4328V8.84947Z" stroke="white" stroke-width="1.6" stroke-linecap="round" stroke-linejoin="round"/>
</svg>
