<svg width="44" height="44" viewBox="0 0 44 44" fill="none" xmlns="http://www.w3.org/2000/svg">
<g clip-path="url(#clip0_349_17713)">
<path d="M8.16113 8.60156C8.87443 7.78521 9.6525 7.02755 10.4872 6.33659" stroke="#5967F6" stroke-width="1.26502" stroke-miterlimit="10" stroke-linecap="round" stroke-linejoin="round"/>
<path d="M3.71191 17.3086C4.21547 15.119 5.07518 13.0664 6.22626 11.2157" stroke="#5967F6" stroke-width="1.26502" stroke-miterlimit="10" stroke-linecap="round" stroke-linejoin="round"/>
<path d="M10.362 37.2656C5.98185 33.5797 3.19629 28.0433 3.19629 21.8531C3.19629 21.618 3.20034 21.3838 3.20827 21.1507" stroke="#5967F6" stroke-width="1.26502" stroke-miterlimit="10" stroke-linecap="round" stroke-linejoin="round"/>
<path d="M32.8817 39.4328C30.0113 41.0337 26.7077 41.9453 23.1922 41.9453C19.6887 41.9453 16.3957 41.0399 13.5322 39.4491" stroke="#5967F6" stroke-width="1.26502" stroke-miterlimit="10" stroke-linecap="round" stroke-linejoin="round"/>
<path d="M40.1461 11.1972C42.0727 14.2861 43.1866 17.9391 43.1866 21.8536C43.1866 28.0348 40.4092 33.5641 36.04 37.25" stroke="#5967F6" stroke-width="1.26502" stroke-miterlimit="10" stroke-linecap="round" stroke-linejoin="round"/>
<path d="M35.7197 6.19121C36.4597 6.78965 37.1564 7.44003 37.8044 8.13672" stroke="#5967F6" stroke-width="1.26502" stroke-miterlimit="10" stroke-linecap="round" stroke-linejoin="round"/>
<path d="M13.6572 4.1875C16.4914 2.63954 19.7397 1.76019 23.1923 1.76019C26.5563 1.76019 29.7264 2.59501 32.5084 4.06968" stroke="#5967F6" stroke-width="1.26502" stroke-miterlimit="10" stroke-linecap="round" stroke-linejoin="round"/>
<path d="M24.8682 8.78125C27.1203 7.3797 29.6013 6.27812 32.2674 5.54281" stroke="#5967F6" stroke-width="1.26502" stroke-miterlimit="10" stroke-linecap="round" stroke-linejoin="round"/>
<path d="M16.6729 16.5312C18.1135 14.4867 19.8227 12.6308 21.7618 11.0218" stroke="#5967F6" stroke-width="1.26502" stroke-miterlimit="10" stroke-linecap="round" stroke-linejoin="round"/>
<path d="M11.6743 36.4258C10.9545 30.541 12.0925 24.7969 14.6631 19.84" stroke="#5967F6" stroke-width="1.26502" stroke-miterlimit="10" stroke-linecap="round" stroke-linejoin="round"/>
<path d="M21.5189 8.78125C19.1906 7.3323 16.6178 6.20399 13.8486 5.46944" stroke="#5967F6" stroke-width="1.26502" stroke-miterlimit="10" stroke-linecap="round" stroke-linejoin="round"/>
<path d="M32.4587 21.3711C30.6799 17.378 28 13.8258 24.6221 11.0228" stroke="#5967F6" stroke-width="1.26502" stroke-miterlimit="10" stroke-linecap="round" stroke-linejoin="round"/>
<path d="M34.6212 28.793C34.4313 27.509 34.1532 26.2383 33.79 24.9923" stroke="#5967F6" stroke-width="1.26502" stroke-miterlimit="10" stroke-linecap="round" stroke-linejoin="round"/>
<path d="M34.7002 36.5234C34.8674 35.1912 34.9418 33.8476 34.921 32.505" stroke="#5967F6" stroke-width="1.26502" stroke-miterlimit="10" stroke-linecap="round" stroke-linejoin="round"/>
<path d="M13.7862 17.7845C10.9057 17.7698 7.98176 18.0789 5.05957 18.7383" stroke="#5967F6" stroke-width="1.26502" stroke-miterlimit="10" stroke-linecap="round" stroke-linejoin="round"/>
<path d="M31.5196 22.2109C27.2312 19.9628 22.5196 18.5115 17.6182 17.9944" stroke="#5967F6" stroke-width="1.26502" stroke-miterlimit="10" stroke-linecap="round" stroke-linejoin="round"/>
<path d="M41.575 29.7734C39.5391 27.6475 37.276 25.7678 34.8369 24.1643" stroke="#5967F6" stroke-width="1.26502" stroke-miterlimit="10" stroke-linecap="round" stroke-linejoin="round"/>
<path d="M34.1572 21.4805C36.0434 18.4442 37.5306 15.1169 38.5378 11.5654" stroke="#5967F6" stroke-width="1.26502" stroke-miterlimit="10" stroke-linecap="round" stroke-linejoin="round"/>
<path d="M13.7861 37.7578C21.0151 35.2647 27.3411 30.6744 31.9713 24.6409" stroke="#5967F6" stroke-width="1.26502" stroke-miterlimit="10" stroke-linecap="round" stroke-linejoin="round"/>
<path d="M23.1934 11.6641C22.1331 11.6641 21.2705 10.7973 21.2705 9.73171C21.2705 8.66623 22.1331 7.79944 23.1934 7.79944C24.2538 7.79944 25.1163 8.66623 25.1163 9.73171C25.1163 10.7973 24.2538 11.6641 23.1934 11.6641Z" stroke="#5967F6" stroke-width="1.26502" stroke-miterlimit="10" stroke-linecap="round" stroke-linejoin="round"/>
<path d="M15.709 20.1523C14.6487 20.1523 13.7861 19.2855 13.7861 18.22C13.7861 17.1545 14.6487 16.2876 15.709 16.2876C16.7694 16.2876 17.6319 17.1545 17.6319 18.22C17.6319 19.2855 16.7694 20.1523 15.709 20.1523Z" stroke="#5967F6" stroke-width="1.26502" stroke-miterlimit="10" stroke-linecap="round" stroke-linejoin="round"/>
<path d="M33.1973 25.0859C32.137 25.0859 31.2744 24.2191 31.2744 23.1536C31.2744 22.0881 32.137 21.2212 33.1973 21.2212C34.2577 21.2212 35.1202 22.0881 35.1202 23.1536C35.1202 24.2191 34.2577 25.0859 33.1973 25.0859Z" stroke="#5967F6" stroke-width="1.26502" stroke-miterlimit="10" stroke-linecap="round" stroke-linejoin="round"/>
<path d="M11.9629 40.2695C10.9026 40.2695 10.04 39.4027 10.04 38.3372C10.04 37.2717 10.9026 36.4049 11.9629 36.4049C13.0233 36.4049 13.8859 37.2717 13.8859 38.3372C13.8859 39.4027 13.0233 40.2695 11.9629 40.2695Z" stroke="#5967F6" stroke-width="1.26502" stroke-miterlimit="10" stroke-linecap="round" stroke-linejoin="round"/>
<path d="M34.5333 40.3789C33.4729 40.3789 32.6104 39.512 32.6104 38.4466C32.6104 37.3811 33.4729 36.5142 34.5333 36.5142C35.5936 36.5142 36.4563 37.3811 36.4563 38.4466C36.4563 39.512 35.5936 40.3789 34.5333 40.3789Z" stroke="#5967F6" stroke-width="1.26502" stroke-miterlimit="10" stroke-linecap="round" stroke-linejoin="round"/>
<path d="M39.0177 11.5664C37.9574 11.5664 37.0947 10.6995 37.0947 9.63405C37.0947 8.56857 37.9574 7.7017 39.0177 7.7017C40.0781 7.7017 40.9406 8.56857 40.9406 9.63405C40.9406 10.6995 40.0781 11.5664 39.0177 11.5664Z" stroke="#5967F6" stroke-width="1.26502" stroke-miterlimit="10" stroke-linecap="round" stroke-linejoin="round"/>
<path d="M34.1348 7.02734C33.0745 7.02734 32.2119 6.16056 32.2119 5.09499C32.2119 4.02951 33.0745 3.16272 34.1348 3.16272C35.1952 3.16272 36.0578 4.02951 36.0578 5.09499C36.0578 6.16056 35.1952 7.02734 34.1348 7.02734Z" stroke="#5967F6" stroke-width="1.26502" stroke-miterlimit="10" stroke-linecap="round" stroke-linejoin="round"/>
<path d="M11.9629 7.02734C10.9026 7.02734 10.04 6.16056 10.04 5.09499C10.04 4.02951 10.9026 3.16272 11.9629 3.16272C13.0233 3.16272 13.8859 4.02951 13.8859 5.09499C13.8859 6.16056 13.0233 7.02734 11.9629 7.02734Z" stroke="#5967F6" stroke-width="1.26502" stroke-miterlimit="10" stroke-linecap="round" stroke-linejoin="round"/>
<path d="M3.19732 21.1484C2.13699 21.1484 1.27441 20.2816 1.27441 19.2161C1.27441 18.1506 2.13699 17.2838 3.19732 17.2838C4.25766 17.2838 5.12023 18.1506 5.12023 19.2161C5.12023 20.2816 4.25766 21.1484 3.19732 21.1484Z" stroke="#5967F6" stroke-width="1.26502" stroke-miterlimit="10" stroke-linecap="round" stroke-linejoin="round"/>
</g>
<defs>
<clipPath id="clip0_349_17713">
<rect width="43.1792" height="43.1792" fill="white" transform="translate(0.641602 0.261719)"/>
</clipPath>
</defs>
</svg>
