<svg width="38" height="38" viewBox="0 0 38 38" fill="none" xmlns="http://www.w3.org/2000/svg">
<g clip-path="url(#clip0_349_17486)">
<path d="M12.9856 37.2693C13.2286 37.512 13.6223 37.512 13.8653 37.2693L16.9761 34.1585L16.0963 33.2787L13.4254 35.9496L1.86205 24.3863L8.88806 17.3602L8.00829 16.4805L0.542397 23.9464C0.29967 24.1894 0.29967 24.5831 0.542397 24.8261L12.9856 37.2693Z" fill="white"/>
<path d="M37.6858 13.1179L36.4414 1.91903C36.4092 1.62952 36.1808 1.40076 35.8913 1.36887L24.6924 0.124548C24.505 0.104802 24.3182 0.17042 24.1842 0.303176L19.8291 4.65829L20.7089 5.53806L24.8525 1.39438L35.263 2.5503L36.419 12.9578L33.9777 15.3993L32.7954 7.44737C33.6442 7.11016 34.1266 6.21095 33.9379 5.31751C33.7496 4.42406 32.9448 3.79644 32.0323 3.83077C31.12 3.8654 30.3651 4.55196 30.2445 5.45725C30.1239 6.36223 30.6728 7.22256 31.5444 7.49476L32.5068 13.9651L23.8197 5.28044C23.5766 5.03741 23.1829 5.03741 22.9399 5.28044L19.8291 8.39124L20.7089 9.27101L23.3798 6.6001L31.2102 14.4305L29.7836 15.8571L30.6634 16.7369L32.5299 14.8704C32.5651 14.8303 32.5949 14.7857 32.6183 14.738L32.8795 16.4942L31.6501 17.7236L32.5299 18.6034L33.1071 18.0259L33.5023 20.6777C33.5962 21.4432 34.102 22.0957 34.8198 22.3777C35.538 22.6596 36.3524 22.5256 36.9424 22.0286C37.532 21.5316 37.8024 20.7518 37.6466 19.9963L36.5016 14.6314L37.5071 13.6261C37.6408 13.4924 37.7064 13.3056 37.6858 13.1179ZM32.09 5.09817C32.4336 5.09817 32.7121 5.37674 32.7121 5.72033C32.7121 6.06391 32.4336 6.34249 32.09 6.34249C31.7464 6.34249 31.4678 6.06391 31.4678 5.72033C31.4678 5.37674 31.7464 5.09817 32.09 5.09817ZM36.4284 20.249C36.4879 20.5574 36.3743 20.8739 36.1316 21.0738C35.8892 21.2737 35.5565 21.3247 35.2652 21.2069C34.9738 21.089 34.7703 20.8213 34.7348 20.509L34.2053 16.931L35.4566 15.6797L36.4284 20.249Z" fill="white"/>
<path d="M4.89941 24.3211L8.94319 20.2773L9.82297 21.1571L5.7792 25.2009L4.89941 24.3211Z" fill="white"/>
<path d="M6.8252 26.2469L10.869 22.2031L11.7491 23.0829L7.70498 27.1267L6.8252 26.2469Z" fill="white"/>
<path d="M8.75488 28.1766L11.119 25.8125L11.9991 26.6923L9.63467 29.0564L8.75488 28.1766Z" fill="white"/>
<path d="M10.6846 30.1058L12.3648 28.4258L13.2446 29.3056L11.5647 30.9858L10.6846 30.1058Z" fill="white"/>
<path d="M12.6143 32.0331L13.8586 30.7891L14.7384 31.6688L13.4943 32.9129L12.6143 32.0331Z" fill="white"/>
<path d="M22.7577 34.3388C24.8772 34.3379 26.9405 33.6562 28.6432 32.394L33.1302 36.8809C33.8888 37.6392 35.1182 37.6392 35.8764 36.8809C36.6347 36.1227 36.6347 34.8929 35.8764 34.1347L31.2856 29.5438L31.206 29.6234C33.588 25.7705 33.0649 20.7947 29.9343 17.5211C26.8035 14.2471 21.856 13.5029 17.9007 15.7105C13.9451 17.9181 11.9814 22.5199 13.1245 26.9033C14.2674 31.2864 18.2279 34.3434 22.7577 34.3388ZM34.9967 35.0145C35.2692 35.2869 35.2692 35.7287 34.9967 36.0012C34.7242 36.2737 34.2825 36.2737 34.01 36.0012L29.6014 31.5932C29.9401 31.2727 30.2557 30.9291 30.5465 30.5649L34.9967 35.0145ZM22.7577 15.674C27.5681 15.674 31.4679 19.5738 31.4679 24.3843C31.4679 29.1948 27.5681 33.0945 22.7577 33.0945C17.9472 33.0945 14.0474 29.1948 14.0474 24.3843C14.0526 19.5759 17.9493 15.6792 22.7577 15.674Z" fill="white"/>
<path d="M22.7599 31.8537C26.8832 31.8537 30.2258 28.5111 30.2258 24.3878C30.2258 20.2645 26.8832 16.9219 22.7599 16.9219C18.6365 16.9219 15.2939 20.2645 15.2939 24.3878C15.2985 28.5093 18.6384 31.8491 22.7599 31.8537ZM22.7599 18.1662C26.196 18.1662 28.9815 20.9516 28.9815 24.3878C28.9815 27.8239 26.196 30.6094 22.7599 30.6094C19.3237 30.6094 16.5383 27.8239 16.5383 24.3878C16.5419 20.9531 19.3252 18.1698 22.7599 18.1662Z" fill="white"/>
<path d="M23.3813 26.876H22.137C21.7934 26.876 21.5148 26.5975 21.5148 26.2539H20.2705C20.2705 27.2846 21.1062 28.1204 22.137 28.1204V29.3647H23.3813V28.1204C24.4121 28.1204 25.2478 27.2846 25.2478 26.2539V25.6317C25.2478 24.601 24.4121 23.7653 23.3813 23.7653H22.137C21.7934 23.7653 21.5148 23.4867 21.5148 23.1431V22.5209C21.5148 22.1774 21.7934 21.8988 22.137 21.8988H23.3813C23.7249 21.8988 24.0035 22.1774 24.0035 22.5209H25.2478C25.2478 21.4902 24.4121 20.6545 23.3813 20.6545V19.4102H22.137V20.6545C21.1062 20.6545 20.2705 21.4902 20.2705 22.5209V23.1431C20.2705 24.1739 21.1062 25.0096 22.137 25.0096H23.3813C23.7249 25.0096 24.0035 25.2882 24.0035 25.6317V26.2539C24.0035 26.5975 23.7249 26.876 23.3813 26.876Z" fill="white"/>
<path d="M3.47114 15.0529H7.62727L11.8198 18.0473C11.9253 18.123 12.0516 18.1637 12.1814 18.1637C12.301 18.1634 12.4183 18.1288 12.5192 18.064C12.7346 17.9249 12.8424 17.6682 12.7911 17.417L12.3184 15.0529H15.9143C17.6316 15.0508 19.023 13.6591 19.0251 11.9421V3.23189C19.023 1.51457 17.6316 0.12322 15.9143 0.121094H3.47114C1.75383 0.12322 0.362478 1.51457 0.360352 3.23189V11.9421C0.362478 13.6591 1.75383 15.0508 3.47114 15.0529ZM1.60467 3.23189C1.60467 2.20113 2.44039 1.36541 3.47114 1.36541H15.9143C16.9451 1.36541 17.7808 2.20113 17.7808 3.23189V11.9421C17.7808 12.9729 16.9451 13.8086 15.9143 13.8086H11.5592C11.3724 13.8086 11.1953 13.8924 11.0771 14.037C10.9589 14.1819 10.9121 14.3721 10.9495 14.555L11.2606 16.1234L8.18594 13.9274C8.08143 13.8511 7.95566 13.8095 7.82625 13.8086H3.47114C2.44039 13.8086 1.60467 12.9729 1.60467 11.9421V3.23189Z" fill="white"/>
<path d="M3.47079 12.5667H16.5361V11.3224H4.09295V9.66314L5.33727 8.00446L6.70614 9.82931C6.83099 9.98576 7.02025 10.0772 7.22045 10.0781C7.42247 10.0726 7.6093 9.96936 7.7214 9.80106L9.74766 6.76135L12.3247 9.85483C12.4435 9.99609 12.6185 10.0778 12.8032 10.0781C12.8226 10.0793 12.842 10.0793 12.8618 10.0781C13.0659 10.0587 13.2473 9.94019 13.3469 9.76065L16.4577 4.16123L15.3702 3.55791L12.6999 8.36353L10.1708 5.32717C10.0466 5.17345 9.85612 5.089 9.65865 5.10085C9.46301 5.11148 9.28347 5.21386 9.17472 5.37699L7.17397 8.37963L5.83487 6.59397C5.71244 6.44511 5.52987 6.35884 5.33727 6.35884C5.14466 6.35884 4.96209 6.44511 4.83966 6.59397L4.09295 7.58948V3.23438H2.84863V11.9446C2.84863 12.2882 3.12721 12.5667 3.47079 12.5667Z" fill="white"/>
</g>
<defs>
<clipPath id="clip0_349_17486">
<rect width="37.33" height="37.33" fill="white" transform="translate(0.360352 0.121094)"/>
</clipPath>
</defs>
</svg>
