<svg width="21" height="20" viewBox="0 0 21 20" fill="none" xmlns="http://www.w3.org/2000/svg">
<path d="M16.1115 10.1714C15.0781 10.1714 14.0681 10.5217 13.2704 11.1571C12.1534 12.0292 11.5129 13.3461 11.5129 14.7699C11.5129 17.3058 13.5764 19.3685 16.1115 19.3685C16.5462 19.3685 16.9685 19.3091 17.3648 19.1937C19.3338 18.6394 20.7101 16.82 20.7101 14.7699C20.7101 12.234 18.6466 10.1714 16.1115 10.1714ZM17.134 18.3894C16.8105 18.4839 16.466 18.5324 16.1115 18.5324C14.0371 18.5324 12.349 16.8443 12.349 14.7699C12.349 13.6053 12.8724 12.5283 13.788 11.8135C14.441 11.2934 15.2662 11.0075 16.1115 11.0075C18.1859 11.0075 19.874 12.6956 19.874 14.7699C19.874 16.4472 18.7486 17.9354 17.134 18.3894Z" fill="white"/>
<path d="M12.852 11.156C12.9991 11.156 13.1421 11.0783 13.2182 10.9403C13.3302 10.738 13.2566 10.4838 13.0543 10.3718C12.4799 10.0549 11.8662 9.81491 11.2341 9.64101C12.8846 8.81911 14.0234 7.11848 14.0234 5.15284C14.0234 2.38618 11.7734 0.13623 9.00675 0.13623C6.24009 0.13623 3.99014 2.38618 3.99014 5.15284C3.99014 7.11766 5.12809 8.81664 6.77604 9.63937C5.39648 10.0181 4.12978 10.7422 3.09217 11.7798C1.51445 13.3575 0.645752 15.4578 0.645752 17.6943V18.9485C0.645752 19.1793 0.833052 19.3666 1.06382 19.3666C1.29458 19.3666 1.48188 19.1793 1.48188 18.9485V17.6943C1.48188 15.681 2.26447 13.7914 3.68417 12.3709C5.10387 10.9504 6.99431 10.1694 9.00679 10.1694C10.2818 10.1694 11.5419 10.493 12.6505 11.1042C12.714 11.1393 12.7834 11.156 12.852 11.156ZM4.82627 5.15284C4.82627 2.84771 6.70162 0.972318 9.00675 0.972318C11.3119 0.972318 13.1873 2.84771 13.1873 5.15284C13.1873 7.45797 11.3119 9.33335 9.00675 9.33335C6.70162 9.33331 4.82627 7.45797 4.82627 5.15284Z" fill="white"/>
<path d="M18.206 14.3479H16.5335V12.6755C16.5335 12.4447 16.3462 12.2573 16.1154 12.2573C15.8846 12.2573 15.6973 12.4447 15.6973 12.6755V14.348H14.0248C13.794 14.348 13.6067 14.5353 13.6067 14.7661C13.6067 14.9969 13.794 15.1842 14.0248 15.1842H15.6973V16.8567C15.6973 17.0875 15.8846 17.2748 16.1154 17.2748C16.3462 17.2748 16.5336 17.0875 16.5336 16.8567V15.1842H18.206C18.4368 15.1842 18.6241 14.9969 18.6241 14.7661C18.6241 14.5353 18.4368 14.3479 18.206 14.3479Z" fill="white"/>
</svg>
