<svg width="29" height="30" viewBox="0 0 29 30" fill="none" xmlns="http://www.w3.org/2000/svg">
<path d="M14.9642 9.87923L15.1222 10.5783L15.5759 10.0234L20.0999 4.4899L17.6569 11.2069L17.4119 11.8805L18.0935 11.6589L24.891 9.4497L19.2043 13.7796L18.6341 14.2138L19.3273 14.3959L26.2401 16.2124L19.1152 16.7805L18.4007 16.8374L18.8854 17.3655L23.7188 22.6309L17.4178 19.2568L16.786 18.9185L16.9083 19.6247L18.1276 26.6674L14.6511 20.4224L14.3025 19.7961L14.0235 20.4564L11.2417 27.0403L11.6934 19.9071L11.7387 19.1918L11.1471 19.5964L5.24738 23.6312L9.48387 17.8746L9.90869 17.2973L9.19225 17.3178L2.04769 17.5225L8.72392 14.9701L9.39339 14.7142L8.7796 14.3441L2.65856 10.6536L9.65488 12.1159L10.3564 12.2625L10.0402 11.6194L6.88603 5.20547L11.9812 10.2181L12.4921 10.7207L12.5737 10.0087L13.3879 2.90771L14.9642 9.87923Z" stroke="white" stroke-width="0.699275"/>
</svg>
