<svg width="50" height="51" viewBox="0 0 50 51" fill="none" xmlns="http://www.w3.org/2000/svg">
<path d="M27.0529 16.3869L27.2275 17.5015L27.936 16.6235L35.8546 6.8111L31.3161 18.5751L30.9101 19.6276L31.9626 19.2215L43.7266 14.683L33.9141 22.6017L33.0362 23.3102L34.1507 23.4848L46.6079 25.4363L34.1507 27.3879L33.0362 27.5625L33.9141 28.2709L43.7266 36.1896L31.9626 31.6511L30.9101 31.245L31.3161 32.2976L35.8546 44.0615L27.936 34.2491L27.2275 33.3712L27.0529 34.4857L25.1014 46.9429L23.1498 34.4857L22.9752 33.3712L22.2667 34.2491L14.3481 44.0615L18.8866 32.2976L19.2926 31.245L18.2401 31.6511L6.47614 36.1896L16.2886 28.2709L17.1665 27.5625L16.052 27.3879L3.59481 25.4363L16.052 23.4848L17.1665 23.3102L16.2886 22.6017L6.47614 14.683L18.2401 19.2215L19.2926 19.6276L18.8866 18.5751L14.3481 6.8111L22.2667 16.6235L22.9752 17.5015L23.1498 16.3869L25.1014 3.92977L27.0529 16.3869Z" stroke="white"/>
</svg>
