<svg width="17" height="17" viewBox="0 0 17 17" fill="none" xmlns="http://www.w3.org/2000/svg">
<path d="M10.165 4.5552L11.8665 3.08614L11.4451 5.29426L11.3071 6.01711L12.03 5.87914L14.2381 5.45768L12.769 7.15924L12.2881 7.71626L12.9831 7.9582L15.1061 8.69727L12.9831 9.43633L12.2881 9.67827L12.769 10.2353L14.2381 11.9369L12.03 11.5154L11.3071 11.3774L11.4451 12.1003L11.8665 14.3084L10.165 12.8393L9.60796 12.3584L9.36602 13.0534L8.62695 15.1764L7.88789 13.0534L7.64595 12.3584L7.08893 12.8393L5.38737 14.3084L5.80883 12.1003L5.9468 11.3774L5.22395 11.5154L3.01583 11.9369L4.48488 10.2353L4.96579 9.67827L4.2708 9.43633L2.14778 8.69727L4.2708 7.9582L4.96579 7.71626L4.48488 7.15924L3.01582 5.45768L5.22395 5.87914L5.9468 6.01711L5.80883 5.29426L5.38737 3.08614L7.08893 4.5552L7.64595 5.0361L7.88789 4.34112L8.62695 2.21809L9.36602 4.34112L9.60796 5.0361L10.165 4.5552Z" stroke="white"/>
</svg>
