<svg width="166" height="166" viewBox="0 0 166 166" fill="none" xmlns="http://www.w3.org/2000/svg">
<path d="M165.271 82.883C165.271 128.518 128.277 165.512 82.6418 165.512C37.007 165.512 0.0126953 128.518 0.0126953 82.883C0.0126953 37.2482 37.007 0.253906 82.6418 0.253906C128.277 0.253906 165.271 37.2482 165.271 82.883ZM23.3396 82.883C23.3396 115.635 49.8901 142.185 82.6418 142.185C115.393 142.185 141.944 115.635 141.944 82.883C141.944 50.1313 115.393 23.5809 82.6418 23.5809C49.8901 23.5809 23.3396 50.1313 23.3396 82.883Z" fill="#5967F6"/>
<path d="M149.758 86.1258C149.784 85.6471 149.884 85.1875 150.057 84.7469C150.231 84.3105 150.466 83.9332 150.762 83.6149C151.057 83.2966 151.401 83.0795 151.793 82.9635L152.062 83.8202C151.792 83.8999 151.554 84.0585 151.348 84.2959C151.147 84.5379 150.986 84.8228 150.865 85.1506C150.744 85.4826 150.674 85.8239 150.655 86.1743C150.633 86.5846 150.681 86.9707 150.798 87.3328C150.916 87.6949 151.091 87.9915 151.322 88.2226C151.559 88.454 151.843 88.5787 152.177 88.5967C152.514 88.6149 152.798 88.5167 153.028 88.302C153.258 88.0873 153.445 87.8038 153.589 87.4515C153.736 87.1038 153.854 86.7373 153.944 86.3521C154.084 85.7468 154.259 85.2055 154.469 84.7283C154.679 84.2553 154.958 83.8868 155.306 83.6228C155.659 83.359 156.111 83.242 156.663 83.2718C157.18 83.2998 157.62 83.4736 157.985 83.7933C158.349 84.113 158.622 84.5221 158.805 85.0206C158.988 85.5234 159.064 86.059 159.033 86.6273C159.008 87.0931 158.911 87.5443 158.742 87.9809C158.572 88.4175 158.34 88.7971 158.044 89.1197C157.747 89.4465 157.394 89.6739 156.985 89.8017L156.723 88.9325C156.997 88.8531 157.235 88.6924 157.437 88.4504C157.643 88.2129 157.804 87.9302 157.92 87.6022C158.041 87.2744 158.11 86.9332 158.13 86.5785C158.156 86.1727 158.108 85.7887 157.986 85.4264C157.868 85.0685 157.691 84.7739 157.455 84.5426C157.224 84.3115 156.943 84.187 156.614 84.1692C156.229 84.1484 155.927 84.2328 155.707 84.4223C155.491 84.6164 155.322 84.8858 155.2 85.2307C155.079 85.5756 154.965 85.9659 154.86 86.4017C154.731 86.969 154.549 87.4927 154.313 87.9729C154.081 88.4532 153.784 88.8336 153.422 89.114C153.063 89.3947 152.632 89.5214 152.128 89.4941C151.615 89.4664 151.175 89.2926 150.806 88.9726C150.442 88.6529 150.169 88.2417 149.986 87.7389C149.803 87.2404 149.727 86.7027 149.758 86.1258Z" fill="white"/>
<path d="M157.322 99.0269L156.436 98.8754L156.956 95.8381L148.983 94.4749L149.134 93.589L157.107 94.9522L157.625 91.9212L158.511 92.0727L157.322 99.0269Z" fill="white"/>
<path d="M156 103.945L155.675 105.014L146.124 105.534L146.402 104.619L148.448 104.509L149.712 100.351L148.072 99.1216L148.35 98.2064L156 103.945ZM150.476 100.925L149.405 104.451L154.781 104.159L150.476 100.925Z" fill="white"/>
<path d="M145.483 107.235L153.68 110.92L152.429 113.701C152.233 114.139 151.948 114.485 151.575 114.739C151.207 114.996 150.794 115.146 150.338 115.19C149.886 115.235 149.436 115.157 148.987 114.955C148.585 114.774 148.257 114.528 148.002 114.217C147.748 113.906 147.578 113.559 147.491 113.178C147.403 112.8 147.404 112.418 147.493 112.031L143.127 112.475L143.553 111.527L147.842 111.083L148.516 109.584L145.114 108.055L145.483 107.235ZM149.336 109.953L148.485 111.844C148.355 112.133 148.307 112.428 148.341 112.729C148.376 113.036 148.483 113.314 148.662 113.563C148.843 113.818 149.088 114.015 149.396 114.154C149.705 114.292 150.012 114.344 150.319 114.308C150.628 114.278 150.908 114.174 151.157 113.995C151.408 113.822 151.599 113.591 151.729 113.302L152.579 111.411L149.336 109.953Z" fill="white"/>
<path d="M146.477 124.738L145.705 124.278L147.282 121.631L140.333 117.491L140.793 116.719L147.742 120.859L149.315 118.217L150.087 118.677L146.477 124.738Z" fill="white"/>
<path d="M135.828 124.166L142.628 130.043L141.99 130.781L133.317 129.556L138.888 134.37L138.3 135.05L131.5 129.174L132.134 128.44L140.812 129.661L135.241 124.846L135.828 124.166Z" fill="white"/>
<path d="M127.587 132.639C128.041 132.235 128.547 131.945 129.106 131.768C129.668 131.595 130.243 131.533 130.831 131.582C131.42 131.631 131.986 131.789 132.532 132.054C133.08 132.322 133.567 132.696 133.994 133.176C134.421 133.655 134.734 134.181 134.935 134.754C135.137 135.329 135.229 135.912 135.21 136.502C135.191 137.092 135.061 137.654 134.821 138.189C134.583 138.727 134.238 139.198 133.784 139.602C133.327 140.009 132.817 140.299 132.255 140.472C131.696 140.649 131.123 140.713 130.535 140.663C129.946 140.614 129.38 140.453 128.835 140.182C128.289 139.917 127.803 139.545 127.376 139.065C126.95 138.586 126.635 138.058 126.432 137.482C126.229 136.913 126.137 136.333 126.156 135.743C126.175 135.153 126.303 134.589 126.541 134.051C126.781 133.517 127.13 133.046 127.587 132.639ZM128.184 133.31C127.817 133.637 127.54 134.015 127.354 134.444C127.169 134.879 127.071 135.333 127.062 135.805C127.049 136.28 127.126 136.747 127.294 137.205C127.458 137.666 127.709 138.087 128.048 138.468C128.389 138.851 128.78 139.151 129.219 139.368C129.66 139.588 130.117 139.717 130.587 139.757C131.058 139.802 131.518 139.756 131.969 139.619C132.416 139.484 132.822 139.255 133.186 138.931C133.554 138.603 133.831 138.222 134.017 137.788C134.202 137.359 134.301 136.907 134.314 136.432C134.323 135.959 134.246 135.493 134.082 135.031C133.914 134.573 133.661 134.154 133.323 133.773C132.979 133.386 132.587 133.085 132.148 132.868C131.709 132.652 131.254 132.52 130.784 132.475C130.31 132.432 129.85 132.478 129.403 132.613C128.955 132.753 128.549 132.986 128.184 133.31Z" fill="white"/>
<path d="M121.412 137.858L128.199 144.182L127.42 144.681L121.804 139.444L124.227 146.729L123.557 147.159L117.94 141.922L120.364 149.207L119.585 149.707L116.657 140.908L117.554 140.332L122.766 145.188L120.526 138.426L121.412 137.858Z" fill="white"/>
<path d="M98.8976 147.534C99.3288 148.566 100.422 149.718 102.133 150.471C102.988 150.848 103.784 151.028 104.503 151.001L104.628 151.526C103.317 152.169 102.175 153.47 101.58 154.959C101.283 155.703 101.15 156.421 101.186 157.125L100.662 157.25C100.146 156.027 98.8157 154.879 97.2809 154.256C96.5212 153.948 95.7723 153.797 95.0372 153.814L94.912 153.29C96.2547 152.666 97.5737 151.057 98.0595 149.608C98.3071 148.876 98.4168 148.229 98.3731 147.659L98.8976 147.534ZM98.7943 147.875L98.6195 147.917C98.8045 149.246 98.7541 150.749 98.4928 151.59C97.7694 152.265 96.3536 153.025 95.2725 153.362L95.3142 153.537C96.4341 153.362 98.1089 153.411 98.9935 153.688C99.6094 154.334 100.324 155.615 100.759 156.884L100.934 156.842C100.754 155.644 100.792 154.144 101.067 153.194C101.756 152.541 103.153 151.759 104.281 151.397L104.239 151.222C103.082 151.406 101.528 151.368 100.566 151.096C99.9102 150.394 99.1803 149.05 98.7943 147.875Z" fill="white"/>
<path d="M76.8241 149.647C77.3017 149.688 77.7581 149.802 78.1931 149.989C78.6239 150.176 78.9938 150.422 79.3029 150.728C79.6119 151.033 79.8184 151.384 79.9222 151.779L79.0576 152.021C78.9863 151.749 78.8351 151.506 78.6041 151.293C78.3684 151.084 78.0887 150.914 77.7648 150.784C77.4366 150.653 77.0977 150.572 76.748 150.543C76.3386 150.508 75.9511 150.544 75.5856 150.65C75.2201 150.756 74.9182 150.922 74.6801 151.146C74.4415 151.375 74.3081 151.656 74.2798 151.988C74.2512 152.325 74.3406 152.612 74.5481 152.849C74.7556 153.086 75.0332 153.281 75.3809 153.435C75.724 153.593 76.0866 153.723 76.4689 153.824C77.0696 153.982 77.6052 154.174 78.0758 154.399C78.5421 154.623 78.9018 154.914 79.1549 155.27C79.4077 155.631 79.5107 156.086 79.4639 156.637C79.42 157.152 79.2327 157.588 78.9019 157.942C78.5711 158.296 78.1538 158.557 77.6499 158.724C77.1417 158.892 76.6041 158.951 76.0369 158.903C75.5721 158.863 75.1241 158.752 74.693 158.569C74.2618 158.387 73.8896 158.142 73.5763 157.837C73.2587 157.53 73.0423 157.171 72.9272 156.757L73.804 156.522C73.875 156.799 74.0283 157.042 74.2639 157.251C74.4949 157.464 74.7726 157.633 75.0968 157.76C75.4208 157.89 75.7597 157.971 76.1136 158.001C76.5184 158.04 76.9037 158.004 77.2696 157.893C77.6309 157.786 77.9308 157.619 78.1693 157.39C78.4075 157.165 78.5405 156.889 78.5684 156.56C78.6011 156.177 78.5261 155.872 78.3434 155.646C78.1561 155.424 77.892 155.246 77.551 155.114C77.2101 154.982 76.8234 154.857 76.3911 154.739C75.828 154.592 75.3102 154.393 74.8375 154.143C74.3645 153.896 73.9935 153.588 73.7244 153.217C73.4549 152.85 73.3415 152.415 73.3843 151.912C73.4279 151.401 73.6152 150.966 73.9463 150.607C74.2771 150.253 74.6966 149.992 75.2048 149.825C75.7087 149.657 76.2485 149.598 76.8241 149.647Z" fill="white"/>
<path d="M63.7141 156.768L63.8959 155.888L66.9136 156.512L68.5503 148.59L69.4304 148.772L67.7937 156.693L70.8051 157.316L70.6232 158.196L63.7141 156.768Z" fill="white"/>
<path d="M58.8487 155.283L57.7916 154.922L57.596 145.359L58.5012 145.668L58.5414 147.717L62.6545 149.12L63.9388 147.524L64.844 147.833L58.8487 155.283ZM62.0543 149.865L58.567 148.675L58.6768 154.058L62.0543 149.865Z" fill="white"/>
<path d="M55.9997 144.695L52.0422 152.765L49.3044 151.422C48.8741 151.211 48.5378 150.915 48.2956 150.534C48.0516 150.157 47.9154 149.74 47.887 149.282C47.8567 148.829 47.9499 148.381 48.1667 147.939C48.3608 147.544 48.6177 147.224 48.9373 146.98C49.257 146.737 49.6089 146.578 49.9931 146.504C50.3734 146.429 50.7553 146.442 51.1389 146.544L50.8412 142.165L51.7749 142.623L52.0749 146.925L53.5504 147.648L55.1928 144.3L55.9997 144.695ZM53.1547 148.455L51.293 147.542C51.0087 147.403 50.7154 147.345 50.4131 147.368C50.1052 147.393 49.8236 147.491 49.5684 147.662C49.3075 147.834 49.1027 148.072 48.9538 148.376C48.8049 148.679 48.7431 148.985 48.7685 149.293C48.7881 149.603 48.8831 149.885 49.0534 150.14C49.2181 150.398 49.4426 150.596 49.7269 150.735L51.5886 151.648L53.1547 148.455Z" fill="white"/>
<path d="M38.4677 145.104L38.953 144.348L41.5466 146.012L45.9138 139.203L46.6703 139.688L42.3031 146.497L44.8914 148.157L44.4062 148.914L38.4677 145.104Z" fill="white"/>
<path d="M39.4701 134.547L33.3981 141.173L32.6787 140.513L34.1558 131.88L29.1811 137.308L28.5185 136.701L34.5905 130.075L35.3051 130.73L33.8328 139.368L38.8075 133.939L39.4701 134.547Z" fill="white"/>
<path d="M31.2368 126.032C31.6257 126.499 31.8993 127.015 32.0575 127.579C32.2125 128.146 32.2556 128.723 32.187 129.309C32.1184 129.896 31.9426 130.457 31.6598 130.993C31.3736 131.533 30.9839 132.008 30.4907 132.418C29.9974 132.829 29.4614 133.125 28.8827 133.307C28.3008 133.491 27.7153 133.563 27.1262 133.525C26.5372 133.486 25.9794 133.338 25.4528 133.081C24.923 132.826 24.4636 132.465 24.0747 131.998C23.683 131.528 23.4097 131.009 23.2547 130.442C23.0965 129.877 23.0517 129.302 23.1203 128.716C23.1889 128.129 23.3677 127.568 23.6566 127.032C23.9395 126.496 24.3275 126.022 24.8208 125.612C25.3141 125.201 25.8517 124.903 26.4336 124.719C27.0096 124.535 27.5921 124.462 28.1811 124.5C28.7702 124.539 29.3296 124.685 29.8594 124.94C30.386 125.198 30.8451 125.562 31.2368 126.032ZM30.5462 126.607C30.2312 126.229 29.8625 125.94 29.4401 125.741C29.0116 125.541 28.5615 125.428 28.0897 125.403C27.6152 125.375 27.1461 125.438 26.6825 125.59C26.2161 125.739 25.7873 125.976 25.396 126.302C25.0014 126.631 24.6887 127.011 24.4579 127.443C24.2238 127.877 24.0793 128.329 24.0244 128.798C23.9635 129.266 23.9944 129.728 24.117 130.183C24.2369 130.635 24.453 131.048 24.7652 131.423C25.0802 131.801 25.452 132.09 25.8804 132.29C26.3028 132.49 26.7513 132.603 27.2259 132.631C27.6976 132.656 28.1667 132.594 28.6331 132.445C29.0967 132.293 29.5241 132.054 29.9155 131.728C30.3133 131.396 30.6277 131.015 30.8585 130.583C31.0893 130.151 31.2351 129.701 31.2961 129.233C31.3542 128.761 31.3234 128.299 31.2035 127.848C31.0776 127.396 30.8585 126.982 30.5462 126.607Z" fill="white"/>
<path d="M26.2535 119.752L19.7328 126.35L19.2567 125.558L24.6562 120.098L17.3031 122.305L16.8932 121.623L22.2926 116.163L14.9395 118.371L14.4635 117.578L23.3445 114.909L23.8932 115.823L18.8866 120.89L25.7114 118.85L26.2535 119.752Z" fill="white"/>
<path d="M17.2686 96.9143C16.2221 97.3097 15.0338 98.3627 14.2222 100.047C13.8165 100.889 13.6095 101.677 13.6113 102.398L13.0828 102.505C12.4852 101.172 11.2232 99.9864 9.75607 99.3405C9.02253 99.0176 8.30954 98.8607 7.60454 98.8726L7.49744 98.3441C8.7376 97.8701 9.93036 96.5804 10.6064 95.0679C10.9394 94.3192 11.1163 93.576 11.1245 92.8407L11.653 92.7336C12.2305 94.0969 13.7926 95.4702 15.2242 96.0054C15.9475 96.2781 16.59 96.4099 17.1615 96.3858L17.2686 96.9143ZM16.9309 96.7993L16.8952 96.6231C15.561 96.7625 14.06 96.6606 13.2284 96.3706C12.5794 95.6244 11.8681 94.1834 11.5683 93.0914L11.3921 93.1271C11.5284 94.2522 11.4219 95.9244 11.1144 96.799C10.4486 97.3924 9.14348 98.063 7.86031 98.454L7.89601 98.6301C9.09925 98.4911 10.5977 98.5805 11.5376 98.8878C12.1664 99.5988 12.9002 101.022 13.2229 102.162L13.3991 102.126C13.2551 100.963 13.3469 99.412 13.6517 98.4594C14.3752 97.8281 15.7433 97.1448 16.9309 96.7993Z" fill="white"/>
<path d="M15.8401 74.8029C15.783 75.2788 15.6533 75.7309 15.451 76.1592C15.2492 76.5833 14.9903 76.9445 14.6743 77.2428C14.3584 77.541 14.001 77.7352 13.6022 77.8253L13.3902 76.9528C13.6648 76.891 13.9126 76.7483 14.1334 76.5248C14.3504 76.2965 14.5298 76.0228 14.6716 75.7036C14.8139 75.3802 14.9059 75.0442 14.9478 74.6958C14.9967 74.2879 14.9744 73.8994 14.8808 73.5304C14.7871 73.1614 14.6322 72.854 14.416 72.6082C14.1956 72.3619 13.9196 72.2189 13.5882 72.1791C13.2525 72.1388 12.9628 72.2182 12.7191 72.4174C12.4753 72.6166 12.2704 72.8873 12.1043 73.2294C11.9345 73.5668 11.7924 73.9247 11.678 74.3033C11.4988 74.8981 11.2888 75.4268 11.0479 75.8893C10.8076 76.3475 10.5049 76.697 10.1397 76.9376C9.7704 77.1778 9.31165 77.2649 8.7635 77.1991C8.24934 77.1374 7.82103 76.9351 7.47856 76.5923C7.13609 76.2495 6.88982 75.8233 6.73976 75.3139C6.59021 74.8003 6.54936 74.2609 6.6172 73.6957C6.6728 73.2326 6.79936 72.7887 6.99689 72.3641C7.19441 71.9396 7.45142 71.576 7.76792 71.2735C8.08492 70.9667 8.45206 70.7629 8.86934 70.6621L9.07352 71.5466C8.7946 71.6079 8.54661 71.7527 8.32955 71.981C8.10875 72.2045 7.92959 72.4761 7.79207 72.7958C7.6503 73.115 7.55825 73.4509 7.51591 73.8036C7.4632 74.2068 7.48579 74.5931 7.58367 74.9626C7.67782 75.3274 7.83511 75.6329 8.05555 75.8792C8.27174 76.125 8.54343 76.2675 8.87062 76.3068C9.25305 76.3527 9.56035 76.2883 9.79254 76.1136C10.021 75.9341 10.2071 75.6763 10.3509 75.3401C10.4947 75.0039 10.6333 74.6218 10.7665 74.1938C10.9326 73.6362 11.1491 73.1255 11.416 72.6619C11.6786 72.1977 11.9999 71.8375 12.3798 71.5814C12.7554 71.3248 13.1939 71.2265 13.6953 71.2867C14.2052 71.348 14.6335 71.5502 14.9803 71.8936C15.3227 72.2364 15.5688 72.6647 15.7183 73.1783C15.8684 73.6877 15.909 74.2293 15.8401 74.8029Z" fill="white"/>
<path d="M9.0982 61.5716L9.9724 61.7803L9.25719 64.7775L17.1249 66.6549L16.9163 67.5291L9.04858 65.6517L8.33486 68.6427L7.46067 68.4341L9.0982 61.5716Z" fill="white"/>
<path d="M10.6772 56.8971L11.0697 55.8513L20.6344 55.9434L20.2983 56.8389L18.2494 56.8175L16.7226 60.8865L18.2799 62.2182L17.9439 63.1138L10.6772 56.8971ZM15.9962 60.2642L17.2907 56.8143L11.9072 56.7621L15.9962 60.2642Z" fill="white"/>
<path d="M21.3482 54.3104L13.3998 50.1155L14.8231 47.4187C15.0469 46.9948 15.3527 46.6675 15.7406 46.4367C16.1248 46.2039 16.5458 46.0801 17.0037 46.0653C17.4578 46.0485 17.9025 46.1549 18.3377 46.3847C18.7276 46.5904 19.0395 46.8567 19.2736 47.1834C19.5076 47.5102 19.6558 47.8667 19.7181 48.2528C19.7825 48.6352 19.7578 49.0166 19.6442 49.397L24.0299 49.2292L23.5445 50.1489L19.2362 50.3213L18.4691 51.7747L21.7677 53.5156L21.3482 54.3104ZM17.6743 51.3552L18.6421 49.5214C18.7899 49.2413 18.8566 48.9499 18.8422 48.6471C18.826 48.3385 18.7366 48.0542 18.5738 47.7941C18.4093 47.5282 18.1775 47.3163 17.8785 47.1585C17.5795 47.0007 17.2757 46.9299 16.9671 46.9461C16.6568 46.9565 16.3715 47.0431 16.1114 47.2058C15.8495 47.3628 15.6447 47.5813 15.4968 47.8614L14.529 49.6952L17.6743 51.3552Z" fill="white"/>
<path d="M21.608 36.5666L22.3481 37.0765L20.5998 39.6139L27.2605 44.2031L26.7506 44.9432L20.0899 40.354L18.3452 42.8861L17.6052 42.3762L21.608 36.5666Z" fill="white"/>
<path d="M32.0154 38.0018L25.5915 31.7164L26.2739 31.019L34.8547 32.7776L29.5917 27.628L30.2202 26.9857L36.6442 33.2711L35.9662 33.9639L27.3809 32.2099L32.644 37.3594L32.0154 38.0018Z" fill="white"/>
<path d="M40.8185 29.9872C40.339 30.3606 39.8146 30.6172 39.2453 30.7568C38.6734 30.8931 38.0955 30.9173 37.5118 30.8295C36.9281 30.7417 36.3728 30.5476 35.8459 30.2473C35.3165 29.9437 34.8545 29.5386 34.46 29.0322C34.0656 28.5257 33.7873 27.9803 33.6251 27.396C33.4603 26.8083 33.4067 26.2207 33.4645 25.6332C33.5223 25.0458 33.6886 24.4931 33.9634 23.9753C34.2355 23.4541 34.6113 23.0068 35.0907 22.6334C35.5736 22.2573 36.101 22.0012 36.6729 21.8649C37.2422 21.7253 37.8188 21.6993 38.4025 21.7871C38.9862 21.8749 39.5411 22.072 40.0672 22.3783C40.5941 22.6786 41.0547 23.082 41.4492 23.5884C41.8437 24.0949 42.1233 24.642 42.2881 25.2297C42.4537 25.8114 42.5075 26.3959 42.4498 26.9834C42.392 27.5709 42.227 28.1252 41.9549 28.6464C41.6801 29.1642 41.3013 29.6111 40.8185 29.9872ZM40.2662 29.2781C40.6545 28.9757 40.9553 28.6167 41.1686 28.201C41.3826 27.7793 41.5097 27.3331 41.55 26.8624C41.5936 26.3891 41.5469 25.9182 41.4099 25.4499C41.2763 24.9789 41.0531 24.5425 40.7401 24.1407C40.4246 23.7355 40.0548 23.4105 39.6309 23.1657C39.2043 22.9175 38.7575 22.7583 38.2905 22.6881C37.8243 22.6118 37.3618 22.6275 36.9032 22.7352C36.448 22.8402 36.0279 23.0426 35.643 23.3424C35.2547 23.6449 34.9536 24.0069 34.7395 24.4286C34.5262 24.8443 34.3978 25.2888 34.3542 25.7621C34.314 26.2328 34.3607 26.7037 34.4942 27.1747C34.6312 27.643 34.8561 28.0781 35.1691 28.4799C35.4873 28.8884 35.8584 29.2151 36.2823 29.4599C36.7063 29.7047 37.1514 29.8653 37.6176 29.9415C38.0872 30.0152 38.5496 29.9994 39.0049 29.8944C39.4609 29.7834 39.8813 29.5779 40.2662 29.2781Z" fill="white"/>
<path d="M47.2718 25.1826L40.8936 18.4467L41.7013 17.9972L46.9795 23.5748L45.0166 16.1524L45.7122 15.7654L50.9904 21.3429L49.0274 13.9206L49.8352 13.4711L52.2083 22.4357L51.2771 22.9539L46.3789 17.782L48.1918 24.6707L47.2718 25.1826Z" fill="white"/>
<path d="M70.2316 16.9389C69.8684 15.8808 68.8522 14.6608 67.1937 13.7981C66.3645 13.3668 65.5826 13.1358 64.8627 13.1156L64.7718 12.5841C66.1225 12.0275 67.3458 10.8023 68.0363 9.35567C68.3815 8.63234 68.5601 7.92448 68.5698 7.21945L69.1013 7.12857C69.5372 8.38264 70.7898 9.61429 72.2809 10.3362C73.0191 10.692 73.7566 10.8915 74.4912 10.9222L74.5821 11.4537C73.2018 11.9893 71.7813 13.5087 71.2026 14.9232C70.908 15.6379 70.7565 16.276 70.7632 16.848L70.2316 16.9389ZM70.3569 16.6048L70.5341 16.5745C70.4356 15.2367 70.5834 13.7396 70.8986 12.9172C71.6643 12.2913 73.1264 11.6245 74.2271 11.3581L74.1968 11.181C73.068 11.2828 71.3998 11.1251 70.5351 10.7911C69.9623 10.1075 69.332 8.78244 68.9804 7.4879L68.8032 7.5182C68.9054 8.72512 68.7702 10.2201 68.4343 11.1503C67.7044 11.757 66.2593 12.4469 65.1102 12.7346L65.1405 12.9118C66.3073 12.8035 67.855 12.9426 68.7978 13.2764C69.4067 14.0189 70.0479 15.4072 70.3569 16.6048Z" fill="white"/>
<path d="M92.4171 16.1383C91.9432 16.0666 91.4953 15.9231 91.0734 15.7078C90.6557 15.4931 90.3027 15.2232 90.0142 14.8982C89.7258 14.5732 89.5427 14.21 89.4649 13.8087L90.3435 13.6235C90.3969 13.9 90.5319 14.152 90.7485 14.3795C90.97 14.6035 91.2381 14.7912 91.5527 14.9427C91.8717 15.0949 92.2046 15.1972 92.5516 15.2497C92.9578 15.3112 93.3468 15.3008 93.7185 15.2185C94.0902 15.1363 94.4022 14.9909 94.6545 14.7823C94.9075 14.5696 95.0589 14.2981 95.1089 13.9681C95.1595 13.6338 95.089 13.3418 94.8973 13.092C94.7057 12.8423 94.4415 12.6292 94.1046 12.4527C93.7726 12.2726 93.4192 12.1195 93.0444 11.9935C92.4552 11.7962 91.9333 11.57 91.4784 11.3151C91.0278 11.0608 90.6878 10.7474 90.4585 10.3751C90.2298 9.99857 90.1567 9.53736 90.2393 8.99149C90.3168 8.47948 90.5321 8.05758 90.8853 7.7258C91.2385 7.39401 91.672 7.16095 92.1858 7.0266C92.7038 6.89289 93.2442 6.86862 93.807 6.95379C94.2682 7.02359 94.708 7.16372 95.1263 7.37419C95.5446 7.58465 95.9001 7.85271 96.1928 8.17834C96.4897 8.50462 96.6821 8.87785 96.77 9.29802L95.8797 9.47495C95.8269 9.19427 95.6898 8.94195 95.4683 8.71798C95.2517 8.49042 94.9858 8.30301 94.6704 8.15574C94.3557 8.00423 94.0228 7.90191 93.6716 7.84876C93.2702 7.7837 92.8834 7.79441 92.511 7.8809C92.1435 7.9638 91.8333 8.11164 91.5804 8.32441C91.3281 8.53295 91.1773 8.80014 91.1279 9.12596C91.0703 9.5068 91.1253 9.81594 91.2928 10.0534C91.4651 10.2872 91.7171 10.4812 92.0488 10.6353C92.3804 10.7893 92.758 10.9395 93.1817 11.0859C93.734 11.269 94.2378 11.5011 94.693 11.7821C95.1489 12.0588 95.499 12.391 95.7434 12.7786C95.9884 13.1619 96.0731 13.6032 95.9975 14.1026C95.9207 14.6103 95.7053 15.0322 95.3515 15.3683C94.9983 15.7 94.5627 15.9328 94.0447 16.0665C93.5309 16.2008 92.9884 16.2248 92.4171 16.1383Z" fill="white"/>
<path d="M105.725 9.7663L105.49 10.6337L102.516 9.82778L100.4 17.6348L99.5329 17.3998L101.649 9.59271L98.6806 8.78842L98.9157 7.92096L105.725 9.7663Z" fill="white"/>
<path d="M110.756 11.6208L111.788 12.0483L111.373 21.6044L110.49 21.2384L110.58 19.1914L106.565 17.5283L105.181 19.0398L104.298 18.6738L110.756 11.6208ZM107.211 16.8233L110.616 18.2333L110.849 12.8547L107.211 16.8233Z" fill="white"/>
<path d="M112.997 22.3847L117.453 14.5802L120.101 16.0922C120.518 16.3299 120.835 16.6465 121.052 17.0419C121.272 17.4336 121.382 17.8585 121.382 18.3166C121.383 18.771 121.262 19.2119 121.018 19.6393C120.8 20.0221 120.523 20.325 120.189 20.548C119.854 20.7711 119.493 20.9073 119.105 20.9568C118.721 21.0084 118.34 20.9711 117.964 20.8449L117.986 25.2338L117.083 24.7181L117.054 20.4064L115.627 19.5915L113.777 22.8304L112.997 22.3847ZM116.072 18.811L117.873 19.8393C118.148 19.9963 118.437 20.0727 118.74 20.0683C119.049 20.0624 119.336 19.9824 119.602 19.8284C119.873 19.6728 120.092 19.4482 120.26 19.1546C120.428 18.861 120.508 18.5597 120.503 18.2508C120.502 17.9402 120.425 17.6523 120.271 17.3869C120.123 17.1199 119.912 16.9079 119.637 16.7509L117.836 15.7227L116.072 18.811Z" fill="white"/>
<path d="M130.367 22.9473L129.836 23.6722L127.351 21.8504L122.569 28.3742L121.844 27.8428L126.626 21.3191L124.146 19.5012L124.677 18.7763L130.367 22.9473Z" fill="white"/>
<path d="M128.955 33.6048L135.447 27.3898L136.122 28.0946L134.084 36.6134L139.403 31.5215L140.024 32.1707L133.532 38.3857L132.862 37.6855L134.896 29.1621L129.577 34.254L128.955 33.6048Z" fill="white"/>
<path d="M136.442 42.3634C136.083 41.8732 135.842 41.3416 135.719 40.7684C135.6 40.1927 135.592 39.6144 135.697 39.0335C135.802 38.4526 136.012 37.9032 136.327 37.3854C136.646 36.865 137.065 36.415 137.583 36.0355C138.1 35.656 138.654 35.3937 139.242 35.2486C139.835 35.1011 140.424 35.0647 141.009 35.1396C141.595 35.2145 142.142 35.3968 142.652 35.6866C143.165 35.9738 143.601 36.3625 143.96 36.8527C144.322 37.3463 144.563 37.8809 144.682 38.4566C144.805 39.0297 144.814 39.6068 144.709 40.1877C144.605 40.7686 144.392 41.3176 144.07 41.8345C143.754 42.3523 143.338 42.801 142.82 43.1805C142.302 43.5601 141.747 43.8236 141.155 43.9712C140.569 44.1197 139.983 44.1565 139.397 44.0816C138.812 44.0067 138.262 43.8257 137.749 43.5384C137.24 43.2486 136.804 42.857 136.442 42.3634ZM137.167 41.832C137.458 42.229 137.808 42.5401 138.218 42.7654C138.633 42.9917 139.075 43.1318 139.545 43.1857C140.016 43.2431 140.488 43.2102 140.961 43.087C141.435 42.9672 141.878 42.7568 142.289 42.4557C142.703 42.1521 143.039 41.7919 143.296 41.3753C143.556 40.9562 143.728 40.5142 143.812 40.0495C143.902 39.5857 143.9 39.123 143.806 38.6614C143.714 38.2033 143.524 37.7775 143.235 37.384C142.944 36.9871 142.591 36.6755 142.176 36.4492C141.767 36.2239 141.326 36.0825 140.854 36.0251C140.385 35.9712 139.913 36.0041 139.438 36.1239C138.966 36.2471 138.525 36.4593 138.114 36.7604C137.696 37.0665 137.359 37.4279 137.102 37.8445C136.845 38.2611 136.671 38.7014 136.581 39.1652C136.494 39.6325 136.496 40.0951 136.588 40.5533C136.686 41.0123 136.879 41.4385 137.167 41.832Z" fill="white"/>
<path d="M141.087 48.9908L148.008 42.8144L148.434 43.6351L142.702 48.7462L150.18 47.0035L150.546 47.7102L144.815 52.8212L152.292 51.0785L152.717 51.8993L143.686 54.0063L143.196 53.0602L148.51 48.317L141.571 49.9255L141.087 48.9908Z" fill="white"/>
<path d="M146.842 67.6686C147.911 67.3379 149.162 66.3596 150.075 64.7284C150.531 63.9128 150.786 63.1383 150.829 62.4194L151.363 62.3449C151.878 63.712 153.065 64.9723 154.489 65.7068C155.202 66.0741 155.904 66.2742 156.608 66.3055L156.683 66.8396C155.416 67.2368 154.146 68.4511 153.379 69.9194C153.001 70.6463 152.779 71.3773 152.726 72.1107L152.192 72.1852C151.699 70.7891 150.223 69.3227 148.827 68.7009C148.122 68.3845 147.489 68.2136 146.917 68.2027L146.842 67.6686ZM147.172 67.804L147.197 67.982C148.538 67.9246 150.029 68.1183 150.842 68.4586C151.444 69.2431 152.066 70.7249 152.298 71.8333L152.476 71.8084C152.409 70.677 152.618 69.0145 152.978 68.1604C153.679 67.6089 155.023 67.0195 156.327 66.7077L156.302 66.5297C155.093 66.5948 153.603 66.4139 152.683 66.0496C152.099 65.3015 151.454 63.8359 151.202 62.6785L151.024 62.7033C151.096 63.8729 150.91 65.4156 150.547 66.3478C149.786 66.9336 148.379 67.5319 147.172 67.804Z" fill="white"/>
</svg>
