<svg width="18" height="17" viewBox="0 0 18 17" fill="none" xmlns="http://www.w3.org/2000/svg">
<g clip-path="url(#clip0_349_18096)">
<path d="M13.4894 16.815C13.402 16.815 13.3147 16.7816 13.2478 16.7154L9.8353 13.3029C9.7377 13.2053 9.70836 13.0585 9.76159 12.9309C9.81483 12.8033 9.93904 12.72 10.0769 12.72H11.7832V9.3075C11.7832 8.93144 12.0889 8.625 12.4657 8.625H14.5132C14.8899 8.625 15.1957 8.93144 15.1957 9.3075V12.72H16.9019C17.0398 12.72 17.1647 12.8033 17.2172 12.9309C17.2698 13.0585 17.2404 13.2053 17.1435 13.3029L13.731 16.7154C13.6641 16.7816 13.5768 16.815 13.4894 16.815ZM10.9007 13.4025L13.4894 15.9912L16.0781 13.4025H14.8544C14.666 13.4025 14.5132 13.2496 14.5132 13.0612V9.3075H12.4657V13.0612C12.4657 13.2496 12.3128 13.4025 12.1244 13.4025H10.9007Z" fill="#F15F42"/>
<path d="M8.71301 14.7655H2.57051C1.62934 14.7655 0.864258 13.9997 0.864258 13.0592V4.18672C0.864258 3.24623 1.62934 2.48047 2.57051 2.48047H15.538C16.4792 2.48047 17.2443 3.24623 17.2443 4.18672V11.0117C17.2443 11.2001 17.0914 11.353 16.903 11.353C16.7146 11.353 16.5618 11.2001 16.5618 11.0117V4.18672C16.5618 3.62229 16.1024 3.16297 15.538 3.16297H2.57051C2.00608 3.16297 1.54676 3.62229 1.54676 4.18672V13.0592C1.54676 13.6236 2.00608 14.083 2.57051 14.083H8.71301C8.90138 14.083 9.05426 14.2358 9.05426 14.4242C9.05426 14.6126 8.90138 14.7655 8.71301 14.7655Z" fill="white"/>
<path d="M5.98301 11.3545H1.20551C1.01714 11.3545 0.864258 11.2017 0.864258 11.0133V6.23578C0.864258 6.04741 1.01714 5.89453 1.20551 5.89453H5.98301C6.92418 5.89453 7.68926 6.6603 7.68926 7.60078V9.64828C7.68926 10.5888 6.92418 11.3545 5.98301 11.3545ZM1.54676 10.672H5.98301C6.54744 10.672 7.00676 10.2127 7.00676 9.64828V7.60078C7.00676 7.03635 6.54744 6.57703 5.98301 6.57703H1.54676V10.672Z" fill="white"/>
<path d="M4.27613 9.98781C3.52334 9.98781 2.91113 9.37561 2.91113 8.62281C2.91113 7.87001 3.52334 7.25781 4.27613 7.25781C5.02893 7.25781 5.64113 7.87001 5.64113 8.62281C5.64113 9.37561 5.02893 9.98781 4.27613 9.98781ZM4.27613 7.94031C3.89939 7.94031 3.59363 8.24676 3.59363 8.62281C3.59363 8.99887 3.89939 9.30531 4.27613 9.30531C4.65287 9.30531 4.95863 8.99887 4.95863 8.62281C4.95863 8.24676 4.65287 7.94031 4.27613 7.94031Z" fill="white"/>
</g>
<defs>
<clipPath id="clip0_349_18096">
<rect width="16.38" height="16.38" fill="white" transform="translate(0.864258 0.433594)"/>
</clipPath>
</defs>
</svg>
