<svg width="18" height="17" viewBox="0 0 18 17" fill="none" xmlns="http://www.w3.org/2000/svg">
<g clip-path="url(#clip0_349_18056)">
<path d="M14.3554 16.5002H12.3086C11.9326 16.5002 11.6263 16.1938 11.6263 15.8179V12.4064H9.92055C9.78273 12.4064 9.65787 12.3232 9.60533 12.1956C9.55211 12.068 9.58145 11.9213 9.67902 11.8237L13.0905 8.41229C13.2235 8.27924 13.4398 8.27924 13.5729 8.41229L16.9843 11.8237C17.0819 11.9213 17.1112 12.068 17.058 12.1956C17.0062 12.3232 16.8813 12.4064 16.7435 12.4064H15.0377V15.8179C15.0377 16.1938 14.7314 16.5002 14.3554 16.5002ZM10.7441 11.7241H11.9674C12.1557 11.7241 12.3086 11.877 12.3086 12.0653V15.8179H14.3554V12.0653C14.3554 11.877 14.5083 11.7241 14.6966 11.7241H15.9199L13.332 9.1362L10.7441 11.7241Z" fill="#45E658"/>
<path d="M9.91895 14.4531H2.41374C1.47354 14.4531 0.708008 13.6876 0.708008 12.7474V3.8776C0.708008 2.93741 1.47354 2.17188 2.41374 2.17188H15.3773C16.3175 2.17188 17.083 2.93741 17.083 3.8776V10.0182C17.083 10.2065 16.9302 10.3594 16.7419 10.3594C16.5535 10.3594 16.4007 10.2065 16.4007 10.0182V3.8776C16.4007 3.31335 15.9415 2.85417 15.3773 2.85417H2.41374C1.84948 2.85417 1.3903 3.31335 1.3903 3.8776V12.7474C1.3903 13.3117 1.84948 13.7708 2.41374 13.7708H9.91895C10.1073 13.7708 10.2601 13.9237 10.2601 14.112C10.2601 14.3003 10.1073 14.4531 9.91895 14.4531Z" fill="white"/>
<path d="M5.8252 11.0404H1.04915C0.860841 11.0404 0.708008 10.8875 0.708008 10.6992V5.92318C0.708008 5.73486 0.860841 5.58203 1.04915 5.58203H5.8252C6.76539 5.58203 7.53092 6.34756 7.53092 7.28776V9.33464C7.53092 10.2748 6.76539 11.0404 5.8252 11.0404ZM1.3903 10.3581H5.8252C6.38945 10.3581 6.84863 9.89889 6.84863 9.33464V7.28776C6.84863 6.72351 6.38945 6.26432 5.8252 6.26432H1.3903V10.3581Z" fill="white"/>
<path d="M4.11947 9.67839C3.3669 9.67839 2.75488 9.06637 2.75488 8.3138C2.75488 7.56123 3.3669 6.94922 4.11947 6.94922C4.87203 6.94922 5.48405 7.56123 5.48405 8.3138C5.48405 9.06637 4.87203 9.67839 4.11947 9.67839ZM4.11947 7.63151C3.74352 7.63151 3.43717 7.93786 3.43717 8.3138C3.43717 8.68974 3.74352 8.99609 4.11947 8.99609C4.49541 8.99609 4.80176 8.68974 4.80176 8.3138C4.80176 7.93786 4.49541 7.63151 4.11947 7.63151Z" fill="white"/>
</g>
<defs>
<clipPath id="clip0_349_18056">
<rect width="16.375" height="16.375" fill="white" transform="translate(0.708008 0.125)"/>
</clipPath>
</defs>
</svg>
