<svg width="22" height="22" viewBox="0 0 22 22" fill="none" xmlns="http://www.w3.org/2000/svg">
<g clip-path="url(#clip0_349_20905)">
<path d="M17.2329 8.04717C16.6309 8.04717 16.1362 7.55717 16.1362 6.9505C16.1362 6.81984 16.2389 6.71717 16.3696 6.71717C16.5002 6.71717 16.6029 6.81984 16.6029 6.9505C16.6029 7.29584 16.8829 7.5805 17.2329 7.5805C17.5829 7.5805 17.8629 7.3005 17.8629 6.9505C17.8629 6.6005 17.5829 6.3205 17.2329 6.3205C16.6309 6.3205 16.1362 5.8305 16.1362 5.22384C16.1362 4.61717 16.6309 4.13184 17.2329 4.13184C17.8349 4.13184 18.3296 4.62184 18.3296 5.2285C18.3296 5.35917 18.2269 5.46184 18.0962 5.46184C17.9656 5.46184 17.8629 5.35917 17.8629 5.2285C17.8629 4.88317 17.5829 4.5985 17.2329 4.5985C16.8829 4.5985 16.6029 4.8785 16.6029 5.2285C16.6029 5.5785 16.8829 5.8585 17.2329 5.8585C17.8349 5.8585 18.3296 6.3485 18.3296 6.95517C18.3296 7.56184 17.8349 8.04717 17.2329 8.04717Z" fill="white"/>
<path d="M17.2328 8.31775C17.1022 8.31775 16.9995 8.21508 16.9995 8.08442V4.09442C16.9995 3.96375 17.1022 3.86108 17.2328 3.86108C17.3635 3.86108 17.4662 3.96375 17.4662 4.09442V8.07975C17.4662 8.21042 17.3635 8.31775 17.2328 8.31775Z" fill="white"/>
<path d="M17.2329 9.33511C15.4409 9.33511 13.9849 7.87911 13.9849 6.08711C13.9849 4.29511 15.4409 2.83911 17.2329 2.83911C19.0249 2.83911 20.4809 4.29511 20.4809 6.08711C20.4809 7.87911 19.0249 9.33511 17.2329 9.33511ZM17.2329 3.31044C15.7022 3.31044 14.4515 4.55644 14.4515 6.09178C14.4515 7.62711 15.6975 8.87311 17.2329 8.87311C18.7682 8.87311 20.0142 7.62711 20.0142 6.09178C20.0142 4.55644 18.7635 3.31044 17.2329 3.31044Z" fill="white"/>
<path d="M17.2329 10.3524C14.8809 10.3524 12.9675 8.43911 12.9675 6.08711C12.9675 3.73511 14.8809 1.82178 17.2329 1.82178C19.5849 1.82178 21.4982 3.73511 21.4982 6.08711C21.4982 8.43911 19.5849 10.3524 17.2329 10.3524ZM17.2329 2.29311C15.1375 2.29311 13.4342 3.99644 13.4342 6.09178C13.4342 8.18711 15.1375 9.89044 17.2329 9.89044C19.3282 9.89044 21.0315 8.18711 21.0315 6.09178C21.0315 3.99644 19.3282 2.29311 17.2329 2.29311Z" fill="white"/>
<path d="M15.1376 20.6938H2.02425C1.38958 20.6938 0.871582 20.1758 0.871582 19.5411C0.871582 18.9064 1.38958 18.3884 2.02425 18.3884H13.9662C14.0969 18.3884 14.1996 18.4911 14.1996 18.6218C14.1996 18.7524 14.0969 18.8551 13.9662 18.8551H2.02425C1.64625 18.8551 1.33825 19.1631 1.33825 19.5411C1.33825 19.9191 1.64625 20.2271 2.02425 20.2271H15.1376C15.2682 20.2271 15.3709 20.3298 15.3709 20.4604C15.3709 20.5911 15.2636 20.6938 15.1376 20.6938Z" fill="white"/>
<path d="M13.9663 18.8551H1.99627C1.86561 18.8551 1.76294 18.7524 1.76294 18.6218V14.6038C1.76294 11.8644 3.99361 9.63843 6.72827 9.63843H10.8956C12.0483 9.63843 13.1776 10.0491 14.0689 10.7911C14.1669 10.8751 14.1809 11.0198 14.0969 11.1178C14.0129 11.2158 13.8683 11.2298 13.7703 11.1458C12.9629 10.4738 11.9409 10.1004 10.8956 10.1004H6.72827C4.24561 10.1004 2.22961 12.1211 2.22961 14.5991V18.3838H13.9663C14.0969 18.3838 14.1996 18.4864 14.1996 18.6171C14.1996 18.7478 14.0923 18.8551 13.9663 18.8551Z" fill="white"/>
<path d="M11.0588 10.1004C10.9281 10.1004 10.8255 9.99774 10.8255 9.86708C10.8255 9.73641 10.9281 9.63374 11.0588 9.63374C11.2641 9.63374 11.4321 9.46574 11.4321 9.26041C11.4321 9.05508 11.2641 8.88708 11.0588 8.88708C10.9281 8.88708 10.8255 8.78441 10.8255 8.65374C10.8255 8.52308 10.9281 8.42041 11.0588 8.42041C11.5208 8.42041 11.8988 8.79841 11.8988 9.26041C11.8988 9.72241 11.5208 10.1004 11.0588 10.1004ZM6.57413 10.1004C6.11213 10.1004 5.73413 9.72241 5.73413 9.26041C5.73413 8.79841 6.11213 8.42041 6.57413 8.42041C6.7048 8.42041 6.80746 8.52308 6.80746 8.65374C6.80746 8.78441 6.7048 8.88708 6.57413 8.88708C6.3688 8.88708 6.2008 9.05508 6.2008 9.26041C6.2008 9.46574 6.3688 9.63374 6.57413 9.63374C6.7048 9.63374 6.80746 9.73641 6.80746 9.86708C6.80746 9.99774 6.70013 10.1004 6.57413 10.1004Z" fill="white"/>
<path d="M11.0588 8.88703H6.57413C6.11213 8.88703 5.73413 8.50903 5.73413 8.04703C5.73413 7.58503 6.11213 7.20703 6.57413 7.20703H11.0588C11.5208 7.20703 11.8988 7.58503 11.8988 8.04703C11.8988 8.50903 11.5208 8.88703 11.0588 8.88703ZM6.57413 7.66903C6.3688 7.66903 6.2008 7.83703 6.2008 8.04237C6.2008 8.2477 6.3688 8.4157 6.57413 8.4157H11.0588C11.2641 8.4157 11.4321 8.2477 11.4321 8.04237C11.4321 7.83703 11.2641 7.66903 11.0588 7.66903H6.57413Z" fill="white"/>
<path d="M10.9749 7.66904C10.9515 7.66904 10.9329 7.66437 10.9095 7.65971C10.7882 7.62237 10.7135 7.49171 10.7509 7.37037L11.4742 4.93437C11.5162 4.79437 11.4835 4.64971 11.3809 4.51437C11.2129 4.29037 10.8862 4.13171 10.5922 4.13171H7.03621C6.74221 4.13171 6.41555 4.29037 6.24755 4.51437C6.14488 4.64971 6.11221 4.79437 6.15421 4.93437L6.87755 7.37037C6.91488 7.49171 6.84488 7.62237 6.71888 7.65971C6.59755 7.69704 6.46688 7.62704 6.42955 7.50104L5.71088 5.06971C5.62688 4.78971 5.68755 4.49104 5.87421 4.23904C6.13088 3.89371 6.59755 3.66504 7.03621 3.66504H10.5922C11.0309 3.66504 11.4975 3.89371 11.7542 4.23437C11.9455 4.49104 12.0015 4.78504 11.9175 5.06504L11.1942 7.50104C11.1662 7.60371 11.0729 7.66904 10.9749 7.66904Z" fill="white"/>
<path d="M8.08628 7.66913C7.96028 7.66913 7.85295 7.56646 7.85295 7.44046C7.83895 6.59113 7.21828 5.8818 7.20895 5.87246C7.12495 5.77446 7.13428 5.6298 7.22761 5.54113C7.32561 5.45713 7.47028 5.4618 7.55895 5.5598C7.58695 5.59246 8.30561 6.40913 8.31961 7.43113C8.31961 7.5618 8.21695 7.66913 8.08628 7.66913Z" fill="white"/>
<path d="M9.54681 7.66904C9.54214 7.66904 9.54214 7.66904 9.54681 7.66904C9.41614 7.66904 9.31348 7.56171 9.31348 7.43104C9.32748 6.40904 10.0415 5.59704 10.0741 5.55971C10.1581 5.46171 10.3075 5.45237 10.4055 5.54104C10.5035 5.62971 10.5128 5.77437 10.4241 5.87237C10.4195 5.87704 9.79414 6.59571 9.78014 7.44037C9.77548 7.56637 9.67281 7.66904 9.54681 7.66904Z" fill="white"/>
<path d="M8.81445 16.2884C8.18911 16.2884 7.67578 15.7798 7.67578 15.1498C7.67578 15.0191 7.77845 14.9164 7.90911 14.9164C8.03978 14.9164 8.14245 15.0191 8.14245 15.1498C8.14245 15.5184 8.44111 15.8218 8.81445 15.8218C9.18778 15.8218 9.48645 15.5184 9.48645 15.1498C9.48645 14.7811 9.18778 14.4778 8.81445 14.4778C8.18911 14.4778 7.67578 13.9691 7.67578 13.3391C7.67578 12.7091 8.18445 12.2004 8.81445 12.2004C9.44445 12.2004 9.95311 12.7091 9.95311 13.3391C9.95311 13.4698 9.85045 13.5724 9.71978 13.5724C9.58911 13.5724 9.48645 13.4698 9.48645 13.3391C9.48645 12.9704 9.18778 12.6671 8.81445 12.6671C8.44111 12.6671 8.14245 12.9704 8.14245 13.3391C8.14245 13.7078 8.44111 14.0111 8.81445 14.0111C9.43978 14.0111 9.95311 14.5198 9.95311 15.1498C9.95311 15.7798 9.44445 16.2884 8.81445 16.2884Z" fill="white"/>
<path d="M8.81439 16.5684C8.68372 16.5684 8.58105 16.4657 8.58105 16.3351V12.1537C8.58105 12.0231 8.68372 11.9204 8.81439 11.9204C8.94505 11.9204 9.04772 12.0231 9.04772 12.1537V16.3351C9.04772 16.4657 8.94505 16.5684 8.81439 16.5684Z" fill="white"/>
<path d="M8.81433 17.6418C6.94299 17.6418 5.41699 16.1205 5.41699 14.2491C5.41699 12.3778 6.93833 10.8518 8.81433 10.8518C10.6903 10.8518 12.2117 12.3731 12.2117 14.2491C12.2117 16.1251 10.6857 17.6418 8.81433 17.6418ZM8.81433 11.3185C7.19966 11.3185 5.88366 12.6345 5.88366 14.2445C5.88366 15.8545 7.19499 17.1705 8.81433 17.1705C10.4337 17.1705 11.745 15.8591 11.745 14.2445C11.745 12.6298 10.429 11.3185 8.81433 11.3185Z" fill="white"/>
<path d="M19.3282 20.6938H15.1376C14.2976 20.6938 13.6116 20.0078 13.6116 19.1678C13.6116 18.3278 14.2976 17.6418 15.1376 17.6418C15.2682 17.6418 15.3709 17.7445 15.3709 17.8752C15.3709 18.0058 15.2682 18.1085 15.1376 18.1085C14.5542 18.1085 14.0782 18.5845 14.0782 19.1678C14.0782 19.7512 14.5542 20.2272 15.1376 20.2272H19.3282C19.9116 20.2272 20.3876 19.7512 20.3876 19.1678C20.3876 18.5845 19.9116 18.1085 19.3282 18.1085C19.1976 18.1085 19.0949 18.0058 19.0949 17.8752C19.0949 17.7445 19.1976 17.6418 19.3282 17.6418C20.1682 17.6418 20.8542 18.3278 20.8542 19.1678C20.8542 20.0078 20.1729 20.6938 19.3282 20.6938Z" fill="white"/>
<path d="M19.3282 18.1084H15.1376C14.2976 18.1084 13.6116 17.4224 13.6116 16.5824C13.6116 15.7424 14.2976 15.0564 15.1376 15.0564H19.3282C20.1682 15.0564 20.8542 15.7424 20.8542 16.5824C20.8542 17.4224 20.1729 18.1084 19.3282 18.1084ZM15.1376 15.5231C14.5542 15.5231 14.0782 15.9991 14.0782 16.5824C14.0782 17.1657 14.5542 17.6417 15.1376 17.6417H19.3282C19.9116 17.6417 20.3876 17.1657 20.3876 16.5824C20.3876 15.9991 19.9116 15.5231 19.3282 15.5231H15.1376Z" fill="white"/>
<path d="M19.3282 15.5232C19.1976 15.5232 19.0949 15.4205 19.0949 15.2899C19.0949 15.1592 19.1976 15.0565 19.3282 15.0565C19.9116 15.0565 20.3876 14.5805 20.3876 13.9972C20.3876 13.4139 19.9116 12.9379 19.3282 12.9379C19.1976 12.9379 19.0949 12.8352 19.0949 12.7045C19.0949 12.5739 19.1976 12.4712 19.3282 12.4712C20.1682 12.4712 20.8542 13.1572 20.8542 13.9972C20.8542 14.8372 20.1729 15.5232 19.3282 15.5232ZM15.1376 15.5232C14.2976 15.5232 13.6116 14.8372 13.6116 13.9972C13.6116 13.1572 14.2976 12.4712 15.1376 12.4712C15.2682 12.4712 15.3709 12.5739 15.3709 12.7045C15.3709 12.8352 15.2682 12.9379 15.1376 12.9379C14.5542 12.9379 14.0782 13.4139 14.0782 13.9972C14.0782 14.5805 14.5542 15.0565 15.1376 15.0565C15.2682 15.0565 15.3709 15.1592 15.3709 15.2899C15.3709 15.4205 15.2636 15.5232 15.1376 15.5232Z" fill="white"/>
<path d="M19.3282 12.9377H15.1376C14.2976 12.9377 13.6116 12.2517 13.6116 11.4117C13.6116 10.5717 14.2976 9.88574 15.1376 9.88574H19.3282C20.1682 9.88574 20.8542 10.5717 20.8542 11.4117C20.8542 12.2517 20.1729 12.9377 19.3282 12.9377ZM15.1376 10.3524C14.5542 10.3524 14.0782 10.8284 14.0782 11.4117C14.0782 11.9951 14.5542 12.4711 15.1376 12.4711H19.3282C19.9116 12.4711 20.3876 11.9951 20.3876 11.4117C20.3876 10.8284 19.9116 10.3524 19.3282 10.3524H15.1376Z" fill="white"/>
</g>
<defs>
<clipPath id="clip0_349_20905">
<rect width="21" height="21" fill="white" transform="translate(0.670898 0.725098)"/>
</clipPath>
</defs>
</svg>
