<svg width="173" height="172" viewBox="0 0 173 172" fill="none" xmlns="http://www.w3.org/2000/svg">
<circle cx="86.5" cy="86" r="86" fill="#062215"/>
<path d="M86.5013 84.9765C93.2705 84.9765 98.7776 79.4694 98.7776 72.7002C98.7776 65.931 93.2705 60.4238 86.5013 60.4238C79.7321 60.4238 74.2249 65.931 74.2249 72.7002C74.2249 79.4694 79.7321 84.9765 86.5013 84.9765ZM86.5013 63.0605C91.8166 63.0605 96.1409 67.3849 96.1409 72.7002C96.1409 78.0155 91.8166 82.3398 86.5013 82.3398C81.186 82.3398 76.8617 78.0155 76.8617 72.7002C76.8617 67.3849 81.186 63.0605 86.5013 63.0605ZM70.9767 111.576H102.026C105.375 111.576 108.1 108.851 108.1 105.502V101.703C108.1 93.7961 101.667 87.3637 93.7606 87.3637H79.2421C71.3355 87.3637 64.9031 93.7961 64.9031 101.703V105.502C64.903 108.851 67.6277 111.576 70.9767 111.576ZM93.7606 90.0004C100.213 90.0004 105.463 95.25 105.463 101.703V105.502C105.463 107.398 103.921 108.939 102.026 108.939H70.9767C69.0816 108.939 67.5397 107.398 67.5397 105.502V101.703C67.5397 95.25 72.7893 90.0004 79.242 90.0004H93.7606Z" fill="#375146"/>
</svg>
