<svg width="481" height="296" viewBox="0 0 481 296" fill="none" xmlns="http://www.w3.org/2000/svg">
<g clip-path="url(#clip0_923_12336)">
<g opacity="0.08">
<path d="M240.489 480.545C108.159 480.545 0.4375 372.824 0.4375 240.493H50.5838C50.5838 345.429 136.018 430.399 240.489 430.399C317.566 430.399 385.356 384.896 414.608 316.177H357.497C331.96 355.644 288.314 379.788 240.489 379.788V329.642C274.849 329.642 305.494 310.605 320.352 279.96L327.317 266.031H481.006L473.577 297.14C447.575 404.861 351.926 480.545 240.489 480.545Z" fill="white"/>
<path d="M151.306 240.493H101.16C101.16 163.417 163.843 101.198 240.455 101.198C288.28 101.198 331.926 125.343 357.463 164.81H414.574C384.858 96.0907 317.068 50.5877 240.455 50.5877V0.441406C351.891 0.441406 447.541 76.1251 473.542 183.847L480.972 214.956H327.283L320.318 201.026C304.995 170.381 274.35 151.344 240.455 151.344C191.238 151.344 151.306 191.276 151.306 240.493Z" fill="white"/>
</g>
</g>
<defs>
<clipPath id="clip0_923_12336">
<rect width="481" height="296" fill="white"/>
</clipPath>
</defs>
</svg>
