<svg width="745" height="738" viewBox="0 0 745 738" fill="none" xmlns="http://www.w3.org/2000/svg">
<mask id="path-1-inside-1_653_9481" fill="white">
<path fill-rule="evenodd" clip-rule="evenodd" d="M156.187 368.996H233.921C233.921 293.341 295.82 231.961 372.114 231.961C424.656 231.961 472.16 261.224 495.912 308.33L506.709 329.741H744.949L733.432 281.922C693.126 116.337 544.856 0 372.114 0V77.0824C490.874 77.0824 595.959 147.028 642.023 252.659H553.493C513.906 191.992 446.249 154.879 372.114 154.879C253.354 154.879 156.187 250.518 156.187 368.996ZM0 369.004C0 572.416 166.984 738 372.115 738C544.857 738 693.127 621.663 733.433 456.078L744.949 408.259H506.709L495.913 429.671C472.881 476.777 425.377 506.039 372.115 506.039V583.122C446.25 583.122 513.907 546.008 553.494 485.341H642.024C596.679 590.973 491.594 660.918 372.115 660.918C210.169 660.918 77.7338 530.306 77.7338 369.004H0Z"/>
</mask>
<path fill-rule="evenodd" clip-rule="evenodd" d="M156.187 368.996H233.921C233.921 293.341 295.82 231.961 372.114 231.961C424.656 231.961 472.16 261.224 495.912 308.33L506.709 329.741H744.949L733.432 281.922C693.126 116.337 544.856 0 372.114 0V77.0824C490.874 77.0824 595.959 147.028 642.023 252.659H553.493C513.906 191.992 446.249 154.879 372.114 154.879C253.354 154.879 156.187 250.518 156.187 368.996ZM0 369.004C0 572.416 166.984 738 372.115 738C544.857 738 693.127 621.663 733.433 456.078L744.949 408.259H506.709L495.913 429.671C472.881 476.777 425.377 506.039 372.115 506.039V583.122C446.25 583.122 513.907 546.008 553.494 485.341H642.024C596.679 590.973 491.594 660.918 372.115 660.918C210.169 660.918 77.7338 530.306 77.7338 369.004H0Z" fill="#070707" fill-opacity="0.45"/>
<path d="M233.921 368.996V370.018H234.942V368.996H233.921ZM156.187 368.996H155.165V370.018H156.187V368.996ZM495.912 308.33L496.825 307.869L496.825 307.869L495.912 308.33ZM506.709 329.741L505.796 330.201L506.08 330.763H506.709V329.741ZM744.949 329.741V330.763H746.246L745.942 329.502L744.949 329.741ZM733.432 281.922L734.426 281.682L734.425 281.68L733.432 281.922ZM372.114 0V-1.02188H371.092V0H372.114ZM372.114 77.0824H371.092V78.1043H372.114V77.0824ZM642.023 252.659V253.681H643.584L642.96 252.25L642.023 252.659ZM553.493 252.659L552.637 253.217L552.94 253.681H553.493V252.659ZM0 369.004V367.982H-1.02188V369.004H0ZM733.433 456.078L734.426 456.32L734.426 456.318L733.433 456.078ZM744.949 408.259L745.943 408.498L746.246 407.237H744.949V408.259ZM506.709 408.259V407.237H506.08L505.797 407.799L506.709 408.259ZM495.913 429.671L495 429.21L494.995 429.222L495.913 429.671ZM372.115 506.039V505.017H371.093V506.039H372.115ZM372.115 583.122H371.093V584.144H372.115V583.122ZM553.494 485.341V484.319H552.94L552.638 484.783L553.494 485.341ZM642.024 485.341L642.963 485.744L643.574 484.319H642.024V485.341ZM77.7338 369.004H78.7557V367.982H77.7338V369.004ZM233.921 367.974H156.187V370.018H233.921V367.974ZM372.114 230.939C295.264 230.939 232.899 292.769 232.899 368.996H234.942C234.942 293.914 296.376 232.983 372.114 232.983V230.939ZM496.825 307.869C472.9 260.42 425.043 230.939 372.114 230.939V232.983C424.269 232.983 471.421 262.027 495 308.79L496.825 307.869ZM507.621 329.281L496.825 307.869L495 308.79L505.796 330.201L507.621 329.281ZM744.949 328.719H506.709V330.763H744.949V328.719ZM732.439 282.161L743.955 329.981L745.942 329.502L734.426 281.682L732.439 282.161ZM372.114 1.02188C544.389 1.02188 692.246 117.041 732.439 282.163L734.425 281.68C694.006 115.633 545.323 -1.02188 372.114 -1.02188V1.02188ZM373.136 77.0824V0H371.092V77.0824H373.136ZM642.96 252.25C596.733 146.246 491.28 76.0605 372.114 76.0605V78.1043C490.468 78.1043 595.185 147.809 641.087 253.067L642.96 252.25ZM553.493 253.681H642.023V251.637H553.493V253.681ZM372.114 155.9C445.904 155.9 513.239 192.84 552.637 253.217L554.349 252.101C514.574 191.145 446.595 153.857 372.114 153.857V155.9ZM157.209 368.996C157.209 251.092 253.908 155.9 372.114 155.9V153.857C252.8 153.857 155.165 249.943 155.165 368.996H157.209ZM372.115 736.978C167.54 736.978 1.02188 571.843 1.02188 369.004H-1.02188C-1.02188 572.988 166.428 739.022 372.115 739.022V736.978ZM732.44 455.837C692.246 620.959 544.39 736.978 372.115 736.978V739.022C545.323 739.022 694.007 622.367 734.426 456.32L732.44 455.837ZM743.956 408.02L732.44 455.839L734.426 456.318L745.943 408.498L743.956 408.02ZM506.709 409.281H744.949V407.237H506.709V409.281ZM496.825 430.131L507.622 408.719L505.797 407.799L495.001 429.211L496.825 430.131ZM372.115 507.061C425.758 507.061 473.624 477.584 496.831 430.119L494.995 429.222C472.138 475.969 424.995 505.017 372.115 505.017V507.061ZM373.137 583.122V506.039H371.093V583.122H373.137ZM552.638 484.783C513.24 545.161 445.904 582.1 372.115 582.1V584.144C446.595 584.144 514.574 546.855 554.349 485.9L552.638 484.783ZM642.024 484.319H553.494V486.363H642.024V484.319ZM372.115 661.94C491.998 661.94 597.455 591.756 642.963 485.744L641.085 484.938C595.903 590.19 491.191 659.896 372.115 659.896V661.94ZM76.7119 369.004C76.7119 530.88 209.615 661.94 372.115 661.94V659.896C210.724 659.896 78.7557 529.732 78.7557 369.004H76.7119ZM0 370.026H77.7338V367.982H0V370.026Z" fill="#212224" mask="url(#path-1-inside-1_653_9481)"/>
</svg>
