<svg width="220" height="54" viewBox="0 0 220 54" fill="none" xmlns="http://www.w3.org/2000/svg">
<g clip-path="url(#clip0_204_164)">
<path d="M26.6773 53.3546C11.9712 53.3546 -3.05176e-05 41.3834 -3.05176e-05 26.6773H5.5728C5.5728 38.339 15.0672 47.7818 26.6773 47.7818C35.2429 47.7818 42.7766 42.725 46.0274 35.0881H39.6806C36.8425 39.4742 31.9921 42.1574 26.6773 42.1574V36.5846C30.4957 36.5846 33.9013 34.4689 35.5525 31.0633L36.3265 29.5153H53.4062L52.5806 32.9725C49.691 44.9438 39.0614 53.3546 26.6773 53.3546Z" fill="url(#paint0_linear_204_164)"/>
<path d="M16.77 26.6773H11.1971C11.1971 18.1117 18.1632 11.1973 26.6772 11.1973C31.992 11.1973 36.8425 13.8805 39.6805 18.2665H46.0273C42.7249 10.6297 35.1913 5.57283 26.6772 5.57283V0C39.0613 0 49.6909 8.41084 52.5805 20.3821L53.4062 23.8393H36.3265L35.5525 22.2913C33.8497 18.8857 30.444 16.7701 26.6772 16.7701C21.2076 16.7701 16.77 21.2077 16.77 26.6773Z" fill="url(#paint1_linear_204_164)"/>
<path d="M89.5264 25.0262C87.8752 26.9354 85.8628 27.9158 83.4376 27.9158C81.9412 27.9158 80.5996 27.6062 79.4127 26.9354C78.2259 26.2646 77.2971 25.3358 76.6779 24.2005C76.0071 23.0137 75.6975 21.6721 75.6975 20.1757C75.6975 18.6793 76.0071 17.3377 76.6779 16.1509C77.3487 14.9641 78.2775 14.0353 79.4127 13.4161C80.5996 12.7453 81.9412 12.4357 83.4376 12.4357C85.8628 12.4357 87.9268 13.4161 89.5264 15.2737L89.6812 15.4801L93.7576 11.7133L93.6028 11.5069C92.3644 10.0621 90.868 8.92687 89.062 8.15287C87.3076 7.37887 85.2436 6.96606 83.0764 6.96606C80.4448 6.96606 78.0711 7.53367 76.0071 8.66887C73.8915 9.80408 72.2403 11.4037 71.0535 13.3645C69.8667 15.3769 69.2475 17.6473 69.2475 20.1757C69.2475 22.7041 69.8667 24.9746 71.0535 26.987C72.2403 28.9994 73.9431 30.5474 76.0071 31.6826C78.1227 32.8178 80.4448 33.3854 83.0764 33.3854C85.2952 33.3854 87.3076 32.9726 89.062 32.1986C90.868 31.4246 92.3644 30.2894 93.6028 28.793L93.7576 28.5866L89.6812 24.8197L89.5264 25.0262Z" fill="white"/>
<path d="M115.378 8.66887C113.263 7.53367 110.889 6.96606 108.257 6.96606C105.626 6.96606 103.201 7.53367 101.085 8.66887C98.9693 9.80408 97.2665 11.4037 96.0797 13.4161C94.8929 15.4285 94.2737 17.6989 94.2737 20.1757C94.2737 22.6525 94.8929 24.923 96.0797 26.9354C97.2665 28.9478 98.9693 30.5474 101.085 31.6826C103.201 32.8178 105.626 33.3854 108.257 33.3854C110.889 33.3854 113.314 32.8178 115.378 31.6826C117.494 30.5474 119.145 28.9478 120.383 26.9354C121.57 24.923 122.189 22.6525 122.189 20.1757C122.189 17.6989 121.57 15.4285 120.383 13.4161C119.145 11.4037 117.494 9.80408 115.378 8.66887ZM115.843 20.1757C115.843 21.6721 115.533 23.0137 114.862 24.2005C114.191 25.3874 113.314 26.3162 112.127 26.9354C110.992 27.6062 109.651 27.9158 108.257 27.9158C106.813 27.9158 105.523 27.6062 104.387 26.9354C103.252 26.2646 102.323 25.3358 101.653 24.2005C100.982 23.0137 100.672 21.6721 100.672 20.1757C100.672 18.6793 100.982 17.3377 101.653 16.1509C102.323 14.9641 103.201 14.0353 104.387 13.4161C105.523 12.7453 106.864 12.4357 108.257 12.4357C109.702 12.4357 110.992 12.7453 112.127 13.4161C113.263 14.0869 114.191 15.0157 114.862 16.1509C115.481 17.2861 115.843 18.6793 115.843 20.1757Z" fill="white"/>
<path d="M145.1 21.6721C146.029 20.2789 146.493 18.6277 146.493 16.7185C146.493 14.8093 146.029 13.1581 145.151 11.7649C144.223 10.3717 142.933 9.28805 141.281 8.51405C139.63 7.74005 137.618 7.37885 135.399 7.37885H124.305V32.9726H130.549V25.9549H135.502L140.353 32.921H147.215L141.488 24.7165C142.984 23.9941 144.223 22.9621 145.1 21.6721ZM140.095 16.7185C140.095 18.0085 139.682 19.0405 138.805 19.7629C137.927 20.4853 136.689 20.8465 134.986 20.8465H130.549V12.5905H135.038C136.689 12.5905 137.979 12.9517 138.856 13.6741C139.63 14.3965 140.095 15.3769 140.095 16.7185Z" fill="white"/>
<path d="M147.319 12.5905H155.368V32.921H161.664V12.5905H169.662V7.37885H147.319V12.5905Z" fill="white"/>
<path d="M192.314 32.921V27.761H178.692V22.4977H190.302V17.4409H172.397V32.921H192.314Z" fill="white"/>
<path d="M192.314 7.37885H172.396V12.5389H192.314V7.37885Z" fill="url(#paint2_linear_204_164)"/>
<path d="M209.858 19.7113L218.785 7.37885H211.871L206.349 15.3253L200.725 7.37885H193.501L202.531 19.9177L193.036 32.921H200.364L206.143 24.4585L212.077 32.921H219.404L209.858 19.7113Z" fill="white"/>
<path d="M76.9877 38.7001L73.4272 46.5434H74.8205L75.6461 44.6342H79.5161L80.3417 46.5434H81.7865L78.2261 38.7001H76.9877ZM79.0001 43.5506H76.1105L77.5553 40.2997L79.0001 43.5506Z" fill="white"/>
<path d="M85.2952 38.7002H83.9536V46.5434H85.2952V38.7002Z" fill="white"/>
<path d="M91.9516 39.9386H94.5316V46.5434H95.8732V39.9386H98.4532V38.7002H91.9516V39.9386Z" fill="white"/>
<path d="M106.709 43.0345C107.019 42.6217 107.174 42.0541 107.174 41.4865C107.174 40.6093 106.864 39.9385 106.297 39.4741C105.729 39.0097 104.903 38.7517 103.923 38.7517H100.827V46.5949H102.169V44.2729H103.923C104.026 44.2729 104.181 44.2729 104.336 44.2729L105.987 46.5949H107.483L105.626 43.9633C106.039 43.7569 106.451 43.4473 106.709 43.0345ZM105.832 41.4865C105.832 42.0025 105.677 42.3637 105.316 42.6733C105.007 42.9313 104.491 43.0861 103.82 43.0861H102.117V39.9385H103.82C104.491 39.9385 104.955 40.0933 105.316 40.3513C105.677 40.6093 105.832 40.9705 105.832 41.4865Z" fill="white"/>
<path d="M113.624 38.7002H112.385L108.928 46.337L108.825 46.5434H110.218L111.044 44.6342H114.914L115.739 46.5434H117.184L113.675 38.8034L113.624 38.7002ZM114.449 43.5506H111.56L113.005 40.2998L114.449 43.5506Z" fill="white"/>
<path d="M124.873 39.2162C124.254 38.9066 123.48 38.7002 122.705 38.7002H119.403V46.5434H122.705C123.531 46.5434 124.254 46.3886 124.873 46.079C125.492 45.7694 126.008 45.305 126.369 44.6858C126.73 44.1182 126.885 43.3958 126.885 42.6218C126.885 41.8478 126.73 41.177 126.369 40.5578C126.008 39.9902 125.544 39.5258 124.873 39.2162ZM125.595 42.6218C125.595 43.1378 125.492 43.6538 125.234 44.0666C124.976 44.4794 124.666 44.789 124.202 44.9954C123.737 45.2018 123.221 45.3566 122.654 45.3566H120.745V39.9386H122.654C123.221 39.9386 123.789 40.0418 124.202 40.2998C124.666 40.5062 124.976 40.8674 125.234 41.2286C125.44 41.6414 125.595 42.1058 125.595 42.6218Z" fill="white"/>
<path d="M131.065 38.7002H129.723V46.5434H131.065V38.7002Z" fill="white"/>
<path d="M139.888 44.1182L135.606 38.7518L135.554 38.7002H134.47V46.5434H135.812V41.1254L140.095 46.4918L140.146 46.5434H141.23V38.7002H139.888V44.1182Z" fill="white"/>
<path d="M149.899 44.9954C149.434 45.305 148.867 45.4082 148.248 45.4082C147.68 45.4082 147.216 45.305 146.751 45.047C146.338 44.789 145.977 44.4794 145.719 44.0666C145.461 43.6538 145.358 43.1894 145.358 42.6218C145.358 42.1058 145.461 41.5898 145.719 41.177C145.977 40.7642 146.287 40.403 146.751 40.1966C147.164 39.9386 147.68 39.8354 148.248 39.8354C149.073 39.8354 149.796 40.0934 150.363 40.661L150.466 40.7642L151.292 39.9386L151.189 39.8354C150.828 39.4226 150.415 39.113 149.899 38.9066C149.383 38.7002 148.815 38.597 148.196 38.597C147.422 38.597 146.7 38.7518 146.029 39.113C145.41 39.4742 144.894 39.9386 144.532 40.5578C144.171 41.177 143.965 41.8478 143.965 42.6218C143.965 43.3958 144.171 44.0666 144.532 44.6858C144.894 45.305 145.41 45.7694 146.029 46.1306C146.648 46.4918 147.37 46.6466 148.144 46.6466C148.712 46.6466 149.228 46.5434 149.744 46.3886C150.26 46.2338 150.724 45.9758 151.086 45.6662L151.137 45.6146V42.467H149.847V44.9954H149.899Z" fill="white"/>
</g>
<defs>
<linearGradient id="paint0_linear_204_164" x1="8.57036" y1="47.4469" x2="46.0942" y2="17.8228" gradientUnits="userSpaceOnUse">
<stop stop-color="#2CF074"/>
<stop offset="1" stop-color="#2BF3C3"/>
</linearGradient>
<linearGradient id="paint1_linear_204_164" x1="3.38027" y1="40.8729" x2="40.9041" y2="11.2488" gradientUnits="userSpaceOnUse">
<stop stop-color="#2CF074"/>
<stop offset="1" stop-color="#2BF3C3"/>
</linearGradient>
<linearGradient id="paint2_linear_204_164" x1="172.4" y1="9.95313" x2="192.316" y2="9.95313" gradientUnits="userSpaceOnUse">
<stop stop-color="#2CF074"/>
<stop offset="1" stop-color="#2BF3C3"/>
</linearGradient>
<clipPath id="clip0_204_164">
<rect width="219.404" height="53.3547" fill="white"/>
</clipPath>
</defs>
</svg>
