<svg width="23" height="23" viewBox="0 0 23 23" fill="none" xmlns="http://www.w3.org/2000/svg">
<g clip-path="url(#clip0_821_5024)">
<path d="M11.5545 11.9454C12.4323 11.9454 13.1465 11.2312 13.1465 10.3536C13.1465 9.47574 12.4323 8.76172 11.5545 8.76172C10.6767 8.76172 9.96265 9.47574 9.96265 10.3536C9.96265 11.2312 10.6767 11.9454 11.5545 11.9454ZM11.5545 9.40625C12.077 9.40625 12.502 9.83123 12.502 10.3536C12.502 10.8759 12.077 11.3009 11.5545 11.3009C11.0322 11.3009 10.607 10.8759 10.607 10.3536C10.607 9.83123 11.032 9.40625 11.5545 9.40625Z" fill="white"/>
<path d="M18.0122 3.04844C18.0122 3.7022 18.5441 4.23411 19.198 4.23411C19.8518 4.23411 20.3839 3.7022 20.3839 3.04844C20.3839 2.39451 19.8518 1.86261 19.198 1.86261C18.5441 1.86261 18.0122 2.39451 18.0122 3.04844ZM19.7393 3.04844C19.7393 3.34687 19.4965 3.58958 19.198 3.58958C18.8996 3.58958 18.6567 3.34687 18.6567 3.04844C18.6567 2.75001 18.8996 2.50714 19.198 2.50714C19.4965 2.50714 19.7393 2.74984 19.7393 3.04844Z" fill="white"/>
<path d="M3.91069 4.23411C4.56461 4.23411 5.09652 3.7022 5.09652 3.04844C5.09652 2.39451 4.56461 1.86261 3.91069 1.86261C3.25693 1.86261 2.72485 2.39451 2.72485 3.04827C2.72485 3.7022 3.25693 4.23411 3.91069 4.23411ZM3.91069 2.50714C4.20912 2.50714 4.45199 2.74984 4.45199 3.04827C4.45199 3.3467 4.20912 3.58958 3.91069 3.58958C3.61226 3.58958 3.36938 3.3467 3.36938 3.04827C3.36938 2.74984 3.61226 2.50714 3.91069 2.50714Z" fill="white"/>
<path d="M19.1981 15.697C18.3758 15.697 17.6222 15.9947 17.0381 16.4872L15.1403 14.5717C15.885 13.7281 16.3377 12.621 16.3377 11.41C16.3377 10.2151 15.8972 9.12109 15.1701 8.28203L17.0925 6.37781C17.6687 6.84342 18.4012 7.12305 19.1981 7.12305C20.4942 7.12305 21.6876 6.36455 22.2383 5.19064C22.3138 5.02951 22.2445 4.83766 22.0834 4.76196C21.9222 4.68643 21.7304 4.75575 21.6547 4.91688C21.4429 5.36872 21.1129 5.7442 20.7124 6.01376C20.5419 5.09363 19.9376 4.43147 19.1981 4.43147C18.4582 4.43147 17.8538 5.0943 17.6836 6.0151C16.9619 5.52751 16.4864 4.7017 16.4864 3.76697C16.4864 2.2718 17.7029 1.05542 19.1981 1.05542C20.6934 1.05542 21.91 2.2718 21.91 3.76697C21.91 3.94489 22.0542 4.08923 22.2323 4.08923C22.4102 4.08923 22.5545 3.94489 22.5545 3.76697C22.5545 1.91647 21.0488 0.410889 19.1981 0.410889C17.3476 0.410889 15.8419 1.91647 15.8419 3.76697C15.8419 4.58908 16.1395 5.34254 16.6321 5.92681L14.7165 7.82431C13.8729 7.07958 12.7656 6.62707 11.5544 6.62707C10.5713 6.62707 9.62686 6.92298 8.82304 7.48308C8.68407 7.57976 8.55147 7.68349 8.42474 7.79292L6.52187 5.87209C6.98748 5.29588 7.26694 4.56357 7.26694 3.76697C7.26694 1.91647 5.76136 0.410889 3.91069 0.410889C2.06002 0.410889 0.554443 1.91647 0.554443 3.76697C0.554443 5.61747 2.06002 7.12288 3.91069 7.12288C4.73297 7.12288 5.4866 6.82529 6.07087 6.33266L7.96669 8.24644C7.59592 8.66606 7.30018 9.14862 7.09456 9.67767C7.03011 9.8435 7.11219 10.0303 7.27819 10.0948C7.44402 10.1592 7.63083 10.0771 7.69528 9.91114C7.9061 9.36883 8.22601 8.88275 8.63455 8.4769C8.6369 8.47455 8.63959 8.47253 8.64194 8.47018C8.64378 8.4685 8.64529 8.46649 8.64714 8.46464C8.81431 8.29982 8.99592 8.14809 9.1913 8.01196C9.88651 7.52756 10.7038 7.2716 11.5544 7.2716C13.8366 7.2716 15.6933 9.12814 15.6933 11.41C15.6933 12.9213 14.8789 14.2458 13.6659 14.9682C13.5924 14.3992 13.4012 13.8731 13.109 13.4505C12.7026 12.8625 12.1506 12.5388 11.5544 12.5388C10.9584 12.5388 10.4063 12.8625 9.99998 13.4505C9.70776 13.8731 9.51658 14.3992 9.44307 14.9682C8.23004 14.2458 7.41565 12.9213 7.41565 11.41C7.41565 11.2321 7.27131 11.0877 7.09339 11.0877C6.91547 11.0877 6.77112 11.2321 6.77112 11.41C6.77112 12.6049 7.21155 13.6989 7.93866 14.5382L6.01632 16.4424C5.44011 15.9768 4.70763 15.6971 3.91086 15.6971C2.06002 15.697 0.554443 17.2025 0.554443 19.053C0.554443 19.231 0.698791 19.3753 0.876708 19.3753C1.05462 19.3753 1.19897 19.231 1.19897 19.053C1.19897 17.5579 2.41535 16.3415 3.91069 16.3415C5.40603 16.3415 6.62241 17.5579 6.62241 19.053C6.62241 19.9878 6.14707 20.8136 5.42517 21.3013C5.25497 20.3805 4.65056 19.7175 3.91069 19.7175C3.17099 19.7175 2.56675 20.3802 2.39639 21.3008C1.98684 21.0251 1.65148 20.6385 1.43966 20.1719C1.36615 20.0098 1.17531 19.9381 1.01317 20.0116C0.851027 20.0851 0.779357 20.276 0.852874 20.4381C1.39602 21.6355 2.59629 22.4091 3.91069 22.4091C5.76136 22.4091 7.26694 20.9035 7.26694 19.053C7.26694 18.2309 6.96935 17.4775 6.47689 16.8932L8.39252 14.9957C9.23611 15.7404 10.3432 16.1929 11.5544 16.1929C12.7495 16.1929 13.8435 15.7525 14.6827 15.0256L16.5871 16.9478C16.1215 17.524 15.8419 18.2563 15.8419 19.053C15.8419 20.9035 17.3474 22.4091 19.1981 22.4091C21.0488 22.4091 22.5544 20.9035 22.5544 19.053C22.5544 17.2025 21.0488 15.697 19.1981 15.697ZM1.19897 3.76697C1.19897 2.2718 2.41535 1.05542 3.91069 1.05542C5.40603 1.05542 6.62241 2.2718 6.62241 3.76697C6.62241 4.48115 6.34446 5.13122 5.89161 5.61596C5.87634 5.6267 5.86173 5.63845 5.84814 5.65205C5.83219 5.66799 5.81826 5.68528 5.80651 5.70324C5.68919 5.81822 5.56179 5.92295 5.42517 6.0151C5.25497 5.09446 4.65056 4.43147 3.91069 4.43147C3.17083 4.43147 2.56641 5.0943 2.39622 6.0151C1.67448 5.52751 1.19897 4.7017 1.19897 3.76697ZM3.00399 6.32209C3.07415 5.62687 3.46087 5.076 3.91069 5.076C4.36052 5.076 4.74724 5.62687 4.8174 6.32209C4.53374 6.42297 4.22859 6.47852 3.91069 6.47852C3.59279 6.47852 3.28782 6.42297 3.00399 6.32209ZM19.1981 5.076C19.6476 5.076 20.0341 5.6262 20.1046 6.32075C19.8176 6.42313 19.5116 6.47852 19.1981 6.47852C18.8802 6.47852 18.5751 6.42297 18.2914 6.32209C18.3616 5.62687 18.7483 5.076 19.1981 5.076ZM3.00416 21.6075C3.07448 20.9126 3.46103 20.3621 3.91069 20.3621C4.36052 20.3621 4.74724 20.9129 4.8174 21.6082C4.53374 21.709 4.22859 21.7646 3.91069 21.7646C3.59665 21.7646 3.29084 21.7095 3.00416 21.6075ZM10.0607 15.2695C10.1383 14.1172 10.7907 13.1831 11.5544 13.1831C12.3181 13.1831 12.9707 14.1172 13.0481 15.2695C12.5845 15.4496 12.0809 15.5484 11.5544 15.5484C11.028 15.5484 10.5243 15.4496 10.0607 15.2695ZM18.2914 21.6082C18.3616 20.9129 18.7483 20.3621 19.1981 20.3621C19.6479 20.3621 20.0347 20.9129 20.1048 21.6082C19.821 21.709 19.516 21.7646 19.1981 21.7646C18.8802 21.7646 18.5751 21.7092 18.2914 21.6082ZM20.7126 21.3013C20.5424 20.3805 19.938 19.7175 19.1981 19.7175C18.4582 19.7175 17.8538 20.3805 17.6836 21.3013C16.9617 20.8136 16.4864 19.9878 16.4864 19.053C16.4864 17.5579 17.7028 16.3415 19.1981 16.3415C20.6934 16.3415 21.91 17.5579 21.91 19.053C21.9098 19.9878 21.4343 20.8136 20.7126 21.3013Z" fill="white"/>
<path d="M19.198 17.1487C18.5441 17.1487 18.0122 17.6806 18.0122 18.3345C18.0122 18.9883 18.5441 19.5202 19.198 19.5202C19.8518 19.5202 20.3839 18.9883 20.3839 18.3345C20.3839 17.6806 19.8518 17.1487 19.198 17.1487ZM19.198 18.8756C18.8996 18.8756 18.6567 18.6329 18.6567 18.3345C18.6567 18.0359 18.8996 17.7932 19.198 17.7932C19.4965 17.7932 19.7393 18.0359 19.7393 18.3345C19.7393 18.6329 19.4965 18.8756 19.198 18.8756Z" fill="white"/>
<path d="M3.91069 19.5202C4.56461 19.5202 5.09652 18.9883 5.09652 18.3345C5.09652 17.6806 4.56461 17.1487 3.91069 17.1487C3.25693 17.1487 2.72485 17.6806 2.72485 18.3345C2.72485 18.9883 3.25693 19.5202 3.91069 19.5202ZM3.91069 17.7932C4.20912 17.7932 4.45199 18.0361 4.45199 18.3345C4.45199 18.6329 4.20912 18.8758 3.91069 18.8758C3.61226 18.8758 3.36938 18.6329 3.36938 18.3345C3.36938 18.0361 3.61226 17.7932 3.91069 17.7932Z" fill="white"/>
<path d="M3.68083 8.98865H3.31794C3.23318 8.98865 3.19088 9.03094 3.19088 9.11554V9.5934H3.14859C2.83807 9.5934 2.59704 9.679 2.42567 9.85037C2.2543 10.0219 2.1687 10.2668 2.1687 10.5852V10.8089C2.1687 11.2324 2.28149 11.5166 2.50741 11.6618C2.61618 11.7344 2.72293 11.7858 2.82783 11.816C2.93257 11.8462 3.09102 11.8716 3.30267 11.8917C3.51432 11.9119 3.65649 11.93 3.72917 11.9461C3.80973 11.9662 3.88039 12.0045 3.94082 12.0609C4.00124 12.1175 4.03146 12.196 4.03146 12.2969V12.3875C4.03146 12.5529 4.00024 12.6658 3.9378 12.7262C3.87519 12.7867 3.76542 12.817 3.60815 12.817H3.36611C3.20481 12.817 3.09404 12.7888 3.03361 12.7323C2.97302 12.6759 2.94281 12.5712 2.94281 12.4177V12.3754C2.94281 12.2909 2.90051 12.2484 2.81575 12.2484H2.3018C2.21704 12.2484 2.17474 12.2909 2.17474 12.3754V12.4904C2.17474 12.8009 2.26035 13.0438 2.43188 13.2192C2.60309 13.3944 2.8421 13.4822 3.14859 13.4822H3.19088V13.948C3.19088 14.0326 3.23318 14.0749 3.31794 14.0749H3.68083C3.76559 14.0749 3.80789 14.0326 3.80789 13.948V13.4822H3.81997C4.12243 13.4822 4.36144 13.3956 4.53667 13.2222C4.71224 13.0488 4.79986 12.8048 4.79986 12.4903V12.2605C4.79986 11.8654 4.69294 11.5913 4.47927 11.4379C4.37453 11.3653 4.26862 11.312 4.16187 11.2777C4.05495 11.2435 3.89567 11.2171 3.68402 11.199C3.47219 11.1809 3.32197 11.1638 3.23335 11.1477C3.15664 11.1315 3.08816 11.0983 3.02757 11.0478C2.96714 10.9974 2.93693 10.9279 2.93693 10.8391V10.7183C2.93693 10.5369 2.96614 10.415 3.02472 10.3524C3.08313 10.29 3.19491 10.2586 3.36041 10.2586H3.55393C3.71926 10.2586 3.83122 10.2869 3.88963 10.3433C3.94804 10.3997 3.97724 10.5046 3.97724 10.6579V10.7002C3.97724 10.7848 4.01971 10.8271 4.1043 10.8271H4.61841C4.70318 10.8271 4.74547 10.7848 4.74547 10.7002V10.5852C4.74547 10.2789 4.66289 10.037 4.49756 9.85943C4.33207 9.68219 4.10632 9.5934 3.82014 9.5934H3.80805V9.11554C3.80789 9.03094 3.76559 8.98865 3.68083 8.98865Z" fill="white"/>
<path d="M19.3852 14.0749H19.748C19.8328 14.0749 19.8751 14.0326 19.8751 13.948V13.4822H19.8872C20.1896 13.4822 20.4287 13.3956 20.6041 13.2222C20.7795 13.0488 20.8671 12.8048 20.8671 12.4903V12.2605C20.8671 11.8654 20.7602 11.5913 20.5467 11.4379C20.4417 11.3653 20.3358 11.312 20.2291 11.2777C20.1222 11.2435 19.9629 11.2171 19.7512 11.199C19.5394 11.1809 19.3892 11.1638 19.3006 11.1477C19.224 11.1315 19.1554 11.0983 19.095 11.0478C19.0345 10.9974 19.0041 10.9279 19.0041 10.8391V10.7183C19.0041 10.5369 19.0335 10.415 19.0919 10.3524C19.1503 10.29 19.2623 10.2586 19.4276 10.2586H19.6211C19.7865 10.2586 19.8984 10.2869 19.9568 10.3433C20.0153 10.3997 20.0446 10.5046 20.0446 10.6579V10.7002C20.0446 10.7848 20.0869 10.8271 20.1717 10.8271H20.6858C20.7704 10.8271 20.8129 10.7848 20.8129 10.7002V10.5852C20.8129 10.2789 20.7301 10.037 20.5648 9.85943C20.3995 9.68219 20.1735 9.5934 19.8874 9.5934H19.8753V9.11554C19.8753 9.03094 19.833 8.98865 19.7482 8.98865H19.3853C19.3006 8.98865 19.2583 9.03094 19.2583 9.11554V9.5934H19.216C18.9055 9.5934 18.6644 9.679 18.4931 9.85037C18.3217 10.0219 18.2361 10.2668 18.2361 10.5852V10.8089C18.2361 11.2324 18.3489 11.5166 18.5748 11.6618C18.6836 11.7344 18.7903 11.7858 18.8954 11.816C19.0001 11.8462 19.1584 11.8716 19.3701 11.8917C19.5819 11.9119 19.7239 11.93 19.7965 11.9461C19.8771 11.9662 19.9478 12.0045 20.0082 12.0609C20.0686 12.1175 20.099 12.196 20.099 12.2969V12.3875C20.099 12.5529 20.0676 12.6658 20.0052 12.7262C19.9426 12.7867 19.8328 12.817 19.6755 12.817H19.4335C19.2722 12.817 19.1614 12.7888 19.101 12.7323C19.0404 12.6759 19.0102 12.5712 19.0102 12.4177V12.3754C19.0102 12.2909 18.9679 12.2484 18.8831 12.2484H18.369C18.2844 12.2484 18.242 12.2909 18.242 12.3754V12.4904C18.242 12.8009 18.3276 13.0438 18.4991 13.2192C18.6703 13.3944 18.9093 13.4822 19.2158 13.4822H19.2581V13.948C19.2581 14.0326 19.3004 14.0749 19.3852 14.0749Z" fill="white"/>
</g>
<defs>
<clipPath id="clip0_821_5024">
<rect width="22" height="22" fill="white" transform="translate(0.554443 0.410522)"/>
</clipPath>
</defs>
</svg>
