<svg width="17" height="17" viewBox="0 0 17 17" fill="none" xmlns="http://www.w3.org/2000/svg">
<path d="M13.8991 6.27283H7.52409C6.74169 6.27283 6.10742 6.9444 6.10742 7.77283V14.5228C6.10742 15.3513 6.74169 16.0228 7.52409 16.0228H13.8991C14.6815 16.0228 15.3158 15.3513 15.3158 14.5228V7.77283C15.3158 6.9444 14.6815 6.27283 13.8991 6.27283Z" stroke="#5967F6" stroke-width="1.6" stroke-linecap="round" stroke-linejoin="round"/>
<path d="M3.27344 10.7728H2.5651C2.18938 10.7728 1.82905 10.6148 1.56337 10.3335C1.29769 10.0522 1.14844 9.67065 1.14844 9.27283V2.52283C1.14844 2.125 1.29769 1.74347 1.56337 1.46217C1.82905 1.18086 2.18938 1.02283 2.5651 1.02283H8.9401C9.31583 1.02283 9.67616 1.18086 9.94184 1.46217C10.2075 1.74347 10.3568 2.125 10.3568 2.52283V3.27283" stroke="#5967F6" stroke-width="1.6" stroke-linecap="round" stroke-linejoin="round"/>
</svg>
