<svg width="23" height="23" viewBox="0 0 23 23" fill="none" xmlns="http://www.w3.org/2000/svg">
<g clip-path="url(#clip0_821_5051)">
<path d="M19.6475 15.5355H18.96V12.7855C18.96 12.6032 18.8876 12.4283 18.7586 12.2994C18.6297 12.1705 18.4549 12.098 18.2725 12.098H17.585C17.4027 12.098 17.2278 12.1705 17.0989 12.2994C16.9699 12.4283 16.8975 12.6032 16.8975 12.7855V15.5355H16.5538V10.723C16.5538 10.5407 16.4813 10.3658 16.3524 10.2369C16.2235 10.108 16.0486 10.0355 15.8663 10.0355H15.1788C14.9964 10.0355 14.8216 10.108 14.6926 10.2369C14.5637 10.3658 14.4913 10.5407 14.4913 10.723V15.5355H14.1475V11.7543C14.1475 11.5719 14.0751 11.3971 13.9462 11.2681C13.8172 11.1392 13.6424 11.0668 13.46 11.0668H12.7725C12.5902 11.0668 12.4153 11.1392 12.2864 11.2681C12.1574 11.3971 12.085 11.5719 12.085 11.7543V15.5355C11.9939 15.5354 11.9065 15.4992 11.842 15.4347C11.7776 15.3703 11.7414 15.2829 11.7413 15.1918V9.69177C11.7413 9.6006 11.705 9.51317 11.6406 9.4487C11.5761 9.38424 11.4887 9.34802 11.3975 9.34802C11.3063 9.34802 11.2189 9.38424 11.1544 9.4487C11.09 9.51317 11.0538 9.6006 11.0538 9.69177V15.1918C11.0541 15.4652 11.1628 15.7273 11.3561 15.9206C11.5495 16.114 11.8116 16.2227 12.085 16.223H19.6475C19.7387 16.223 19.8261 16.1868 19.8906 16.1223C19.955 16.0579 19.9913 15.9704 19.9913 15.8793C19.9913 15.7881 19.955 15.7007 19.8906 15.6362C19.8261 15.5717 19.7387 15.5355 19.6475 15.5355ZM12.7725 15.5355L12.772 11.7543H13.46V15.5355H12.7725ZM15.1788 15.5355L15.1783 10.723H15.8663V15.5355H15.1788ZM17.585 15.5355L17.5845 12.7855H18.2725V15.5355H17.585ZM15.8663 5.22302C15.8663 5.17788 15.8751 5.13317 15.8924 5.09146C15.9097 5.04975 15.935 5.01185 15.9669 4.97993C15.9988 4.94801 16.0367 4.92269 16.0785 4.90541C16.1202 4.88814 16.1649 4.87926 16.21 4.87927H19.3038C19.3949 4.87927 19.4824 4.91549 19.5468 4.97995C19.6113 5.04442 19.6475 5.13185 19.6475 5.22302C19.6475 5.31419 19.6113 5.40162 19.5468 5.46609C19.4824 5.53056 19.3949 5.56677 19.3038 5.56677H16.21C16.1649 5.56678 16.1202 5.5579 16.0785 5.54063C16.0367 5.52336 15.9988 5.49804 15.9669 5.46612C15.935 5.43419 15.9097 5.39629 15.8924 5.35458C15.8751 5.31287 15.8663 5.26817 15.8663 5.22302ZM14.835 5.22302C14.835 5.15504 14.8552 5.08857 14.8929 5.03205C14.9307 4.97552 14.9844 4.93146 15.0472 4.90544C15.11 4.87942 15.1791 4.87261 15.2458 4.88588C15.3125 4.89914 15.3738 4.93188 15.4218 4.97995C15.4699 5.02803 15.5026 5.08928 15.5159 5.15596C15.5292 5.22264 15.5224 5.29176 15.4963 5.35457C15.4703 5.41738 15.4263 5.47107 15.3697 5.50884C15.3132 5.54661 15.2468 5.56677 15.1788 5.56677C15.0876 5.56677 15.0002 5.53056 14.9357 5.46609C14.8712 5.40162 14.835 5.31419 14.835 5.22302ZM15.8663 6.59802C15.8663 6.55288 15.8751 6.50817 15.8924 6.46646C15.9097 6.42475 15.935 6.38685 15.9669 6.35493C15.9988 6.32301 16.0367 6.29769 16.0785 6.28042C16.1202 6.26314 16.1649 6.25426 16.21 6.25427H19.3038C19.3949 6.25427 19.4824 6.29049 19.5468 6.35495C19.6113 6.41942 19.6475 6.50685 19.6475 6.59802C19.6475 6.68919 19.6113 6.77663 19.5468 6.84109C19.4824 6.90556 19.3949 6.94177 19.3038 6.94177H16.21C16.1649 6.94178 16.1202 6.9329 16.0785 6.91563C16.0367 6.89836 15.9988 6.87304 15.9669 6.84112C15.935 6.80919 15.9097 6.7713 15.8924 6.72958C15.8751 6.68787 15.8663 6.64317 15.8663 6.59802ZM15.8663 7.97302C15.8663 7.92788 15.8751 7.88317 15.8924 7.84146C15.9097 7.79975 15.935 7.76185 15.9669 7.72993C15.9988 7.69801 16.0367 7.67269 16.0785 7.65542C16.1202 7.63814 16.1649 7.62926 16.21 7.62927H19.3038C19.3949 7.62927 19.4824 7.66549 19.5468 7.72995C19.6113 7.79442 19.6475 7.88185 19.6475 7.97302C19.6475 8.06419 19.6113 8.15163 19.5468 8.21609C19.4824 8.28056 19.3949 8.31677 19.3038 8.31677H16.21C16.1649 8.31678 16.1202 8.3079 16.0785 8.29063C16.0367 8.27336 15.9988 8.24804 15.9669 8.21612C15.935 8.18419 15.9097 8.1463 15.8924 8.10458C15.8751 8.06287 15.8663 8.01817 15.8663 7.97302ZM14.835 6.59802C14.835 6.53004 14.8552 6.46357 14.8929 6.40705C14.9307 6.35052 14.9844 6.30646 15.0472 6.28044C15.11 6.25442 15.1791 6.24761 15.2458 6.26088C15.3125 6.27414 15.3738 6.30688 15.4218 6.35495C15.4699 6.40303 15.5026 6.46428 15.5159 6.53096C15.5292 6.59764 15.5224 6.66676 15.4963 6.72957C15.4703 6.79238 15.4263 6.84607 15.3697 6.88384C15.3132 6.92161 15.2468 6.94177 15.1788 6.94177C15.0876 6.94177 15.0002 6.90556 14.9357 6.84109C14.8712 6.77663 14.835 6.68919 14.835 6.59802ZM14.835 7.97302C14.835 7.90504 14.8552 7.83857 14.8929 7.78204C14.9307 7.72552 14.9844 7.68146 15.0472 7.65544C15.11 7.62942 15.1791 7.62261 15.2458 7.63588C15.3125 7.64914 15.3738 7.68188 15.4218 7.72995C15.4699 7.77803 15.5026 7.83928 15.5159 7.90596C15.5292 7.97264 15.5224 8.04176 15.4963 8.10457C15.4703 8.16738 15.4263 8.22107 15.3697 8.25884C15.3132 8.29661 15.2468 8.31677 15.1788 8.31677C15.0876 8.31677 15.0002 8.28056 14.9357 8.21609C14.8712 8.15163 14.835 8.06419 14.835 7.97302ZM20.335 2.81677H3.14752C2.8741 2.81707 2.61197 2.92582 2.41864 3.11915C2.22531 3.31248 2.11656 3.57461 2.11627 3.84802V8.33415C1.83028 8.3742 1.5684 8.51627 1.37889 8.73417C1.18939 8.95207 1.08502 9.23112 1.08502 9.5199C1.08502 9.80868 1.18939 10.0877 1.37889 10.3056C1.5684 10.5235 1.83028 10.6656 2.11627 10.7056V12.3183C1.64898 12.7669 1.28489 13.3118 1.04927 13.9152C0.813648 14.5186 0.712136 15.166 0.751777 15.8126C0.791419 16.4591 0.971264 17.0893 1.27883 17.6594C1.5864 18.2295 2.01433 18.7258 2.53292 19.1139C3.05151 19.5021 3.64835 19.7727 4.28201 19.9071C4.91567 20.0415 5.57099 20.0364 6.20249 19.8922C6.83399 19.748 7.42654 19.4681 7.93904 19.0719C8.45153 18.6757 8.87169 18.1728 9.17036 17.598H20.335C20.6084 17.5977 20.8706 17.489 21.0639 17.2956C21.2572 17.1023 21.366 16.8402 21.3663 16.5668V3.84802C21.366 3.57461 21.2572 3.31248 21.0639 3.11915C20.8706 2.92582 20.6084 2.81707 20.335 2.81677ZM1.77252 9.5199C1.77252 9.41792 1.80276 9.31823 1.85941 9.23343C1.91607 9.14864 1.9966 9.08255 2.09082 9.04352C2.18504 9.0045 2.28871 8.99428 2.38873 9.01418C2.48876 9.03408 2.58063 9.08318 2.65274 9.1553C2.72485 9.22741 2.77396 9.31928 2.79386 9.4193C2.81375 9.51933 2.80354 9.623 2.76452 9.71722C2.72549 9.81144 2.6594 9.89197 2.57461 9.94862C2.48981 10.0053 2.39012 10.0355 2.28814 10.0355C2.15143 10.0354 2.02037 9.981 1.9237 9.88433C1.82704 9.78767 1.77266 9.6566 1.77252 9.5199ZM4.86627 11.7717V15.3301L1.73206 17.0177C1.49813 16.4696 1.39716 15.874 1.43739 15.2795C1.47761 14.6849 1.65791 14.1083 1.96354 13.5967C2.26917 13.0852 2.69147 12.6532 3.19595 12.336C3.70043 12.0188 4.27278 11.8254 4.86627 11.7717ZM5.55377 11.7717C6.43333 11.8531 7.25672 12.2396 7.88132 12.8642C8.50593 13.4888 8.89242 14.3122 8.97385 15.1918H5.55377V11.7717ZM5.21002 19.3168C4.58583 19.3164 3.97145 19.1615 3.42174 18.8658C2.87202 18.5702 2.40409 18.143 2.05972 17.6224L5.29694 15.8793H8.97385C8.88727 16.8181 8.45345 17.6908 7.7573 18.3266C7.06116 18.9623 6.1528 19.3155 5.21002 19.3168ZM20.6788 16.5668C20.6787 16.6579 20.6424 16.7453 20.578 16.8097C20.5135 16.8742 20.4262 16.9104 20.335 16.9105H9.46008C9.74527 16.0349 9.75253 15.0924 9.48087 14.2125C9.20921 13.3325 8.67193 12.5582 7.94274 11.9957C7.21356 11.4333 6.3282 11.1102 5.40812 11.0708C4.48804 11.0315 3.57832 11.2778 2.80377 11.7759V10.6023C3.00889 10.5053 3.18233 10.3521 3.304 10.1605C3.42567 9.96894 3.49059 9.74683 3.49127 9.5199C3.49025 9.33965 3.44826 9.162 3.36846 9.00037L5.1079 7.45415C5.26897 7.55106 5.45048 7.60894 5.63791 7.62317C5.82535 7.6374 6.01351 7.60758 6.18737 7.5361L7.70218 8.73211C7.62902 8.91556 7.60217 9.11421 7.62402 9.3105C7.64586 9.5068 7.71572 9.69468 7.82743 9.85756C7.93913 10.0204 8.08923 10.1533 8.26448 10.2444C8.43972 10.3355 8.6347 10.382 8.8322 10.3798C9.02969 10.3777 9.22361 10.3269 9.39681 10.232C9.57002 10.1371 9.71718 10.001 9.8253 9.8357C9.93341 9.67041 9.99914 9.48104 10.0167 9.28432C10.0342 9.08759 10.003 8.88958 9.92588 8.70777L11.913 7.06625C12.1496 7.23039 12.4373 7.30392 12.7237 7.2734C13.01 7.24287 13.2758 7.11033 13.4725 6.9C13.6692 6.68967 13.7836 6.41559 13.7948 6.12785C13.8061 5.84011 13.7134 5.55792 13.5338 5.33286C13.3542 5.1078 13.0996 4.95489 12.8165 4.90208C12.5334 4.84926 12.2408 4.90008 11.9921 5.04522C11.7434 5.19037 11.5552 5.42017 11.462 5.69261C11.3687 5.96506 11.3766 6.26196 11.4842 6.52906L9.4888 8.1774C9.287 8.04292 9.04928 7.97254 8.80679 7.97547C8.5643 7.9784 8.32835 8.05451 8.12985 8.19382L6.73004 7.08867C6.84672 6.91335 6.91533 6.71047 6.92899 6.50031C6.94266 6.29016 6.90089 6.0801 6.80789 5.89115C6.71488 5.7022 6.57389 5.54099 6.39901 5.42363C6.22414 5.30628 6.02152 5.23691 5.81142 5.22245C5.60131 5.20799 5.3911 5.24896 5.2018 5.34125C5.0125 5.43354 4.85075 5.57392 4.73274 5.74835C4.61473 5.92277 4.54458 6.12513 4.52933 6.33518C4.51408 6.54522 4.55424 6.75559 4.64582 6.94524L2.9051 8.49253C2.87223 8.47268 2.83859 8.45413 2.80377 8.43745V3.84802C2.80386 3.75688 2.8401 3.6695 2.90455 3.60505C2.96899 3.54061 3.05638 3.50436 3.14752 3.50427H20.335C20.4262 3.50436 20.5135 3.54061 20.578 3.60505C20.6424 3.6695 20.6787 3.75688 20.6788 3.84802V16.5668ZM6.09025 6.79075C6.01813 6.86286 5.92626 6.91197 5.82624 6.93187C5.72622 6.95176 5.62254 6.94155 5.52832 6.90252C5.43411 6.8635 5.35358 6.79741 5.29692 6.71261C5.24026 6.62782 5.21002 6.52813 5.21002 6.42615C5.21002 6.32417 5.24026 6.22448 5.29692 6.13968C5.35358 6.05489 5.43411 5.9888 5.52832 5.94977C5.62254 5.91075 5.72622 5.90053 5.82624 5.92043C5.92626 5.94032 6.01813 5.98943 6.09025 6.06154C6.1868 6.15832 6.24102 6.28944 6.24102 6.42615C6.24102 6.56285 6.1868 6.69398 6.09025 6.79075ZM9.184 9.54075C9.11188 9.61286 9.02001 9.66197 8.91999 9.68187C8.81997 9.70176 8.71629 9.69155 8.62207 9.65252C8.52786 9.6135 8.44733 9.54741 8.39067 9.46261C8.33401 9.37782 8.30377 9.27813 8.30377 9.17615C8.30377 9.07417 8.33401 8.97448 8.39067 8.88968C8.44733 8.80489 8.52786 8.7388 8.62207 8.69977C8.71629 8.66075 8.81997 8.65053 8.91999 8.67043C9.02001 8.69032 9.11188 8.73943 9.184 8.81154C9.28055 8.90832 9.33477 9.03944 9.33477 9.17615C9.33477 9.31285 9.28055 9.44398 9.184 9.54075ZM12.236 5.71779C12.3081 5.64568 12.4 5.59657 12.5 5.57668C12.6001 5.55678 12.7037 5.567 12.798 5.60602C12.8922 5.64505 12.9727 5.71114 13.0294 5.79593C13.086 5.88073 13.1163 5.98042 13.1163 6.0824C13.1163 6.18438 13.086 6.28407 13.0294 6.36886C12.9727 6.45366 12.8922 6.51975 12.798 6.55877C12.7037 6.5978 12.6001 6.60801 12.5 6.58812C12.4 6.56822 12.3081 6.51911 12.236 6.447C12.1395 6.35023 12.0852 6.21911 12.0852 6.0824C12.0852 5.94569 12.1395 5.81456 12.236 5.71779Z" fill="white"/>
</g>
<defs>
<clipPath id="clip0_821_5051">
<rect width="22" height="22" fill="white" transform="translate(0.0537109 0.410522)"/>
</clipPath>
</defs>
</svg>
