<svg width="12" height="12" viewBox="0 0 12 12" fill="none" xmlns="http://www.w3.org/2000/svg">
<g opacity="0.62">
<g clip-path="url(#clip0_505_6868)">
<path d="M4.75061 6.2651C4.75061 6.12728 4.63882 6.01562 4.50089 6.01562H3.62947C3.49169 6.01562 3.37988 6.12728 3.37988 6.2651V7.13641C3.37988 7.27441 3.49169 7.38611 3.62947 7.38611H4.50089C4.63882 7.38611 4.75061 7.27441 4.75061 7.13641V6.2651Z" fill="white"/>
<path d="M6.93016 6.2651C6.93016 6.12728 6.81835 6.01562 6.68069 6.01562H5.80915C5.67138 6.01562 5.55957 6.12728 5.55957 6.2651V7.13641C5.55957 7.27441 5.67138 7.38611 5.80915 7.38611H6.68069C6.81835 7.38611 6.93016 7.27441 6.93016 7.13641V6.2651Z" fill="white"/>
<path d="M9.10608 6.2651C9.10608 6.12728 8.99427 6.01562 8.8565 6.01562H7.98507C7.84714 6.01562 7.73535 6.12728 7.73535 6.2651V7.13641C7.73535 7.27441 7.84714 7.38611 7.98507 7.38611H8.8565C8.99427 7.38611 9.10608 7.27441 9.10608 7.13641V6.2651Z" fill="white"/>
<path d="M4.75061 8.44101C4.75061 8.30297 4.63882 8.19141 4.50089 8.19141H3.62947C3.49169 8.19141 3.37988 8.30297 3.37988 8.44101V9.31217C3.37988 9.45008 3.49169 9.56175 3.62947 9.56175H4.50089C4.63882 9.56175 4.75061 9.45006 4.75061 9.31217V8.44101Z" fill="white"/>
<path d="M6.93016 8.44101C6.93016 8.30297 6.81835 8.19141 6.68069 8.19141H5.80915C5.67138 8.19141 5.55957 8.30297 5.55957 8.44101V9.31217C5.55957 9.45008 5.67138 9.56175 5.80915 9.56175H6.68069C6.81835 9.56175 6.93016 9.45006 6.93016 9.31217V8.44101Z" fill="white"/>
<path d="M9.10608 8.44101C9.10608 8.30297 8.99427 8.19141 8.85661 8.19141H7.98507C7.84714 8.19141 7.73535 8.30297 7.73535 8.44101V9.31217C7.73535 9.45008 7.84714 9.56175 7.98507 9.56175H8.85661C8.99427 9.56175 9.10608 9.45006 9.10608 9.31217V8.44101Z" fill="white"/>
<path d="M10.663 1.41884V2.74947C10.663 3.3509 10.1751 3.83556 9.57375 3.83556H8.88662C8.28523 3.83556 7.79086 3.3509 7.79086 2.74947V1.41406H4.69379V2.74947C4.69379 3.3509 4.19944 3.83556 3.59815 3.83556H2.91088C2.30956 3.83556 1.82168 3.3509 1.82168 2.74947V1.41884C1.29612 1.43468 0.864258 1.86956 0.864258 2.40409V10.2022C0.864258 10.7468 1.30565 11.1941 1.85023 11.1941H10.6344C11.1782 11.1941 11.6204 10.7459 11.6204 10.2022V2.40409C11.6204 1.86956 11.1886 1.43468 10.663 1.41884ZM10.3438 9.71661C10.3438 9.95196 10.153 10.1429 9.91759 10.1429H2.54829C2.31285 10.1429 2.12204 9.95196 2.12204 9.71661V5.6886C2.12204 5.45316 2.31283 5.26223 2.54829 5.26223H9.91757C10.153 5.26223 10.3438 5.45316 10.3438 5.6886L10.3438 9.71661Z" fill="white"/>
<path d="M2.90977 3.12399H3.58955C3.79589 3.12399 3.96318 2.95694 3.96318 2.75061V0.568832C3.96318 0.362476 3.79589 0.195312 3.58955 0.195312H2.90977C2.70341 0.195312 2.53613 0.362476 2.53613 0.568832V2.75061C2.53613 2.95694 2.70341 3.12399 2.90977 3.12399Z" fill="white"/>
<path d="M8.87849 3.12399H9.55828C9.76448 3.12399 9.93178 2.95694 9.93178 2.75061V0.568832C9.9318 0.362476 9.7645 0.195312 9.55828 0.195312H8.87849C8.67218 0.195312 8.50488 0.362476 8.50488 0.568832V2.75061C8.50488 2.95694 8.67218 3.12399 8.87849 3.12399Z" fill="white"/>
</g>
</g>
<defs>
<clipPath id="clip0_505_6868">
<rect width="11" height="11" fill="white" transform="translate(0.743164 0.195312)"/>
</clipPath>
</defs>
</svg>
