<svg width="73" height="73" viewBox="0 0 73 73" fill="none" xmlns="http://www.w3.org/2000/svg">
<g filter="url(#filter0_d_986_8058)">
<path fill-rule="evenodd" clip-rule="evenodd" d="M45.6663 36.4487C45.6663 41.6867 41.4183 45.9317 36.1803 45.9317C30.9423 45.9317 26.6973 41.6867 26.6973 36.4487C26.6973 31.2077 30.9423 26.9627 36.1803 26.9627C41.4183 26.9627 45.6663 31.2077 45.6663 36.4487Z" stroke="#5967F6" stroke-width="3" stroke-linecap="round" stroke-linejoin="round"/>
<path fill-rule="evenodd" clip-rule="evenodd" d="M36.1756 58.3541C47.5996 58.3541 58.0486 50.1401 63.9316 36.4481C58.0486 22.7561 47.5996 14.5421 36.1756 14.5421H36.1876C24.7636 14.5421 14.3146 22.7561 8.43164 36.4481C14.3146 50.1401 24.7636 58.3541 36.1876 58.3541H36.1756Z" stroke="#5967F6" stroke-width="3" stroke-linecap="round" stroke-linejoin="round"/>
</g>
<defs>
<filter id="filter0_d_986_8058" x="-4.81836" y="-4.71057" width="82" height="82" filterUnits="userSpaceOnUse" color-interpolation-filters="sRGB">
<feFlood flood-opacity="0" result="BackgroundImageFix"/>
<feColorMatrix in="SourceAlpha" type="matrix" values="0 0 0 0 0 0 0 0 0 0 0 0 0 0 0 0 0 0 127 0" result="hardAlpha"/>
<feOffset/>
<feGaussianBlur stdDeviation="2.5"/>
<feColorMatrix type="matrix" values="0 0 0 0 0.34902 0 0 0 0 0.403922 0 0 0 0 0.964706 0 0 0 1 0"/>
<feBlend mode="normal" in2="BackgroundImageFix" result="effect1_dropShadow_986_8058"/>
<feBlend mode="normal" in="SourceGraphic" in2="effect1_dropShadow_986_8058" result="shape"/>
</filter>
</defs>
</svg>
