<svg width="23" height="23" viewBox="0 0 23 23" fill="none" xmlns="http://www.w3.org/2000/svg">
<g clip-path="url(#clip0_821_4969)">
<path d="M11.5642 13.768C12.1555 13.6143 12.5955 13.0808 12.5955 12.4418C12.5955 11.6835 11.9788 11.0668 11.2205 11.0668C10.8413 11.0668 10.533 10.7584 10.533 10.3793C10.533 10.0001 10.8413 9.69177 11.2205 9.69177C11.5996 9.69177 11.908 10.0001 11.908 10.3793H12.5955C12.5955 9.74024 12.1555 9.20674 11.5642 9.05309V8.31677H10.8767V9.05309C10.2855 9.20674 9.84546 9.74024 9.84546 10.3793C9.84546 11.1376 10.4621 11.7543 11.2205 11.7543C11.5996 11.7543 11.908 12.0626 11.908 12.4418C11.908 12.8209 11.5996 13.1293 11.2205 13.1293C10.8413 13.1293 10.533 12.8209 10.533 12.4418H9.84546C9.84546 13.0808 10.2855 13.6143 10.8767 13.768V14.5043H11.5642V13.768Z" fill="white"/>
<path d="M11.2205 6.94177C8.75646 6.94177 6.75171 8.94652 6.75171 11.4105H7.43921C7.43921 9.32568 9.13562 7.62927 11.2205 7.62927V6.94177Z" fill="white"/>
<path d="M15.0017 11.4105C15.0017 13.4954 13.3053 15.1918 11.2205 15.1918V15.8793C13.6845 15.8793 15.6892 13.8745 15.6892 11.4105H15.0017Z" fill="white"/>
<path d="M7.64555 3.21692C6.56789 3.68751 5.60573 4.35748 4.78589 5.20792L5.28054 5.68539C6.03783 4.90026 6.92608 4.28151 7.92089 3.84667L7.64555 3.21692Z" fill="white"/>
<path d="M9.07579 2.73224C8.83379 2.79171 8.59317 2.86183 8.36011 2.94055L8.58079 3.59196C8.79529 3.51943 9.01736 3.4548 9.24011 3.39946L9.07579 2.73224Z" fill="white"/>
<path d="M10.5063 2.50122C10.2715 2.51978 10.0309 2.54866 9.79126 2.58681L9.89989 3.26572C10.1213 3.22997 10.3433 3.2035 10.5599 3.187L10.5063 2.50122Z" fill="white"/>
<path d="M11.2205 1.44177C13.8835 1.44177 16.3867 2.47887 18.2694 4.36159C18.3983 4.49049 18.6266 4.49049 18.7555 4.36159L19.4705 3.64658V6.25427H16.8628L17.5403 5.57674C17.6747 5.44234 17.6747 5.22508 17.5403 5.09068C15.8521 3.40252 13.6078 2.47302 11.2205 2.47302V3.16052C13.3091 3.16052 15.2795 3.93155 16.8061 5.33887L15.7899 6.35499C15.6916 6.4533 15.6621 6.60112 15.7153 6.72968C15.7686 6.85824 15.8941 6.94177 16.033 6.94177H19.8142C20.004 6.94177 20.158 6.78812 20.158 6.59802V2.81677C20.158 2.6779 20.0741 2.55209 19.9459 2.49915C19.8166 2.44518 19.6695 2.47509 19.5712 2.57374L18.5086 3.63627C16.5269 1.77521 13.9522 0.754272 11.2205 0.754272C5.34474 0.754272 0.564209 5.53446 0.564209 11.4105H1.25171C1.25171 5.91396 5.72355 1.44177 11.2205 1.44177Z" fill="white"/>
<path d="M17.6555 17.6131L17.1609 17.1357C16.4036 17.9208 15.5153 18.5396 14.5205 18.9744L14.7959 19.6041C15.8735 19.1336 16.8353 18.4636 17.6555 17.6131Z" fill="white"/>
<path d="M13.365 20.0888C13.607 20.0294 13.8476 19.9593 14.0807 19.8805L13.86 19.2291C13.6455 19.3017 13.4234 19.3663 13.2007 19.4216L13.365 20.0888Z" fill="white"/>
<path d="M11.9347 20.3199C12.1695 20.3013 12.4101 20.2724 12.6497 20.2343L12.5411 19.5554C12.3197 19.5911 12.0977 19.6176 11.8811 19.6341L11.9347 20.3199Z" fill="white"/>
<path d="M21.1892 11.4105C21.1892 16.9071 16.7174 21.3793 11.2205 21.3793C8.55743 21.3793 6.05424 20.3422 4.17152 18.4595C4.04262 18.3306 3.81437 18.3306 3.68546 18.4595L2.97046 19.1745V16.5668H5.57815L4.90062 17.2443C4.76621 17.3787 4.76621 17.596 4.90062 17.7304C6.58877 19.4185 8.83312 20.348 11.2205 20.348V19.6605C9.13183 19.6605 7.16146 18.8895 5.63487 17.4822L6.65099 16.4661C6.7493 16.3677 6.77887 16.2199 6.72558 16.0914C6.6723 15.9628 6.54683 15.8793 6.40796 15.8793H2.62671C2.43696 15.8793 2.28296 16.0329 2.28296 16.223V20.0043C2.28296 20.1431 2.36683 20.269 2.49505 20.3219C2.62362 20.3755 2.77143 20.3456 2.86974 20.2473L3.93227 19.1848C5.91399 21.0458 8.48868 22.0668 11.2205 22.0668C17.0962 22.0668 21.8767 17.2866 21.8767 11.4105H21.1892Z" fill="white"/>
<path d="M17.0642 11.4105C17.0642 8.18821 14.4428 5.56677 11.2205 5.56677C7.99815 5.56677 5.37671 8.18821 5.37671 11.4105C5.37671 14.6328 7.99815 17.2543 11.2205 17.2543C14.4428 17.2543 17.0642 14.6328 17.0642 11.4105ZM11.2205 16.5668C8.3773 16.5668 6.06421 14.2537 6.06421 11.4105C6.06421 8.56737 8.3773 6.25427 11.2205 6.25427C14.0636 6.25427 16.3767 8.56737 16.3767 11.4105C16.3767 14.2537 14.0636 16.5668 11.2205 16.5668Z" fill="white"/>
</g>
<defs>
<clipPath id="clip0_821_4969">
<rect width="22" height="22" fill="white" transform="translate(0.220459 0.410522)"/>
</clipPath>
</defs>
</svg>
