<svg width="24" height="24" viewBox="0 0 24 24" fill="none" xmlns="http://www.w3.org/2000/svg">
<path d="M11.9813 16.8145C9.29886 16.8145 7.12424 14.6399 7.12424 11.9574C7.12424 9.27493 9.29886 7.10037 11.9813 7.10037C14.6638 7.10037 16.8384 9.27493 16.8384 11.9574C16.8384 14.6399 14.6638 16.8145 11.9813 16.8145ZM21.6671 9.86068C21.4123 8.67486 20.9457 7.56776 20.3082 6.58129L21.5895 5.29991L18.6317 2.34426L17.3514 3.62457C16.365 2.98705 15.2579 2.52047 14.0721 2.26575V0.454987H9.89057V2.26575C8.70475 2.52047 7.59771 2.98705 6.61124 3.62457L5.33093 2.34426L2.37314 5.29991L3.65445 6.58129C3.01694 7.56776 2.55036 8.67486 2.29556 9.86068H0.480057L0.477783 14.0421H2.2955C2.55029 15.228 3.01687 16.3351 3.65439 17.3216L2.36819 18.6078L5.32384 21.5657L6.61111 20.2783C7.59764 20.9159 8.70475 21.3825 9.89057 21.6373V23.4598H14.0721V21.6373C15.2579 21.3825 16.365 20.9159 17.3516 20.2783L18.6388 21.5657L21.5945 18.6078L20.3083 17.3216C20.9458 16.3351 21.4124 15.228 21.6672 14.0421H23.4849V9.86068H21.6671Z" stroke="white" stroke-width="0.849151" stroke-miterlimit="10" stroke-linecap="round" stroke-linejoin="round"/>
</svg>
