<svg width="23" height="23" viewBox="0 0 23 23" fill="none" xmlns="http://www.w3.org/2000/svg">
<g clip-path="url(#clip0_821_4988)">
<mask id="mask0_821_4988" style="mask-type:luminance" maskUnits="userSpaceOnUse" x="0" y="0" width="23" height="23">
<path d="M0.506348 0.539919H22.2446V22.2782H0.506348V0.539919Z" fill="white"/>
</mask>
<g mask="url(#mask0_821_4988)">
<path d="M19.3821 4.64441C18.8515 5.17501 17.9913 5.17501 17.4607 4.64441C16.9301 4.11382 16.9301 3.25359 17.4607 2.723C17.9913 2.1924 18.8515 2.1924 19.3821 2.723C19.9127 3.25359 19.9127 4.11382 19.3821 4.64441Z" stroke="white" stroke-width="0.849151" stroke-miterlimit="10" stroke-linecap="round" stroke-linejoin="round"/>
<path d="M5.2908 20.0954C4.76021 20.626 3.89997 20.626 3.36938 20.0954C2.83879 19.5648 2.83879 18.7046 3.36938 18.174C3.89997 17.6434 4.76021 17.6434 5.2908 18.174C5.82139 18.7046 5.82139 19.5648 5.2908 20.0954Z" stroke="white" stroke-width="0.849151" stroke-miterlimit="10" stroke-linecap="round" stroke-linejoin="round"/>
<path d="M9.31567 21.6507C9.98158 21.7839 10.6703 21.8538 11.3754 21.8538C17.1438 21.8538 21.82 17.1776 21.82 11.4092C21.82 8.89108 20.9287 6.58122 19.4446 4.77749" stroke="white" stroke-width="0.849151" stroke-miterlimit="10" stroke-linecap="round" stroke-linejoin="round"/>
<path d="M13.4548 1.17138C12.7827 1.03561 12.0873 0.964319 11.3752 0.964319C5.60686 0.964319 0.930664 5.64051 0.930664 11.4089C0.930664 13.927 1.82193 16.2369 3.30604 18.0406" stroke="white" stroke-width="0.849151" stroke-miterlimit="10" stroke-linecap="round" stroke-linejoin="round"/>
<path d="M11.3759 14.4931C9.67288 14.4931 8.29224 13.1126 8.29224 11.4095C8.29224 9.7064 9.67288 8.3258 11.3759 8.3258C13.079 8.3258 14.4596 9.7064 14.4596 11.4095C14.4596 13.1126 13.079 14.4931 11.3759 14.4931ZM17.5253 10.0783C17.3635 9.32542 17.0673 8.62254 16.6625 7.99625L17.476 7.18272L15.5982 5.30622L14.7853 6.11907C14.159 5.71432 13.4562 5.4181 12.7033 5.25637V4.10675H10.0485V5.25637C9.29568 5.4181 8.59284 5.71432 7.96655 6.11907L7.1537 5.30622L5.27584 7.18272L6.08933 7.99625C5.68458 8.62254 5.38835 9.32542 5.22659 10.0783H4.07395L4.07251 12.733H5.22655C5.38831 13.4859 5.68454 14.1888 6.08929 14.8151L5.2727 15.6317L7.1492 17.5096L7.96646 16.6923C8.5928 17.0971 9.29568 17.3933 10.0485 17.5551V18.7122H12.7033V17.5551C13.4562 17.3933 14.1591 17.0971 14.7854 16.6923L15.6027 17.5096L17.4792 15.6317L16.6626 14.8151C17.0673 14.1888 17.3636 13.4859 17.5253 12.733H18.6794V10.0783H17.5253Z" stroke="white" stroke-width="0.849151" stroke-miterlimit="10" stroke-linecap="round" stroke-linejoin="round"/>
</g>
</g>
<defs>
<clipPath id="clip0_821_4988">
<rect width="21.7383" height="21.7383" fill="white" transform="translate(0.506348 0.541382)"/>
</clipPath>
</defs>
</svg>
