<svg width="23" height="23" viewBox="0 0 23 23" fill="none" xmlns="http://www.w3.org/2000/svg">
<g clip-path="url(#clip0_821_5010)">
<path d="M22.7217 21.6772H0.72168V22.4105H22.7217V21.6772Z" fill="white"/>
<path d="M2.18844 20.9439H5.85511C6.0576 20.9439 6.22178 20.7797 6.22178 20.5772V13.9772C6.22178 13.7747 6.0576 13.6105 5.85511 13.6105H2.18844C1.98595 13.6105 1.82178 13.7747 1.82178 13.9772V20.5772C1.82178 20.7797 1.98595 20.9439 2.18844 20.9439ZM2.55511 14.3439H5.48844V20.2105H2.55511V14.3439Z" fill="white"/>
<path d="M12.455 20.9438H16.1217C16.3242 20.9438 16.4884 20.7797 16.4884 20.5772V9.57718C16.4884 9.37469 16.3242 9.21051 16.1217 9.21051H12.455C12.2526 9.21051 12.0884 9.37469 12.0884 9.57718V20.5772C12.0884 20.7797 12.2526 20.9438 12.455 20.9438ZM12.8217 9.94384H15.755V20.2105H12.8217V9.94384Z" fill="white"/>
<path d="M7.32174 20.9439H10.9884C11.1909 20.9439 11.3551 20.7797 11.3551 20.5772V5.17721C11.3551 4.97472 11.1909 4.81055 10.9884 4.81055H7.32174C7.11925 4.81055 6.95508 4.97472 6.95508 5.17721V20.5772C6.95508 20.7797 7.11925 20.9439 7.32174 20.9439ZM7.68841 5.54388H10.6217V20.2105H7.68841V5.54388Z" fill="white"/>
<path d="M17.5883 20.9439H21.255C21.4575 20.9439 21.6217 20.7797 21.6217 20.5772V0.777189C21.6217 0.574697 21.4575 0.410522 21.255 0.410522H17.5883C17.3859 0.410522 17.2217 0.574697 17.2217 0.777189V20.5772C17.2217 20.7797 17.3859 20.9439 17.5883 20.9439ZM17.955 1.14386H20.8883V20.2105H17.955V1.14386Z" fill="white"/>
</g>
<defs>
<clipPath id="clip0_821_5010">
<rect width="22" height="22" fill="white" transform="translate(0.72168 0.410522)"/>
</clipPath>
</defs>
</svg>
