<svg width="20" height="19" viewBox="0 0 20 19" fill="none" xmlns="http://www.w3.org/2000/svg">
<g clip-path="url(#clip0_696_821)">
<path d="M18.1865 8.27549C18.115 6.23965 17.2906 4.33592 15.843 2.88829C14.3257 1.37066 12.3091 0.535156 10.165 0.535156C5.83467 0.535156 2.29637 3.98188 2.14385 8.27549C1.48303 8.56916 1.02051 9.23057 1.02051 9.99929V12.1171C1.02051 13.157 1.86651 14.0033 2.90674 14.0033C3.57982 14.0033 4.1272 13.4559 4.1272 12.7829V9.33322C4.1272 8.70127 3.64252 8.18596 3.02631 8.12472C3.25378 4.38404 6.36776 1.41003 10.165 1.41003C12.0758 1.41003 13.8725 2.15485 15.2247 3.50712C16.4665 4.74886 17.1932 6.36738 17.3026 8.12501C16.6869 8.18684 16.2031 8.70185 16.2031 9.33322V12.7826C16.2031 13.4198 16.6954 13.9383 17.3189 13.9922V14.8639C17.3189 15.8455 16.5201 16.644 15.5385 16.644H14.2201C14.1553 16.4591 14.0539 16.2882 13.9115 16.1465C13.6622 15.896 13.3297 15.758 12.9757 15.758H11.6167C11.4216 15.758 11.2344 15.7994 11.0629 15.8793C10.5952 16.0943 10.293 16.5661 10.293 17.0814C10.293 17.4355 10.431 17.7679 10.6809 18.0167C10.9308 18.2672 11.2633 18.4051 11.6167 18.4051H12.9757C13.5391 18.4051 14.0358 18.0409 14.221 17.5189H15.5385C17.0028 17.5189 18.1938 16.3279 18.1938 14.8639V13.8365C18.8505 13.5411 19.3095 12.882 19.3095 12.1165V9.99871C19.3095 9.23057 18.847 8.56916 18.1865 8.27549ZM3.25203 9.33322V12.7826C3.25203 12.973 3.09718 13.1281 2.90645 13.1281C2.34886 13.1281 1.89509 12.6744 1.89509 12.1168V9.999C1.89509 9.44112 2.34886 8.98764 2.90645 8.98764C3.09718 8.98764 3.25203 9.14279 3.25203 9.33322ZM13.4146 17.1753C13.3712 17.3812 13.1863 17.5308 12.9754 17.5308H11.6164C11.4969 17.5308 11.3846 17.4842 11.2989 17.3984C11.2143 17.3141 11.1676 17.2016 11.1676 17.082C11.1676 16.9073 11.27 16.7478 11.4304 16.674C11.4875 16.6472 11.5502 16.6335 11.6164 16.6335H12.9754C13.095 16.6335 13.2073 16.6799 13.2927 16.7656C13.3773 16.8499 13.4239 16.9624 13.4239 17.082C13.4242 17.1141 13.4207 17.1462 13.4146 17.1753ZM18.4347 12.1168C18.4347 12.6744 17.9809 13.1281 17.4233 13.1281C17.2329 13.1281 17.0777 12.9733 17.0777 12.7826V9.33322C17.0777 9.14279 17.2326 8.98764 17.4233 8.98764C17.9809 8.98764 18.4347 9.44141 18.4347 9.999V12.1168Z" fill="white"/>
<path d="M13.0001 12.2652C14.0223 12.2652 14.8537 11.4335 14.8537 10.4117V6.63482C14.8537 6.14081 14.6607 5.67537 14.3101 5.32484C13.9596 4.97431 13.4945 4.78125 13.0001 4.78125H7.33502C6.31287 4.78125 5.48145 5.61268 5.48145 6.63482V10.4117C5.48145 11.4338 6.31287 12.2652 7.33502 12.2652H7.36972V13.2439C7.36972 13.6172 7.59223 13.9485 7.93635 14.0882C8.04746 14.1328 8.16295 14.155 8.27726 14.155C8.51552 14.155 8.74766 14.0605 8.91767 13.8846L10.5458 12.2652H13.0001ZM10.0573 11.5175L8.29534 13.2699C8.28747 13.2781 8.28164 13.2842 8.26502 13.2769C8.24489 13.2687 8.24489 13.2556 8.24489 13.2439V11.8278C8.24489 11.5863 8.04921 11.3904 7.80745 11.3904H7.33531C6.79551 11.3904 6.35661 10.9512 6.35661 10.4117V6.63482C6.35661 6.09502 6.79551 5.65613 7.33531 5.65613H13.0004C13.2612 5.65613 13.5064 5.7582 13.6919 5.94338C13.8774 6.12885 13.9791 6.3744 13.9791 6.63482V10.4117C13.9791 10.9515 13.5399 11.3904 13.0004 11.3904H10.3659C10.2501 11.3904 10.1393 11.4362 10.0573 11.5175Z" fill="white"/>
<path d="M8.03697 7.94922C7.68119 7.94922 7.3916 8.23909 7.3916 8.59459C7.3916 8.95008 7.68148 9.23995 8.03697 9.23995C8.39304 9.23995 8.68292 8.95008 8.68292 8.59459C8.68292 8.23909 8.39334 7.94922 8.03697 7.94922Z" fill="white"/>
<path d="M10.1659 7.94922C9.81009 7.94922 9.52051 8.23909 9.52051 8.59459C9.52051 8.95008 9.81038 9.23995 10.1659 9.23995C10.5222 9.23995 10.8118 8.95008 10.8118 8.59459C10.8118 8.23909 10.5222 7.94922 10.1659 7.94922Z" fill="white"/>
<path d="M12.287 7.94922C11.9312 7.94922 11.6416 8.23909 11.6416 8.59459C11.6416 8.95008 11.9315 9.23995 12.287 9.23995C12.643 9.23995 12.9329 8.95008 12.9329 8.59459C12.9329 8.23909 12.643 7.94922 12.287 7.94922Z" fill="white"/>
</g>
<defs>
<clipPath id="clip0_696_821">
<rect width="18.6641" height="18.6641" fill="white" transform="translate(0.833008 0.136719)"/>
</clipPath>
</defs>
</svg>
