<svg width="22" height="22" viewBox="0 0 22 22" fill="none" xmlns="http://www.w3.org/2000/svg">
<g clip-path="url(#clip0_821_5059)">
<path d="M13.9922 9.25728C14.5241 9.25728 14.9568 8.82455 14.9568 8.29268V7.14636C14.9568 6.97428 14.8173 6.83484 14.6453 6.83484C14.4732 6.83484 14.3337 6.97428 14.3337 7.14636V8.29268C14.3337 8.48101 14.1805 8.63423 13.9922 8.63423C13.8201 8.63423 13.6807 8.77367 13.6807 8.94576C13.6807 9.11784 13.8201 9.25728 13.9922 9.25728Z" fill="white"/>
<path d="M6.95361 19.1028C6.78157 19.1028 6.64209 19.2422 6.64209 19.4143V20.8773C6.64209 21.1715 6.88142 21.4108 7.17558 21.4108H20.8067C21.1009 21.4108 21.3402 21.1715 21.3402 20.8773V16.1445C21.3402 14.4649 19.9736 13.0983 18.2939 13.0983H16.7429C16.4632 13.0983 16.2357 12.8707 16.2357 12.5911V11.931C16.3921 11.8169 16.5417 11.6945 16.6811 11.5654H17.0001C17.7856 11.5654 18.4698 11.0641 18.7027 10.3179C18.7736 10.0906 18.823 9.85852 18.8501 9.62613C19.2274 9.49392 19.5089 9.14693 19.5397 8.72928L19.689 6.70241C19.7184 6.30326 19.5113 5.90692 19.1352 5.71245C19.1666 4.37786 18.6726 3.06769 17.7608 2.08632C16.7906 1.04194 15.4166 0.442993 13.9911 0.442993C12.5342 0.442993 11.1867 1.03139 10.2082 2.09749C9.31501 3.07076 8.82638 4.37665 8.84889 5.71145C8.47461 5.90401 8.26353 6.2991 8.29323 6.70241L8.44251 8.72928C8.48192 9.26435 8.93309 9.68349 9.46961 9.68349H10.1903C10.361 10.6072 10.9919 11.3802 11.7465 11.9322V12.5912C11.7465 12.8708 11.519 13.0983 11.2394 13.0983H9.68833C8.00862 13.0983 6.64209 14.4649 6.64209 16.1446V17.9606C6.64209 18.1326 6.78157 18.2721 6.95361 18.2721C7.12565 18.2721 7.26513 18.1326 7.26513 17.9606V16.1446C7.26513 14.8084 8.35217 13.7214 9.68833 13.7214H10.9279V15.5932C10.9279 15.7444 11.0181 15.8795 11.1578 15.9373C11.299 15.9958 11.4581 15.9621 11.5636 15.8565L12.1844 15.2358C12.3586 15.0616 12.6402 15.0523 12.8254 15.2147C12.8399 15.2275 13.1328 15.4843 13.1531 15.502V17.9307C13.1531 18.206 13.377 18.4299 13.6522 18.4299H14.3236C14.5988 18.4299 14.8228 18.206 14.8228 17.9307V15.5034C14.8345 15.4929 15.1571 15.21 15.157 15.2148C15.3422 15.0523 15.6238 15.0616 15.798 15.2358L16.4188 15.8566C16.5248 15.9625 16.6839 15.9956 16.8247 15.9373C16.9643 15.8794 17.0546 15.7444 17.0546 15.5933V13.7214H18.2941C19.6303 13.7214 20.7173 14.8084 20.7173 16.1446V20.7878H18.8552V17.3036C18.8552 17.1315 18.7158 16.9921 18.5437 16.9921C18.3717 16.9921 18.2322 17.1315 18.2322 17.3036V20.7878H9.75022V17.3036C9.75022 17.1315 9.61075 16.9921 9.4387 16.9921C9.26666 16.9921 9.12718 17.1315 9.12718 17.3036V20.7878H7.26513V19.4143C7.26513 19.2422 7.12565 19.1028 6.95361 19.1028ZM18.5431 9.05929C18.5111 9.06095 18.6052 9.06045 17.8539 9.06045L18.0631 6.21998C18.487 6.21998 18.6644 6.21989 18.6728 6.2201C18.7789 6.22259 18.8824 6.26637 18.9599 6.3499C19.0378 6.43368 19.076 6.54263 19.0676 6.65668L19.0545 6.83496H18.7209C18.5488 6.83496 18.4093 6.97439 18.4093 7.14648C18.4093 7.31856 18.5488 7.45799 18.7209 7.45799H19.0086L18.9781 7.87335H18.7209C18.5489 7.87335 18.4094 8.01279 18.4094 8.18487C18.4094 8.35696 18.5489 8.49639 18.7209 8.49639H18.9322L18.9184 8.68355C18.9035 8.88463 18.7414 9.04429 18.5431 9.05929ZM16.3551 4.49657L15.4642 3.60575C15.3158 3.45738 15.0743 3.45738 14.9258 3.60575L14.231 4.3006C13.8456 4.68601 13.3332 4.8983 12.7882 4.8983H12.2039C11.6797 4.8983 11.2532 5.32479 11.2532 5.84902V6.05001C11.2532 6.34757 11.1373 6.62728 10.927 6.83766L10.6126 7.15204L10.5193 5.88565C10.4453 4.88069 10.7744 3.92914 11.4459 3.20634C12.106 2.49582 13.0097 2.10451 13.9905 2.10451C14.9704 2.10451 15.8774 2.49994 16.5444 3.21788C17.2107 3.935 17.538 4.8679 17.466 5.84466C17.4625 5.89242 17.3653 7.21293 17.3632 7.24105L16.9598 6.83766C16.7494 6.62732 16.6335 6.34757 16.6335 6.05001V5.16891C16.6335 4.91488 16.5346 4.67608 16.3551 4.49657ZM10.6673 2.51875C11.5332 1.57518 12.7206 1.06599 13.9912 1.06599C15.244 1.06599 16.4516 1.59246 17.3044 2.51032C18.0829 3.34822 18.5149 4.45877 18.5136 5.59689H18.0988C18.1034 4.5531 17.7193 3.56695 17.0008 2.79368C16.226 1.95968 15.1288 1.48135 13.9905 1.48135C12.8346 1.48135 11.7688 1.94331 10.9895 2.78213C10.2739 3.55237 9.88841 4.54155 9.886 5.59689H9.47135C9.47758 4.45711 9.90482 3.34959 10.6673 2.51875ZM9.06393 8.68351L9.05014 8.49635H9.26139C9.43343 8.49635 9.57291 8.35691 9.57291 8.18483C9.57291 8.01275 9.43343 7.87331 9.26139 7.87331H9.00424L8.97367 7.45795H9.26139C9.43343 7.45795 9.57291 7.31852 9.57291 7.14643C9.57291 6.97435 9.43343 6.83491 9.26139 6.83491H8.92777L8.91465 6.65664C8.90621 6.54258 8.94447 6.43364 9.02231 6.34986C9.09832 6.26803 9.2005 6.22284 9.30949 6.22006C9.31804 6.21985 9.48934 6.21993 9.91919 6.21993C9.9626 6.80954 10.0901 8.5405 10.1284 9.06041H9.46961C9.25769 9.06045 9.07946 8.89485 9.06393 8.68351ZM10.7744 9.34908C10.6919 8.22986 10.7192 8.60023 10.673 7.97267L11.3675 7.27814C11.6956 6.95009 11.8762 6.51388 11.8762 6.04993V5.84894C11.8762 5.66825 12.0232 5.52126 12.2039 5.52126H12.7882C13.4996 5.52126 14.1684 5.24417 14.6716 4.74113L15.195 4.21761L15.9145 4.9371C15.9764 4.99894 16.0105 5.08127 16.0105 5.16878V6.04989C16.0105 6.51388 16.1912 6.95005 16.5193 7.2781L17.3027 8.06164C17.3024 8.0665 17.2076 9.35349 17.208 9.349C17.1936 9.5431 17.1511 9.73815 17.0814 9.9288C17.0771 9.94064 17.0674 9.94832 17.0565 9.94832H16.0314C15.8594 9.94832 15.7199 10.0878 15.7199 10.2598C15.7199 10.4319 15.8594 10.5714 16.0314 10.5714H17.0565C17.3278 10.5714 17.573 10.3991 17.6666 10.1426C17.7218 9.99164 17.7637 9.83804 17.7921 9.68345H18.2134C18.1894 9.8341 18.1541 9.98429 18.108 10.1323C17.9568 10.6168 17.5116 10.9424 17.0001 10.9424H14.025V10.5714H14.5777C14.7497 10.5714 14.8892 10.4319 14.8892 10.2598C14.8892 10.0878 14.7497 9.94832 14.5777 9.94832H14.0014C13.6708 9.94832 13.402 10.2172 13.402 10.5478V10.966C13.402 11.2965 13.6709 11.5654 14.0014 11.5654H15.6739C15.0544 11.9731 14.4036 12.1885 13.9912 12.1885C12.8719 12.1885 10.888 10.8925 10.7744 9.34908ZM13.9911 12.8115C14.4634 12.8115 15.0497 12.627 15.6127 12.3237V12.5912C15.6127 12.9863 15.8165 13.3347 16.1246 13.5368C13.8403 15.5349 13.9881 15.4056 13.9881 15.4056C11.1296 12.8992 12.108 13.7571 11.8571 13.5372C12.1655 13.3352 12.3696 12.9866 12.3696 12.5912V12.3246C12.9379 12.63 13.5262 12.8115 13.9911 12.8115ZM11.7438 14.7952L11.5509 14.9881V14.0973L12.084 14.5647C11.9601 14.6178 11.8443 14.6947 11.7438 14.7952ZM13.7761 17.8068V15.9965C13.9122 16.0474 14.0634 16.0475 14.1997 15.9967V17.8069H13.7761V17.8068ZM16.2385 14.7951C16.1375 14.6943 16.0212 14.6171 15.8966 14.564L16.4314 14.0962V14.9881L16.2385 14.7951Z" fill="white"/>
<path d="M1.47128 3.52673C1.3006 3.57155 1.1814 3.72627 1.1814 3.90297V4.58112C1.1814 4.79591 1.35614 4.97065 1.57088 4.97065H6.51831C6.73305 4.97065 6.90779 4.79591 6.90779 4.58112V3.90292C6.90779 3.72623 6.78862 3.57151 6.61791 3.52669C6.42473 3.47594 6.29326 3.30082 6.29812 3.10066C6.30278 2.91051 6.43428 2.74395 6.61787 2.6956C6.78858 2.65066 6.90779 2.49594 6.90779 2.31937V1.64125C6.90779 1.42647 6.73305 1.25177 6.51831 1.25177H1.57092C1.35614 1.25177 1.18144 1.42647 1.18144 1.64125V2.31941C1.18144 2.49598 1.30065 2.6507 1.47132 2.69564C1.65491 2.74399 1.78641 2.91055 1.7911 3.1007C1.796 3.30078 1.6645 3.47598 1.47128 3.52673ZM1.80448 4.06674C2.18083 3.8935 2.4244 3.51265 2.41393 3.08546C2.40405 2.68247 2.16131 2.32265 1.80448 2.15621V1.87485H3.0933C3.11361 2.02729 3.24407 2.14483 3.40203 2.14483C3.55999 2.14483 3.6905 2.02729 3.71077 1.87485H6.28479V2.15621C5.92791 2.32265 5.68518 2.68247 5.67533 3.08546C5.66487 3.51261 5.90843 3.89354 6.28479 4.06674V4.34761H3.71355V4.18009C3.71355 4.00801 3.57407 3.86857 3.40203 3.86857C3.22999 3.86857 3.09051 4.00801 3.09051 4.18009V4.34761H1.80448V4.06674Z" fill="white"/>
<path d="M3.40137 3.45285C3.57341 3.45285 3.71289 3.31341 3.71289 3.14132V2.87134C3.71289 2.69925 3.57341 2.55981 3.40137 2.55981C3.22932 2.55981 3.08984 2.69925 3.08984 2.87134V3.14132C3.08984 3.31341 3.22932 3.45285 3.40137 3.45285Z" fill="white"/>
<path d="M0.588823 6.07774H2.00856C2.1806 6.07774 2.32008 5.93831 2.32008 5.76622C2.32008 5.59414 2.1806 5.4547 2.00856 5.4547H0.696525V0.76696H7.39187V5.4547H6.85423C6.59268 5.4547 6.37984 5.66749 6.37984 5.92909V7.08142L4.89203 5.59364C4.80243 5.50409 4.68331 5.4547 4.55658 5.4547H3.46232C3.29028 5.4547 3.1508 5.59414 3.1508 5.76622C3.1508 5.93831 3.29028 6.07774 3.46232 6.07774H4.49507L6.01774 7.60037C6.18184 7.76452 6.42828 7.81594 6.64667 7.72551C6.86312 7.63588 7.00297 7.42658 7.00297 7.19232V6.07774H7.49965C7.7838 6.07774 8.01495 5.84659 8.01495 5.56245V0.659216C8.01495 0.375068 7.78376 0.143921 7.49961 0.143921H0.588823C0.304675 0.143921 0.0734863 0.375068 0.0734863 0.659216V5.56245C0.0734863 5.84659 0.304675 6.07774 0.588823 6.07774Z" fill="white"/>
</g>
<defs>
<clipPath id="clip0_821_5059">
<rect width="21.2666" height="21.2666" fill="white" transform="translate(0.0732422 0.143921)"/>
</clipPath>
</defs>
</svg>
