<svg width="21" height="20" viewBox="0 0 21 20" fill="none" xmlns="http://www.w3.org/2000/svg">
<g clip-path="url(#clip0_349_31688)">
<path d="M16.4532 5.8166L17.6079 4.66184L16.4717 3.52517L15.2363 4.76048C14.1078 3.96075 12.791 3.46786 11.4147 3.3301V1.68274H13.0219V0.0755615H8.20032V1.68274H9.8075V3.3301C8.43123 3.46786 7.11434 3.96075 5.98583 4.76048L4.75051 3.52517L3.61424 4.66184L4.769 5.8166C3.6911 6.95786 2.97108 8.38984 2.69785 9.9357C2.42463 11.4816 2.61016 13.0736 3.23154 14.5152C3.85292 15.9568 4.88294 17.1848 6.19438 18.0476C7.50583 18.9104 9.04127 19.3702 10.6111 19.3702C12.1809 19.3702 13.7163 18.9104 15.0278 18.0476C16.3392 17.1848 17.3693 15.9568 17.9906 14.5152C18.612 13.0736 18.7976 11.4816 18.5243 9.9357C18.2511 8.38984 17.5311 6.95786 16.4532 5.8166ZM10.6111 17.7545C9.33961 17.7545 8.09668 17.3775 7.03949 16.6711C5.98229 15.9647 5.15831 14.9607 4.67173 13.786C4.18516 12.6113 4.05785 11.3187 4.3059 10.0716C4.55396 8.82458 5.16623 7.67909 6.0653 6.78002C6.96437 5.88095 8.10986 5.26867 9.35691 5.02062C10.604 4.77257 11.8966 4.89988 13.0712 5.38645C14.2459 5.87303 15.25 6.69701 15.9564 7.75421C16.6628 8.8114 17.0398 10.0543 17.0398 11.3258C17.0379 13.0302 16.36 14.6643 15.1548 15.8695C13.9496 17.0747 12.3155 17.7526 10.6111 17.7545Z" fill="white"/>
<path d="M10.6116 6.50427V11.3258H5.79004C5.79004 12.2794 6.07282 13.2116 6.60261 14.0045C7.13241 14.7974 7.88543 15.4154 8.76645 15.7803C9.64747 16.1453 10.6169 16.2407 11.5522 16.0547C12.4875 15.8687 13.3466 15.4094 14.0209 14.7351C14.6952 14.0608 15.1544 13.2017 15.3405 12.2664C15.5265 11.3312 15.431 10.3617 15.0661 9.48068C14.7012 8.59966 14.0832 7.84664 13.2903 7.31685C12.4974 6.78705 11.5652 6.50427 10.6116 6.50427Z" fill="white"/>
</g>
<defs>
<clipPath id="clip0_349_31688">
<rect width="19.2861" height="19.2861" fill="white" transform="translate(0.967773 0.0755615)"/>
</clipPath>
</defs>
</svg>
