<svg width="33" height="33" viewBox="0 0 33 33" fill="none" xmlns="http://www.w3.org/2000/svg">
<path fill-rule="evenodd" clip-rule="evenodd" d="M13.3398 21.0429C8.21449 21.0429 3.83716 21.8175 3.83716 24.9215C3.83716 28.0242 8.18649 28.8282 13.3398 28.8282C18.4652 28.8282 22.8425 28.0522 22.8425 24.9495C22.8425 21.8469 18.4932 21.0429 13.3398 21.0429Z" stroke="#5967F6" stroke-width="1.5" stroke-linecap="round" stroke-linejoin="round"/>
<path fill-rule="evenodd" clip-rule="evenodd" d="M13.3399 16.6158C16.7213 16.6158 19.4306 13.9051 19.4306 10.5251C19.4306 7.14381 16.7213 4.43448 13.3399 4.43448C9.95993 4.43448 7.24927 7.14381 7.24927 10.5251C7.24927 13.9051 9.95993 16.6158 13.3399 16.6158Z" stroke="#5967F6" stroke-width="1.5" stroke-linecap="round" stroke-linejoin="round"/>
<path d="M25.7753 12.3268V17.6734" stroke="#5967F6" stroke-width="1.5" stroke-linecap="round" stroke-linejoin="round"/>
<path d="M28.5034 14.9999H23.05" stroke="#5967F6" stroke-width="1.5" stroke-linecap="round" stroke-linejoin="round"/>
</svg>
