<svg width="12" height="12" viewBox="0 0 12 12" fill="none" xmlns="http://www.w3.org/2000/svg">
<g opacity="0.62">
<g clip-path="url(#clip0_505_6883)">
<path d="M8.36042 2.46875H7.97363V3.84399H9.32738V3.43571C9.32738 2.90253 8.8936 2.46875 8.36042 2.46875Z" fill="white"/>
<path d="M7.00684 0.195312H3.13965C2.96167 0.195312 2.81738 0.339602 2.81738 0.517578V3.84658H7.3291V0.517578C7.3291 0.339602 7.18481 0.195312 7.00684 0.195312Z" fill="white"/>
<path d="M2.17123 2.46875H1.26873C0.998903 2.46875 0.745258 2.57378 0.554551 2.76451C0.363823 2.95522 0.258789 3.20886 0.258789 3.47869V3.84399H2.17123V2.46875Z" fill="white"/>
<path d="M7.60645 7.58398C7.60645 8.06081 7.99937 8.63672 8.4873 8.63672H10.9365C11.1145 8.63672 11.2588 8.49243 11.2588 8.31445V6.85352C11.2588 6.67554 11.1145 6.53125 10.9365 6.53125H8.4873C7.99937 6.53125 7.60645 7.10716 7.60645 7.58398ZM9.00293 7.58392C9.00293 7.76192 8.85864 7.90619 8.68066 7.90619C8.50269 7.90619 8.3584 7.76192 8.3584 7.58392C8.3584 7.40594 8.50269 7.26165 8.68066 7.26165C8.85864 7.26165 9.00293 7.40594 9.00293 7.58392Z" fill="white"/>
<path d="M7.38922 8.73024C7.11768 8.40509 6.96191 7.9884 6.96191 7.58699C6.96191 7.18558 7.11768 6.76889 7.38922 6.44374C7.68759 6.08648 8.07758 5.88972 8.4873 5.88972H10.7002V4.92293C10.7002 4.86958 10.6965 4.81716 10.6894 4.7659C10.6675 4.60833 10.5307 4.49219 10.3716 4.49219H0.258789V10.0938C0.258789 10.7018 0.692494 11.1964 1.22559 11.1964H9.7334C10.2665 11.1964 10.7002 10.7018 10.7002 10.0938V9.28426H8.4873C8.07758 9.28426 7.68759 9.0875 7.38922 8.73024Z" fill="white"/>
</g>
</g>
<defs>
<clipPath id="clip0_505_6883">
<rect width="11" height="11" fill="white" transform="translate(0.258789 0.195312)"/>
</clipPath>
</defs>
</svg>
