<svg width="23" height="23" viewBox="0 0 23 23" fill="none" xmlns="http://www.w3.org/2000/svg">
<path d="M14.1375 4.87927C14.1375 4.40336 13.9963 3.93814 13.7319 3.54243C13.4675 3.14673 13.0917 2.83831 12.652 2.65619C12.2123 2.47407 11.7285 2.42641 11.2618 2.51926C10.795 2.6121 10.3662 2.84128 10.0297 3.1778C9.69321 3.51432 9.46403 3.94307 9.37119 4.40984C9.27834 4.8766 9.32599 5.36042 9.50812 5.80011C9.69024 6.23979 9.99866 6.6156 10.3944 6.88C10.7901 7.1444 11.2553 7.28552 11.7312 7.28552C12.3692 7.2848 12.9808 7.03105 13.4319 6.57995C13.883 6.12884 14.1367 5.51723 14.1375 4.87927ZM10.0125 4.87927C10.0125 4.53934 10.1133 4.20703 10.3021 3.92439C10.491 3.64174 10.7594 3.42144 11.0735 3.29136C11.3875 3.16127 11.7331 3.12723 12.0665 3.19355C12.3999 3.25987 12.7062 3.42356 12.9465 3.66393C13.1869 3.90431 13.3506 4.21056 13.4169 4.54396C13.4832 4.87737 13.4492 5.22295 13.3191 5.53701C13.189 5.85107 12.9687 6.1195 12.6861 6.30836C12.4034 6.49722 12.0711 6.59802 11.7312 6.59802C11.2755 6.59748 10.8387 6.41622 10.5165 6.09401C10.1943 5.7718 10.013 5.33495 10.0125 4.87927Z" fill="white"/>
<path d="M17.2312 1.09802H6.2312C5.86653 1.09802 5.51679 1.24289 5.25893 1.50075C5.00107 1.75861 4.8562 2.10835 4.8562 2.47302C4.8562 2.8377 5.00107 3.18743 5.25893 3.44529C5.51679 3.70316 5.86653 3.84802 6.2312 3.84802H6.9187V6.80771L5.4612 9.33084C4.83467 10.4088 4.57304 11.6603 4.71526 12.899L5.19995 17.2749V18.2855H4.8562C4.76503 18.2855 4.6776 18.3217 4.61313 18.3862C4.54867 18.4507 4.51245 18.5381 4.51245 18.6293V21.3793C4.51245 21.4704 4.54867 21.5579 4.61313 21.6223C4.6776 21.6868 4.76503 21.723 4.8562 21.723H11.0437C11.1349 21.723 11.2223 21.6868 11.2868 21.6223C11.3512 21.5579 11.3875 21.4704 11.3875 21.3793V18.6293C11.3875 18.5381 11.3512 18.4507 11.2868 18.3862C11.2223 18.3217 11.1349 18.2855 11.0437 18.2855H10.7584L11.1915 17.5636C11.5453 16.9751 11.7319 16.3013 11.7312 15.6146V15.1677C11.7318 14.686 11.6396 14.2086 11.4596 13.7618L11.3428 13.473H16.2C16.2911 13.473 16.3786 13.4368 16.443 13.3723C16.5075 13.3079 16.5437 13.2204 16.5437 13.1293V3.84802H17.2312C17.5959 3.84802 17.9456 3.70316 18.2035 3.44529C18.4613 3.18743 18.6062 2.8377 18.6062 2.47302C18.6062 2.10835 18.4613 1.75861 18.2035 1.50075C17.9456 1.24289 17.5959 1.09802 17.2312 1.09802ZM7.6062 10.4033C7.84254 10.4328 8.07381 10.494 8.2937 10.5855V12.7855H7.6062V10.4033ZM6.2312 3.16052C6.04903 3.15998 5.87448 3.08737 5.74567 2.95856C5.61685 2.82974 5.54425 2.65519 5.5437 2.47302C5.54505 2.2911 5.61792 2.11702 5.74656 1.98838C5.8752 1.85974 6.04928 1.78687 6.2312 1.78552H6.9187V3.16052H6.2312ZM10.7 21.0355H5.19995V18.973H10.7V21.0355ZM11.0437 15.6146C11.0445 16.1768 10.8911 16.7285 10.6003 17.2096L10.0606 18.1102C10.0291 18.1633 10.0125 18.2238 10.0125 18.2855H5.88745V17.2543C5.88802 17.2416 5.88686 17.2289 5.88401 17.2165L5.39589 12.8233C5.27322 11.7297 5.50584 10.6257 6.05933 9.67459L6.9187 8.18271V13.1293C6.9187 13.2204 6.95492 13.3079 7.01938 13.3723C7.08385 13.4368 7.17128 13.473 7.26245 13.473H8.2937V13.8168H8.9812V10.3793C8.98175 10.1971 9.05435 10.0226 9.18317 9.89374C9.31198 9.76492 9.48653 9.69232 9.6687 9.69177C9.85062 9.69312 10.0247 9.76599 10.1533 9.89463C10.282 10.0233 10.3549 10.1974 10.3562 10.3793V12.7855C10.3555 12.8291 10.3637 12.8724 10.3803 12.9127L10.8203 14.0196C10.9688 14.3841 11.0447 14.7741 11.0437 15.1677V15.6146ZM15.8562 12.7855H13.474C13.5507 12.1805 13.8264 11.6182 14.2576 11.1869C14.6889 10.7557 15.2512 10.4801 15.8562 10.4033V12.7855ZM15.8562 9.70896C15.0675 9.789 14.3306 10.1389 13.7701 10.6994C13.2095 11.26 12.8597 11.9968 12.7796 12.7855H11.0712L11.0437 12.7202V10.3793C11.0443 10.0585 10.9325 9.74764 10.7277 9.50071C10.5229 9.25378 10.2381 9.08636 9.9228 9.02754C9.60745 8.96872 9.28146 9.02221 9.00145 9.17871C8.72143 9.33522 8.50507 9.58486 8.38995 9.88427C8.13641 9.79623 7.87332 9.73853 7.6062 9.7124V1.78552H15.8562V9.70896ZM17.7159 2.95771C17.6525 3.0219 17.5771 3.07288 17.4939 3.10769C17.4107 3.1425 17.3214 3.16046 17.2312 3.16052H16.5437V1.78552H17.2312C17.4134 1.78607 17.5879 1.85867 17.7167 1.98749C17.8455 2.1163 17.9182 2.29085 17.9187 2.47302C17.9186 2.56321 17.9007 2.65249 17.8659 2.73569C17.8311 2.81889 17.7801 2.89435 17.7159 2.95771Z" fill="white"/>
<path d="M21.324 12.296C21.2963 12.2368 21.2523 12.1868 21.1971 12.1517C21.1419 12.1166 21.0779 12.098 21.0126 12.098H20.3251V5.91052H19.6376V12.4418C19.6376 12.5329 19.6738 12.6204 19.7382 12.6848C19.8027 12.7493 19.8901 12.7855 19.9813 12.7855H20.2787L19.2938 13.9673L18.309 12.7855H18.6063C18.6975 12.7855 18.7849 12.7493 18.8494 12.6848C18.9139 12.6204 18.9501 12.5329 18.9501 12.4418V5.91052H18.2626V12.098H17.5751C17.5097 12.098 17.4458 12.1167 17.3907 12.1517C17.3356 12.1868 17.2916 12.2368 17.2639 12.296C17.2362 12.3551 17.2259 12.421 17.2343 12.4857C17.2426 12.5505 17.2693 12.6116 17.3111 12.6618L19.0298 14.7243C19.0621 14.763 19.1024 14.7941 19.1481 14.8154C19.1937 14.8368 19.2434 14.8479 19.2938 14.8479C19.3442 14.8479 19.3939 14.8368 19.4396 14.8154C19.4852 14.7941 19.5256 14.763 19.5578 14.7243L21.2766 12.6618C21.3184 12.6116 21.3451 12.5506 21.3535 12.4858C21.3619 12.421 21.3517 12.3552 21.324 12.296Z" fill="white"/>
<path d="M5.5115 7.48352C5.48379 7.42432 5.43977 7.37425 5.38461 7.33918C5.32945 7.30411 5.26543 7.2855 5.20007 7.28552H4.51257V1.09802H3.82507V7.62927C3.82507 7.72044 3.86128 7.80787 3.92575 7.87234C3.99021 7.93681 4.07765 7.97302 4.16882 7.97302H4.46616L3.48132 9.15483L2.49647 7.97302H2.79382C2.88498 7.97302 2.97242 7.93681 3.03688 7.87234C3.10135 7.80787 3.13757 7.72044 3.13757 7.62927V1.09802H2.45007V7.28552H1.76257C1.69725 7.28555 1.63329 7.30418 1.57818 7.33924C1.52307 7.3743 1.47909 7.42434 1.45139 7.48349C1.42369 7.54264 1.41341 7.60846 1.42177 7.67324C1.43012 7.73802 1.45676 7.79908 1.49857 7.84927L3.21732 9.91177C3.24958 9.95046 3.28995 9.98158 3.33557 10.0029C3.38119 10.0243 3.43094 10.0354 3.48132 10.0354C3.53169 10.0354 3.58145 10.0243 3.62707 10.0029C3.67269 9.98158 3.71306 9.95046 3.74532 9.91177L5.46407 7.84927C5.50591 7.79911 5.53259 7.73807 5.54099 7.6733C5.54939 7.60852 5.53916 7.54269 5.5115 7.48352Z" fill="white"/>
</svg>
