<svg width="104" height="38" viewBox="0 0 104 38" fill="none" xmlns="http://www.w3.org/2000/svg">
<path d="M14.8855 26.285L30.6815 8.25008C31.2879 7.55822 31.0832 6.48286 30.2669 6.06309L18.8552 0.18102C18.4277 -0.0392332 17.9042 0.0592332 17.5855 0.422004L1.2116 19.1151C0.872147 19.5037 0.986158 20.1075 1.44481 20.3433L13.4888 26.5519C13.9604 26.7928 14.5356 26.684 14.8855 26.285Z" fill="#5967F6"/>
<g opacity="0.5">
<path opacity="0.5" d="M1.44738 20.3464L2.82849 21.0589L17.4326 16.5113C18.2929 16.2419 18.8837 15.4464 18.8811 14.542L18.3007 1.39418L18.2696 11.0698C18.2696 11.0698 18.4924 13.2024 17.9223 14.0445C17.3523 14.8867 16.01 15.0654 16.01 15.0654C15.852 15.2468 0.993912 19.5327 1.02242 19.7478C1.0561 19.9914 1.2038 20.2194 1.44738 20.3464Z" fill="#B0B6FA"/>
</g>
<path d="M1.08526 19.8604C1.09822 19.8604 1.11118 19.8578 1.12414 19.8552L16.8347 14.9656C17.7572 14.678 18.3765 13.8384 18.3765 12.8719L18.3531 0.123091C18.3531 0.0505371 18.2935 -0.00646973 18.221 -0.00646973C18.1484 -0.00646973 18.0888 0.0531281 18.0914 0.125682L18.1147 12.8745C18.1147 13.7244 17.5706 14.4655 16.757 14.7168L1.04639 19.6065C0.976433 19.6272 0.937567 19.7023 0.960888 19.7697C0.979027 19.8241 1.02826 19.8604 1.08526 19.8604Z" fill="white"/>
<path d="M31.1812 30.8117C31.1838 30.8117 31.1889 30.8117 31.1915 30.8117C31.334 30.8013 34.7933 30.4878 42.624 26.0102C43.3003 25.6241 43.9092 25.238 44.456 24.8519C46.6067 26.1864 49.8379 27.1192 54.0487 27.5856C62.68 28.5444 69.1866 26.474 69.2513 26.4507C69.3213 26.4274 69.3576 26.3548 69.3343 26.2848C69.3109 26.2149 69.2384 26.1786 69.1684 26.2019C69.1036 26.2226 62.6463 28.2775 54.0746 27.3239C49.9571 26.8679 46.7958 25.9661 44.684 24.6861C48.8274 21.6906 49.3767 18.8532 49.4 17.6664C49.4285 16.2801 48.8481 15.0778 47.8453 14.4507C46.8347 13.8159 45.5883 13.7796 44.4301 14.3497C42.7276 15.1866 41.5771 17.086 41.3491 19.4311C41.1444 21.5481 42.1316 23.3257 44.2124 24.6964C43.6941 25.0566 43.1215 25.4168 42.4892 25.7795C34.7208 30.2183 31.1993 30.5448 31.1656 30.5474C31.0931 30.5526 31.0386 30.6174 31.0464 30.6873C31.0568 30.7599 31.1138 30.8117 31.1812 30.8117ZM46.0988 14.2123C46.6689 14.2123 47.2208 14.3678 47.7131 14.6762C48.6356 15.254 49.172 16.3708 49.1435 17.6639C49.1202 18.8169 48.576 21.5921 44.4508 24.5384C42.396 23.2142 41.4191 21.4989 41.6186 19.4596C41.8362 17.2052 42.9349 15.3862 44.5544 14.5881C45.0597 14.3393 45.5857 14.2123 46.0988 14.2123Z" fill="#E3F2FF"/>
<path d="M103.893 16.052L81.6835 37.2948L70.6734 18.1768L103.893 16.052Z" fill="#863DD4"/>
<g opacity="0.5">
<path opacity="0.5" d="M70.6724 18.1784L76.1709 27.727C76.4326 27.1544 76.6425 26.5066 76.7799 25.7758C77.5106 21.8786 80.1951 19.0879 82.3147 17.4347L70.6724 18.1784Z" fill="#6A92E7"/>
</g>
<path d="M103.893 16.052L78.2527 31.3791L72.0157 33.5324L74.625 24.9321L103.893 16.052Z" fill="#C48DFF"/>
<g opacity="0.5">
<path opacity="0.5" d="M78.2507 31.3813C78.2507 31.3813 89.8853 21.6201 94.0105 19.0522L74.623 24.9317L72.0162 33.5346L78.2507 31.3813Z" fill="#C48DFF"/>
</g>
</svg>
